{
.appVersion = "3316";
.formatVersion = 3;
DisplayStrings = (
"---",
"",
"//1+2−=
//1+3tf6="
);
axes = (
{
name = Weight;
tag = wght;
},
{
name = Slant;
tag = slnt;
}
);
classes = (
{
automatic = 1;
code = "A Aacute Abreve Acircumflex Adieresis Agrave Amacron Aogonek Aring Atilde AE B C Cacute Ccaron Ccedilla Cdotaccent D Dcaron Dcroat Eth E Eacute Ecaron Ecircumflex Edieresis Edotaccent Egrave Emacron Eogonek Schwa F G Gbreve Gcommaaccent Gdotaccent H Hbar I Iacute Icircumflex Idieresis Idotaccent Igrave Imacron Iogonek J Jacute K Kcommaaccent L Lacute Lcaron Lcommaaccent Lslash M N Nacute Ncaron Ncommaaccent Ntilde O Oacute Ocircumflex Odieresis Ograve Ohungarumlaut Omacron Oslash Otilde OE P Thorn Q R Racute Rcaron Rcommaaccent S Sacute Scaron Scedilla Scommaaccent Germandbls T Tcaron Tcedilla Tcommaaccent U Uacute Ucircumflex Udieresis Ugrave Uhungarumlaut Umacron Uogonek Uring V W Wacute Wcircumflex Wdieresis Wgrave X Y Yacute Ycircumflex Ydieresis Ygrave Z Zacute Zcaron Zdotaccent M.ss02 W.ss02";
name = Uppercase;
}
);
customParameters = (
{
name = isFixedPitch;
value = 1;
},
{
name = "Enforce Compatibility Check";
value = 1;
},
{
name = blueScale;
value = 0.059;
},
{
name = blueShift;
value = 8;
},
{
name = blueFuzz;
value = 0;
},
{
name = "Use Typo Metrics";
value = 1;
},
{
name = fsType;
value = (
);
},
{
name = "Export Mac Name Table Entries";
value = 0;
},
{
name = "Use Extension Kerning";
value = 1;
},
{
name = "Decompose Components in Variable Font";
value = 1;
}
);
date = "2024-06-19 09:45:36 +0000";
familyName = "Server Mono";
featurePrefixes = (
{
automatic = 1;
code = "languagesystem DFLT dflt;

languagesystem latn dflt;
languagesystem latn AZE;
languagesystem latn CRT;
languagesystem latn KAZ;
languagesystem latn TAT;
languagesystem latn TRK;
languagesystem latn ROM;
languagesystem latn MOL;
languagesystem latn NLD;
";
name = Languagesystems;
}
);
features = (
{
automatic = 1;
code = "feature locl;
feature case;
feature ss01;
feature ss02;
";

glyphs = (
{
glyphname = A;
lastChange = "2024-07-26 13:25:08 +0000";
layers = (
{
anchors = (
{
name = bottom;
pos = (315,0);
},
{
name = ogonek;
pos = (585,0);
},
{
name = top;
pos = (315,700);
}
);
layerId = m01;
shapes = (
{
closed = 1;
nodes = (
(486,0,l),
(585,0,l),
(380,700,l),
(250,700,l),
(45,0,l),
(144,0,l),
(311,595,l),
(319,595,l)
);
},
{
closed = 1;
nodes = (
(164,205,l),
(465,205,l),
(445,291,l),
(184,291,l)
);
}
);
width = 630;
},
{
anchors = (
{
name = bottom;
pos = (271,0);
},
{
name = ogonek;
pos = (541,0);
},
{
name = top;
pos = (395,700);
}
);
layerId = "941849C8-D0D1-40F0-8537-D2B5B3A46943";
shapes = (
{
closed = 1;
nodes = (
(447,0,l),
(541,0,l),
(460,700,l),
(330,700,l),
(1,0,l),
(105,0,l),
(377,595,l),
(385,595,l)
);
},
{
closed = 1;
nodes = (
(156,205,l),
(457,205,l),
(453,291,l),
(192,291,l)
);
}
);
width = 630;
}
);
unicode = 65;
},
{
glyphname = AE;
lastChange = "2024-07-26 13:25:08 +0000";
layers = (
{
layerId = m01;
shapes = (
{
closed = 1;
nodes = (
(386,700,l),
(209,700,l),
(30,0,l),
(125,0,l),
(277,620,l),
(386,620,l)
);
},
{
closed = 1;
nodes = (
(145,208,l),
(386,208,l),
(386,288,l),
(165,288,l)
);
},
{
closed = 1;
nodes = (
(594,0,l),
(594,80,l),
(415,80,l),
(415,320,l),
(540,320,l),
(540,400,l),
(415,400,l),
(415,620,l),
(584,620,l),
(584,700,l),
(325,700,l),
(325,0,l)
);
}
);
width = 630;
},
{
layerId = "941849C8-D0D1-40F0-8537-D2B5B3A46943";
shapes = (
{
closed = 1;
nodes = (
(466,700,l),
(289,700,l),
(-14,0,l),
(87,0,l),
(349,620,l),
(452,620,l)
);
},
{
closed = 1;
nodes = (
(138,208,l),
(379,208,l),
(393,288,l),
(172,288,l)
);
},
{
closed = 1;
nodes = (
(550,0,l),
(564,80,l),
(385,80,l),
(428,320,l),
(553,320,l),
(567,400,l),
(442,400,l),
(481,620,l),
(650,620,l),
(664,700,l),
(405,700,l),
(281,0,l)
);
}
);
width = 630;
}
);
unicode = 198;
},
{
glyphname = B;
lastChange = "2024-07-26 14:30:06 +0000";
layers = (
{
anchors = (
{
name = bottom;
pos = (315,0);
},
{
name = center;
pos = (158,175);
},
{
name = top;
pos = (315,700);
}
);
layerId = m01;
shapes = (
{
closed = 1;
nodes = (
(352,0,ls),
(497,0,o),
(576,75,o),
(576,194,cs),
(576,285,o),
(537,338,o),
(467,363,c),
(467,371,l),
(513,394,o),
(555,437,o),
(555,519,cs),
(555,629,o),
(489,700,o),
(340,700,cs),
(110,700,l),
(110,0,l)
);
},
{
closed = 1;
nodes = (
(206,320,l),
(341,320,ls),
(435,320,o),
(480,277,o),
(480,203,cs),
(480,129,o),
(435,86,o),
(341,86,cs),
(206,86,l)
);
},
{
closed = 1;
nodes = (
(206,614,l),
(336,614,ls),
(423,614,o),
(459,578,o),
(459,510,cs),
(459,442,o),
(423,406,o),
(336,406,cs),
(206,406,l)
);
}
);
width = 630;
},
{
anchors = (
{
name = bottom;
pos = (276,0);
},
{
name = center;
pos = (150,175);
},
{
name = top;
pos = (400,700);
}
);
layerId = "941849C8-D0D1-40F0-8537-D2B5B3A46943";
shapes = (
{
closed = 1;
nodes = (
(320,0,ls),
(489,0,o),
(576,87,o),
(576,221,cs),
(576,294,o),
(546,343,o),
(492,363,c),
(494,371,l),
(580,406,o),
(612,475,o),
(612,540,cs),
(612,615,o),
(565,700,o),
(405,700,cs),
(195,700,l),
(71,0,l)
);
},
{
closed = 1;
nodes = (
(224,320,l),
(359,320,ls),
(441,320,o),
(480,284,o),
(480,217,cs),
(480,144,o),
(424,86,o),
(317,86,cs),
(182,86,l)
);
},
{
closed = 1;
nodes = (
(276,614,l),
(396,614,ls),
(481,614,o),
(513,576,o),
(513,523,cs),
(513,444,o),
(462,406,o),
(369,406,cs),
(239,406,l)
);
}
);
width = 630;
}
);
unicode = 66;
},
{
glyphname = C;
lastChange = "2024-07-26 14:30:06 +0000";
layers = (
{
anchors = (
{
name = bottom;
pos = (315,0);
},
{
name = top;
pos = (315,700);
}
);
layerId = m01;
shapes = (
{
closed = 1;
nodes = (
(429,260,l),
(475,283,l),
(475,164,o),
(420,76,o),
(324,76,cs),
(231,76,o),
(158,150,o),
(158,350,cs),
(158,550,o),
(227,624,o),
(323,624,cs),
(423,624,o),
(472,532,o),
(472,408,c),
(426,435,l),
(612,435,l),
(568,409,l),
(568,603,o),
(477,710,o),
(323,710,cs),
(161,710,o),
(60,588,o),
(60,350,cs),
(60,112,o),
(163,-10,o),
(324,-10,cs),
(468,-10,o),
(571,98,o),
(571,292,c),
(615,260,l)
);
}
);
width = 630;
},
{
anchors = (
{
name = bottom;
pos = (276,0);
},
{
name = top;
pos = (400,700);
}
);
layerId = "941849C8-D0D1-40F0-8537-D2B5B3A46943";
shapes = (
{
closed = 1;
nodes = (
(436,260,l),
(486,283,l),
(465,164,o),
(395,76,o),
(299,76,cs),
(224,76,o),
(171,124,o),
(171,246,cs),
(171,374,o),
(222,624,o),
(394,624,cs),
(494,624,o),
(527,532,o),
(505,408,c),
(464,435,l),
(650,435,l),
(601,409,l),
(636,603,o),
(550,710,o),
(400,710,cs),
(168,710,o),
(72,456,o),
(72,236,cs),
(72,73,o),
(161,-10,o),
(294,-10,cs),
(438,-10,o),
(550,98,o),
(584,292,c),
(622,260,l)
);
}
);
width = 630;
},
{
anchors = (
{
name = bottom;
pos = (271,0);
},
{
name = top;
pos = (395,700);
}
);
associatedMasterId = "941849C8-D0D1-40F0-8537-D2B5B3A46943";
layerId = "BBB12425-05D9-4DAD-A68B-BFC66E4D3176";
name = "26 juil. 24 à 13:38";
shapes = (
{
closed = 1;
nodes = (
(431,260,l),
(481,283,l),
(460,164,o),
(390,76,o),
(294,76,cs),
(201,76,o),
(141,150,o),
(176,350,cs),
(211,550,o),
(293,624,o),
(389,624,cs),
(489,624,o),
(522,532,o),
(500,408,c),
(459,435,l),
(645,435,l),
(596,409,l),
(631,603,o),
(558,710,o),
(404,710,cs),
(242,710,o),
(120,588,o),
(78,350,cs),
(36,112,o),
(118,-10,o),
(279,-10,cs),
(423,-10,o),
(545,98,o),
(579,292,c),
(617,260,l)
);
}
);
width = 630;
}
);
unicode = 67;
},
{
glyphname = D;
lastChange = "2024-07-26 14:30:06 +0000";
layers = (
{
anchors = (
{
name = bottom;
pos = (315,0);
},
{
name = center;
pos = (159,350);
},
{
name = top;
pos = (315,700);
}
);
layerId = m01;
shapes = (
{
closed = 1;
nodes = (
(259,0,ls),
(476,0,o),
(560,105,o),
(560,349,cs),
(560,592,o),
(476,700,o),
(257,700,cs),
(82,700,l),
(82,0,l)
);
},
{
closed = 1;
nodes = (
(178,614,l),
(256,614,ls),
(413,614,o),
(464,550,o),
(464,350,cs),
(464,150,o),
(413,86,o),
(256,86,cs),
(178,86,l)
);
}
);
width = 630;
},
{
anchors = (
{
name = bottom;
pos = (272,0);
},
{
name = center;
pos = (178,350);
},
{
name = top;
pos = (396,700);
}
);
layerId = "941849C8-D0D1-40F0-8537-D2B5B3A46943";
shapes = (
{
closed = 1;
nodes = (
(216,0,ls),
(433,0,o),
(536,105,o),
(579,349,cs),
(622,592,o),
(557,700,o),
(338,700,cs),
(163,700,l),
(39,0,l)
);
},
{
closed = 1;
nodes = (
(244,614,l),
(322,614,ls),
(479,614,o),
(518,550,o),
(483,350,cs),
(448,150,o),
(385,86,o),
(228,86,cs),
(150,86,l)
);
}
);
width = 630;
}
);
unicode = 68;
},
{
glyphname = E;
lastChange = "2024-07-26 14:32:00 +0000";
layers = (
{
anchors = (
{
name = bottom;
pos = (315,0);
},
{
name = ogonek;
pos = (543,0);
},
{
name = top;
pos = (315,700);
},
{
name = topleft;
pos = (20,700);
}
);
layerId = m01;
shapes = (
{
closed = 1;
nodes = (
(543,0,l),
(543,86,l),
(200,86,l),
(200,317,l),
(429,317,l),
(429,403,l),
(200,403,l),
(200,614,l),
(533,614,l),
(533,700,l),
(104,700,l),
(104,0,l)
);
}
);
width = 630;
},
{
anchors = (
{
name = bottom;
pos = (271,0);
},
{
name = ogonek;
pos = (499,0);
},
{
name = top;
pos = (394,700);
},
{
name = topleft;
pos = (99,700);
}
);
layerId = "941849C8-D0D1-40F0-8537-D2B5B3A46943";
shapes = (
{
closed = 1;
nodes = (
(499,0,l),
(514,86,l),
(171,86,l),
(212,317,l),
(441,317,l),
(456,403,l),
(227,403,l),
(265,614,l),
(598,614,l),
(613,700,l),
(184,700,l),
(60,0,l)
);
}
);
width = 630;
}
);
unicode = 69;
},
{
glyphname = Schwa;
lastChange = "2024-07-26 14:30:06 +0000";
layers = (
{
anchors = (
{
name = bottom;
pos = (315,0);
},
{
name = top;
pos = (315,700);
}
);
layerId = m01;
shapes = (
{
closed = 1;
nodes = (
(475,-10,o),
(576,108,o),
(576,350,cs),
(576,592,o),
(477,710,o),
(315,710,cs),
(169,710,o),
(75,612,o),
(70,460,c),
(26,483,l),
(216,483,l),
(167,456,l),
(175,548,o),
(224,624,o),
(315,624,cs),
(442,624,o),
(478,517,o),
(478,350,cs),
(478,183,o),
(433,76,o),
(315,76,cs),
(197,76,o),
(152,183,o),
(152,350,cs),
(152,363,l),
(97,288,l),
(518,288,l),
(518,374,l),
(55,374,l),
(55,350,ls),
(55,108,o),
(155,-10,o),
(315,-10,cs)
);
}
);
width = 630;
},
{
anchors = (
{
name = bottom;
pos = (275,0);
},
{
name = top;
pos = (399,700);
}
);
layerId = "941849C8-D0D1-40F0-8537-D2B5B3A46943";
shapes = (
{
closed = 1;
nodes = (
(518,-10,o),
(610,249,o),
(610,470,cs),
(610,632,o),
(520,710,o),
(390,710,cs),
(251,710,o),
(143,612,o),
(111,460,c),
(71,483,l),
(264,483,l),
(211,456,l),
(232,558,o),
(294,624,o),
(385,624,cs),
(478,624,o),
(512,566,o),
(512,470,cs),
(512,348,o),
(469,76,o),
(289,76,cs),
(171,76,o),
(145,183,o),
(174,350,cs),
(176,363,l),
(108,288,l),
(529,288,l),
(544,374,l),
(81,374,l),
(77,350,ls),
(34,108,o),
(120,-10,o),
(281,-10,cs)
);
}
);
width = 630;
}
);
unicode = 399;
},
{
glyphname = F;
lastChange = "2024-07-26 14:30:06 +0000";
layers = (
{
anchors = (
{
name = bottom;
pos = (315,0);
},
{
name = top;
pos = (315,700);
}
);
layerId = m01;
shapes = (
{
closed = 1;
nodes = (
(220,0,l),
(220,317,l),
(449,317,l),
(449,403,l),
(220,403,l),
(220,614,l),
(553,614,l),
(553,700,l),
(124,700,l),
(124,0,l)
);
}
);
width = 630;
},
{
anchors = (
{
name = bottom;
pos = (272,0);
},
{
name = top;
pos = (396,700);
}
);
layerId = "941849C8-D0D1-40F0-8537-D2B5B3A46943";
shapes = (
{
closed = 1;
nodes = (
(177,0,l),
(233,317,l),
(462,317,l),
(477,403,l),
(248,403,l),
(286,614,l),
(619,614,l),
(634,700,l),
(205,700,l),
(81,0,l)
);
}
);
width = 630;
}
);
unicode = 70;
},
{
glyphname = G;
lastChange = "2024-07-26 14:30:06 +0000";
layers = (
{
anchors = (
{
name = bottom;
pos = (315,0);
},
{
name = top;
pos = (315,700);
}
);
layerId = m01;
shapes = (
{
closed = 1;
nodes = (
(475,-10,o),
(575,101,o),
(575,350,cs),
(575,374,l),
(290,374,l),
(290,288,l),
(533,288,l),
(480,363,l),
(480,350,ls),
(480,172,o),
(437,76,o),
(319,76,cs),
(196,76,o),
(152,183,o),
(152,350,cs),
(152,517,o),
(194,624,o),
(321,624,cs),
(412,624,o),
(455,548,o),
(463,456,c),
(414,483,l),
(604,483,l),
(560,460,l),
(555,612,o),
(467,710,o),
(321,710,cs),
(159,710,o),
(54,592,o),
(54,350,cs),
(54,108,o),
(159,-10,o),
(319,-10,cs)
);
}
);
width = 630;
},
{
associatedMasterId = m01;
layerId = "19957019-CAE2-480A-A30B-7BC8DCF9EE9C";
name = "19 juin 24 à 16:34";
shapes = (
{
closed = 1;
nodes = (
(400,-10,o),
(459,29,o),
(491,84,c),
(498,84,l),
(520,0,l),
(573,0,l),
(573,364,l),
(256,364,l),
(256,294,l),
(522,294,l),
(486,329,l),
(486,152,o),
(441,60,o),
(320,60,cs),
(197,60,o),
(154,167,o),
(154,350,cs),
(154,533,o),
(197,640,o),
(325,640,cs),
(436,640,o),
(472,553,o),
(472,425,c),
(426,465,l),
(611,465,l),
(567,425,l),
(567,613,o),
(482,710,o),
(325,710,cs),
(158,710,o),
(58,592,o),
(58,350,cs),
(58,108,o),
(147,-10,o),
(309,-10,cs)
);
}
);
width = 630;
},
{
anchors = (
{
name = bottom;
pos = (277,0);
},
{
name = top;
pos = (401,700);
}
);
layerId = "941849C8-D0D1-40F0-8537-D2B5B3A46943";
shapes = (
{
closed = 1;
nodes = (
(443,-10,o),
(557,101,o),
(599,350,cs),
(603,374,l),
(318,374,l),
(303,288,l),
(546,288,l),
(506,363,l),
(504,350,ls),
(473,172,o),
(413,76,o),
(295,76,cs),
(202,76,o),
(165,144,o),
(165,246,cs),
(165,374,o),
(206,624,o),
(393,624,cs),
(484,624,o),
(514,548,o),
(506,456,c),
(461,483,l),
(651,483,l),
(603,460,l),
(625,612,o),
(539,710,o),
(398,710,cs),
(157,710,o),
(67,455,o),
(67,235,cs),
(67,70,o),
(155,-10,o),
(290,-10,cs)
);
}
);
width = 630;
},
{
anchors = (
{
name = bottom;
pos = (271,0);
},
{
name = top;
pos = (395,700);
}
);
associatedMasterId = "941849C8-D0D1-40F0-8537-D2B5B3A46943";
layerId = "43F027FB-A0AB-4A97-AC49-3A29A6632B0E";
name = "26 juil. 24 à 13:56";
shapes = (
{
closed = 1;
nodes = (
(427,-10,o),
(546,101,o),
(590,350,cs),
(594,374,l),
(309,374,l),
(294,288,l),
(537,288,l),
(497,363,l),
(495,350,ls),
(464,172,o),
(404,76,o),
(286,76,cs),
(163,76,o),
(138,183,o),
(167,350,cs),
(196,517,o),
(257,624,o),
(384,624,cs),
(475,624,o),
(505,548,o),
(497,456,c),
(452,483,l),
(642,483,l),
(594,460,l),
(616,612,o),
(545,710,o),
(399,710,cs),
(237,710,o),
(112,592,o),
(69,350,cs),
(26,108,o),
(111,-10,o),
(271,-10,cs)
);
}
);
width = 630;
}
);
unicode = 71;
},
{
glyphname = H;
lastChange = "2024-07-26 14:30:06 +0000";
layers = (
{
anchors = (
{
name = bottom;
pos = (315,0);
},
{
name = center;
pos = (315,525);
},
{
name = top;
pos = (315,700);
},
{
name = topleft;
pos = (20,700);
}
);
layerId = m01;
shapes = (
{
closed = 1;
nodes = (
(178,0,l),
(178,316,l),
(452,316,l),
(452,0,l),
(548,0,l),
(548,700,l),
(452,700,l),
(452,402,l),
(178,402,l),
(178,700,l),
(82,700,l),
(82,0,l)
);
}
);
width = 630;
},
{
anchors = (
{
name = bottom;
pos = (272,0);
},
{
name = center;
pos = (365,525);
},
{
name = top;
pos = (396,700);
},
{
name = topleft;
pos = (101,700);
}
);
layerId = "941849C8-D0D1-40F0-8537-D2B5B3A46943";
shapes = (
{
closed = 1;
nodes = (
(135,0,l),
(191,316,l),
(465,316,l),
(409,0,l),
(505,0,l),
(629,700,l),
(533,700,l),
(480,402,l),
(206,402,l),
(259,700,l),
(163,700,l),
(39,0,l)
);
}
);
width = 630;
}
);
unicode = 72;
},
{
glyphname = I;
lastChange = "2024-07-26 14:30:06 +0000";
layers = (
{
anchors = (
{
name = bottom;
pos = (315,0);
},
{
name = ogonek;
pos = (524,0);
},
{
name = top;
pos = (315,700);
},
{
name = topleft;
pos = (20,700);
}
);
layerId = m01;
shapes = (
{
closed = 1;
nodes = (
(524,0,l),
(524,86,l),
(363,86,l),
(363,614,l),
(524,614,l),
(524,700,l),
(106,700,l),
(106,614,l),
(267,614,l),
(267,86,l),
(106,86,l),
(106,0,l)
);
}
);
width = 630;
},
{
anchors = (
{
name = bottom;
pos = (272,0);
},
{
name = ogonek;
pos = (481,0);
},
{
name = top;
pos = (396,700);
},
{
name = topleft;
pos = (101,700);
}
);
layerId = "941849C8-D0D1-40F0-8537-D2B5B3A46943";
shapes = (
{
closed = 1;
nodes = (
(481,0,l),
(496,86,l),
(335,86,l),
(429,614,l),
(590,614,l),
(605,700,l),
(187,700,l),
(172,614,l),
(333,614,l),
(239,86,l),
(78,86,l),
(63,0,l)
);
}
);
width = 630;
}
);
unicode = 73;
},
{
glyphname = J;
lastChange = "2024-07-26 14:32:15 +0000";
layers = (
{
anchors = (
{
name = bottom;
pos = (315,0);
},
{
name = top;
pos = (326,700);
}
);
layerId = m01;
shapes = (
{
closed = 1;
nodes = (
(142,700,l),
(142,614,l),
(419,614,l),
(419,228,ls),
(419,126,o),
(383,77,o),
(307,77,cs),
(231,77,o),
(191,126,o),
(191,228,c),
(237,219,l),
(50,219,l),
(94,226,l),
(94,72,o),
(171,-10,o),
(307,-10,cs),
(432,-10,o),
(515,72,o),
(515,223,cs),
(515,700,l)
);
}
);
width = 630;
},
{
anchors = (
{
name = bottom;
pos = (272,0);
},
{
name = top;
pos = (407,700);
}
);
layerId = "941849C8-D0D1-40F0-8537-D2B5B3A46943";
shapes = (
{
closed = 1;
nodes = (
(223,700,l),
(207,614,l),
(484,614,l),
(416,228,ls),
(398,126,o),
(354,77,o),
(278,77,cs),
(202,77,o),
(170,126,o),
(188,228,c),
(233,219,l),
(46,219,l),
(91,226,l),
(64,72,o),
(136,-10,o),
(272,-10,cs),
(417,-10,o),
(485,72,o),
(511,223,cs),
(596,700,l)
);
}
);
width = 630;
}
);
unicode = 74;
},
{
glyphname = K;
lastChange = "2024-07-26 13:25:08 +0000";
layers = (
{
anchors = (
{
name = bottom;
pos = (315,0);
},
{
name = top;
pos = (315,700);
}
);
layerId = m01;
shapes = (
{
closed = 1;
nodes = (
(176,177,l),
(543,700,l),
(439,700,l),
(204,358,l),
(196,358,l),
(139,358,l),
(139,177,l)
);
},
{
closed = 1;
nodes = (
(196,0,l),
(196,700,l),
(100,700,l),
(100,0,l)
);
},
{
closed = 1;
nodes = (
(564,0,l),
(341,436,l),
(269,369,l),
(269,330,l),
(291,330,l),
(459,0,l)
);
}
);
width = 630;
},
{
associatedMasterId = m01;
layerId = "A97E63E5-DCFF-45E7-B023-A8F7C4F2618B";
name = "19 juin 24 à 14:54";
shapes = (
{
closed = 1;
nodes = (
(172,364,l),
(172,700,l),
(82,700,l),
(82,0,l),
(172,0,l),
(172,294,l),
(458,294,l),
(458,0,l),
(548,0,l),
(548,364,l)
);
},
{
closed = 1;
nodes = (
(438,700,l),
(180,364,l),
(281,364,l),
(545,700,l)
);
}
);
width = 630;
},
{
anchors = (
{
name = bottom;
pos = (271,0);
},
{
name = top;
pos = (395,700);
}
);
layerId = "941849C8-D0D1-40F0-8537-D2B5B3A46943";
shapes = (
{
closed = 1;
nodes = (
(163,177,l),
(623,700,l),
(519,700,l),
(223,358,l),
(215,358,l),
(158,358,l),
(126,177,l)
);
},
{
closed = 1;
nodes = (
(152,0,l),
(276,700,l),
(180,700,l),
(56,0,l)
);
},
{
closed = 1;
nodes = (
(520,0,l),
(374,436,l),
(290,369,l),
(283,330,l),
(305,330,l),
(415,0,l)
);
}
);
width = 630;
},
{
associatedMasterId = "941849C8-D0D1-40F0-8537-D2B5B3A46943";
layerId = "7A2C8840-931E-41E7-B1F4-F9F65CC8BB37";
name = "19 juin 24 à 14:54";
shapes = (
{
closed = 1;
nodes = (
(172,364,l),
(172,700,l),
(82,700,l),
(82,0,l),
(172,0,l),
(172,294,l),
(458,294,l),
(458,0,l),
(548,0,l),
(548,364,l)
);
},
{
closed = 1;
nodes = (
(438,700,l),
(180,364,l),
(281,364,l),
(545,700,l)
);
}
);
width = 630;
}
);
unicode = 75;
},
{
glyphname = L;
lastChange = "2024-07-26 13:25:08 +0000";
layers = (
{
anchors = (
{
name = bottom;
pos = (325,0);
},
{
name = center;
pos = (150,350);
},
{
name = top;
pos = (142,700);
},
{
name = topright;
pos = (405,700);
}
);
layerId = m01;
shapes = (
{
closed = 1;
nodes = (
(559,0,l),
(559,86,l),
(190,86,l),
(190,700,l),
(94,700,l),
(94,0,l)
);
}
);
width = 630;
},
{
anchors = (
{
name = bottom;
pos = (281,0);
},
{
name = center;
pos = (168,350);
},
{
name = top;
pos = (222,700);
},
{
name = topright;
pos = (485,700);
}
);
layerId = "941849C8-D0D1-40F0-8537-D2B5B3A46943";
shapes = (
{
closed = 1;
nodes = (
(515,0,l),
(530,86,l),
(161,86,l),
(270,700,l),
(174,700,l),
(50,0,l)
);
}
);
width = 630;
}
);
unicode = 76;
},
{
glyphname = M;
lastChange = "2024-08-08 11:05:59 +0000";
layers = (
{
anchors = (
{
name = bottom;
pos = (315,0);
},
{
name = top;
pos = (315,700);
}
);
layerId = m01;
shapes = (
{
closed = 1;
nodes = (
(158,591,l),
(165,591,l),
(265,246,l),
(365,246,l),
(465,591,l),
(472,591,l),
(472,0,l),
(562,0,l),
(562,700,l),
(419,700,l),
(319,336,l),
(311,336,l),
(211,700,l),
(68,700,l),
(68,0,l),
(158,0,l)
);
}
);
width = 630;
},
{
associatedMasterId = m01;
layerId = "8392A0A2-DE5C-4EEF-B6AD-40C707089B8F";
name = "20 juin 24 à 12:37";
shapes = (
{
closed = 1;
nodes = (
(156,608,l),
(163,608,l),
(257,230,l),
(373,230,l),
(467,608,l),
(474,608,l),
(474,0,l),
(564,0,l),
(564,700,l),
(410,700,l),
(319,309,l),
(311,309,l),
(220,700,l),
(66,700,l),
(66,0,l),
(156,0,l)
);
}
);
width = 630;
},
{
anchors = (
{
name = bottom;
pos = (271,0);
},
{
name = top;
pos = (395,700);
}
);
layerId = "941849C8-D0D1-40F0-8537-D2B5B3A46943";
shapes = (
{
closed = 1;
nodes = (
(218,591,l),
(225,591,l),
(265,246,l),
(365,246,l),
(524,591,l),
(531,591,l),
(427,0,l),
(517,0,l),
(641,700,l),
(498,700,l),
(335,336,l),
(327,336,l),
(291,700,l),
(148,700,l),
(24,0,l),
(114,0,l)
);
}
);
width = 630;
},
{
associatedMasterId = "941849C8-D0D1-40F0-8537-D2B5B3A46943";
layerId = "D14115F2-3723-4A4E-BD33-04C647130A02";
name = "20 juin 24 à 12:37";
shapes = (
{
closed = 1;
nodes = (
(156,608,l),
(163,608,l),
(257,230,l),
(373,230,l),
(467,608,l),
(474,608,l),
(474,0,l),
(564,0,l),
(564,700,l),
(410,700,l),
(319,309,l),
(311,309,l),
(220,700,l),
(66,700,l),
(66,0,l),
(156,0,l)
);
}
);
width = 630;
}
);
unicode = 77;
},
{
glyphname = N;
lastChange = "2024-07-26 14:30:06 +0000";
layers = (
{
anchors = (
{
name = bottom;
pos = (315,0);
},
{
name = top;
pos = (315,700);
}
);
layerId = m01;
shapes = (
{
closed = 1;
nodes = (
(178,547,l),
(186,547,l),
(415,0,l),
(548,0,l),
(548,700,l),
(452,700,l),
(452,152,l),
(444,152,l),
(215,700,l),
(82,700,l),
(82,0,l),
(178,0,l)
);
}
);
width = 630;
},
{
anchors = (
{
name = bottom;
pos = (272,0);
},
{
name = top;
pos = (396,700);
}
);
layerId = "941849C8-D0D1-40F0-8537-D2B5B3A46943";
shapes = (
{
closed = 1;
nodes = (
(232,547,l),
(240,547,l),
(372,0,l),
(505,0,l),
(629,700,l),
(533,700,l),
(436,152,l),
(428,152,l),
(296,700,l),
(163,700,l),
(39,0,l),
(135,0,l)
);
}
);
width = 630;
}
);
unicode = 78;
},
{
glyphname = O;
lastChange = "2024-07-26 14:31:09 +0000";
layers = (
{
anchors = (
{
name = bottom;
pos = (315,0);
},
{
name = center;
pos = (315,350);
},
{
name = ogonek;
pos = (567,10);
},
{
name = top;
pos = (315,700);
},
{
name = topleft;
pos = (20,700);
},
{
name = topright;
pos = (610,700);
}
);
layerId = m01;
shapes = (
{
closed = 1;
nodes = (
(476,-10,o),
(578,112,o),
(578,350,cs),
(578,588,o),
(476,710,o),
(315,710,cs),
(154,710,o),
(52,588,o),
(52,350,cs),
(52,112,o),
(154,-10,o),
(315,-10,cs)
);
},
{
closed = 1;
nodes = (
(199,76,o),
(150,180,o),
(150,350,cs),
(150,520,o),
(199,624,o),
(315,624,cs),
(431,624,o),
(480,520,o),
(480,350,cs),
(480,180,o),
(431,76,o),
(315,76,cs)
);
}
);
width = 630;
},
{
anchors = (
{
name = bottom;
pos = (271,0);
},
{
name = center;
pos = (333,350);
},
{
name = ogonek;
pos = (525,10);
},
{
name = top;
pos = (394,700);
},
{
name = topleft;
pos = (99,700);
},
{
name = topright;
pos = (689,700);
}
);
layerId = "941849C8-D0D1-40F0-8537-D2B5B3A46943";
shapes = (
{
closed = 1;
nodes = (
(510,-10,o),
(617,232,o),
(617,452,cs),
(617,627,o),
(527,710,o),
(394,710,cs),
(176,710,o),
(69,468,o),
(69,248,cs),
(69,73,o),
(150,-10,o),
(292,-10,cs)
);
},
{
closed = 1;
nodes = (
(206,76,o),
(167,137,o),
(167,242,cs),
(167,392,o),
(234,624,o),
(391,624,cs),
(480,624,o),
(519,563,o),
(519,458,cs),
(519,338,o),
(472,76,o),
(295,76,cs)
);
}
);
width = 630;
},
{
anchors = (
{
name = bottom;
pos = (271,0);
},
{
name = center;
pos = (333,350);
},
{
name = ogonek;
pos = (525,10);
},
{
name = top;
pos = (395,700);
},
{
name = topleft;
pos = (100,700);
},
{
name = topright;
pos = (690,700);
}
);
associatedMasterId = "941849C8-D0D1-40F0-8537-D2B5B3A46943";
layerId = "D28EB6F4-9B13-46D9-A89B-DC5AA58CEE8D";
name = "26 juil. 24 à 13:40";
shapes = (
{
closed = 1;
nodes = (
(431,-10,o),
(554,112,o),
(596,350,cs),
(638,588,o),
(557,710,o),
(396,710,cs),
(235,710,o),
(112,588,o),
(70,350,cs),
(28,112,o),
(109,-10,o),
(270,-10,cs)
);
},
{
closed = 1;
nodes = (
(169,76,o),
(138,180,o),
(168,350,cs),
(198,520,o),
(265,624,o),
(381,624,cs),
(497,624,o),
(528,520,o),
(498,350,cs),
(468,180,o),
(401,76,o),
(285,76,cs)
);
}
);
width = 630;
}
);
unicode = 79;
},
{
glyphname = OE;
lastChange = "2024-07-26 14:30:06 +0000";
layers = (
{
layerId = m01;
shapes = (
{
closed = 1;
nodes = (
(256,-10,o),
(301,7,o),
(327,53,c),
(336,53,l),
(336,0,l),
(611,0,l),
(611,82,l),
(427,82,l),
(427,319,l),
(551,319,l),
(551,401,l),
(427,401,l),
(427,618,l),
(605,618,l),
(605,700,l),
(336,700,l),
(336,647,l),
(327,647,l),
(301,691,o),
(256,710,o),
(216,710,cs),
(90,710,o),
(34,590,o),
(33,355,cs),
(33,345,ls),
(34,110,o),
(90,-10,o),
(216,-10,cs)
);
},
{
closed = 1;
nodes = (
(161,76,o),
(131,149,o),
(131,345,cs),
(131,355,ls),
(131,551,o),
(161,624,o),
(234,624,cs),
(303,624,o),
(333,551,o),
(334,355,cs),
(334,345,ls),
(333,149,o),
(303,76,o),
(234,76,cs)
);
}
);
width = 630;
},
{
layerId = "941849C8-D0D1-40F0-8537-D2B5B3A46943";
shapes = (
{
closed = 1;
nodes = (
(219,-10,o),
(260,7,o),
(294,53,c),
(303,53,l),
(293,0,l),
(568,0,l),
(583,82,l),
(399,82,l),
(441,319,l),
(565,319,l),
(579,401,l),
(455,401,l),
(493,618,l),
(671,618,l),
(686,700,l),
(417,700,l),
(407,647,l),
(398,647,l),
(380,691,o),
(335,710,o),
(295,710,cs),
(169,710,o),
(95,590,o),
(53,355,cs),
(51,345,ls),
(4,111,o),
(54,-10,o),
(171,-10,cs)
);
},
{
closed = 1;
nodes = (
(132,76,o),
(115,149,o),
(149,345,cs),
(151,355,ls),
(186,551,o),
(228,624,o),
(301,624,cs),
(370,624,o),
(388,551,o),
(354,355,cs),
(352,345,ls),
(317,149,o),
(274,76,o),
(205,76,cs)
);
}
);
width = 630;
}
);
unicode = 338;
},
{
glyphname = P;
lastChange = "2024-07-26 14:30:06 +0000";
layers = (
{
anchors = (
{
name = bottom;
pos = (315,0);
},
{
name = top;
pos = (315,700);
}
);
layerId = m01;
shapes = (
{
closed = 1;
nodes = (
(215,0,l),
(215,278,l),
(348,278,ls),
(492,278,o),
(578,353,o),
(578,489,cs),
(578,625,o),
(496,700,o),
(350,700,cs),
(119,700,l),
(119,0,l)
);
},
{
closed = 1;
nodes = (
(215,614,l),
(341,614,ls),
(442,614,o),
(482,557,o),
(482,489,cs),
(482,405,o),
(440,364,o),
(340,364,cs),
(215,364,l)
);
}
);
width = 630;
},
{
anchors = (
{
name = bottom;
pos = (277,0);
},
{
name = top;
pos = (401,700);
}
);
layerId = "941849C8-D0D1-40F0-8537-D2B5B3A46943";
shapes = (
{
closed = 1;
nodes = (
(177,0,l),
(226,278,l),
(379,278,ls),
(530,278,o),
(631,360,o),
(631,510,cs),
(631,623,o),
(561,700,o),
(394,700,cs),
(205,700,l),
(81,0,l)
);
},
{
closed = 1;
nodes = (
(286,614,l),
(392,614,ls),
(490,614,o),
(533,571,o),
(533,505,cs),
(533,415,o),
(481,364,o),
(366,364,cs),
(241,364,l)
);
}
);
width = 630;
}
);
unicode = 80;
},
{
glyphname = Thorn;
lastChange = "2024-07-26 14:30:06 +0000";
layers = (
{
layerId = m01;
shapes = (
{
closed = 1;
nodes = (
(348,155,ls),
(492,155,o),
(578,230,o),
(578,366,cs),
(578,502,o),
(496,577,o),
(350,577,cs),
(158,577,l),
(158,491,l),
(341,491,ls),
(442,491,o),
(482,434,o),
(482,366,cs),
(482,282,o),
(440,241,o),
(340,241,cs),
(158,241,l),
(158,155,l)
);
},
{
closed = 1;
nodes = (
(215,0,l),
(215,700,l),
(119,700,l),
(119,0,l)
);
}
);
width = 630;
},
{
layerId = "941849C8-D0D1-40F0-8537-D2B5B3A46943";
shapes = (
{
closed = 1;
nodes = (
(359,155,ls),
(510,155,o),
(611,237,o),
(611,387,cs),
(611,500,o),
(541,577,o),
(374,577,cs),
(232,577,l),
(217,491,l),
(372,491,ls),
(470,491,o),
(513,448,o),
(513,382,cs),
(513,292,o),
(461,241,o),
(346,241,cs),
(162,241,l),
(147,155,l)
);
},
{
closed = 1;
nodes = (
(178,0,l),
(302,700,l),
(206,700,l),
(82,0,l)
);
}
);
width = 630;
}
);
unicode = 222;
},
{
glyphname = Q;
lastChange = "2024-07-26 14:31:11 +0000";
layers = (
{
anchors = (
{
name = bottom;
pos = (315,0);
},
{
name = top;
pos = (315,700);
}
);
layerId = m01;
shapes = (
{
ref = O;
},
{
ref = _Qtail;
}
);
width = 630;
},
{
associatedMasterId = m01;
layerId = "307951CE-9075-488A-912C-BAF4462E2362";
name = "20 juin 24 à 15:46";
shapes = (
{
closed = 1;
nodes = (
(528,-38,l),
(357,207,l),
(287,159,l),
(458,-86,l)
);
},
{
ref = O;
}
);
width = 630;
},
{
anchors = (
{
name = bottom;
pos = (621,0);
},
{
name = top;
pos = (621,700);
}
);
layerId = "941849C8-D0D1-40F0-8537-D2B5B3A46943";
shapes = (
{
ref = O;
},
{
pos = (38,0);
ref = _Qtail;
}
);
width = 630;
},
{
associatedMasterId = "941849C8-D0D1-40F0-8537-D2B5B3A46943";
layerId = "A6780FED-6456-4818-8F83-406728D83C67";
name = "20 juin 24 à 15:46";
shapes = (
{
closed = 1;
nodes = (
(528,-38,l),
(357,207,l),
(287,159,l),
(458,-86,l)
);
},
{
ref = O;
}
);
width = 630;
}
);
unicode = 81;
},
{
glyphname = R;
lastChange = "2024-07-26 13:25:08 +0000";
layers = (
{
anchors = (
{
name = bottom;
pos = (315,0);
},
{
name = top;
pos = (315,700);
}
);
layerId = m01;
shapes = (
{
closed = 1;
nodes = (
(194,0,l),
(194,299,l),
(301,300,ls),
(390,301,o),
(418,274,o),
(435,181,cs),
(455,74,ls),
(460,46,o),
(468,18,o),
(479,0,c),
(577,0,l),
(565,19,o),
(557,46,o),
(551,76,cs),
(525,202,ls),
(510,276,o),
(488,319,o),
(430,334,c),
(430,342,l),
(517,364,o),
(555,432,o),
(555,510,cs),
(555,631,o),
(473,700,o),
(327,700,cs),
(98,700,l),
(98,0,l)
);
},
{
closed = 1;
nodes = (
(194,614,l),
(316,614,ls),
(419,614,o),
(459,573,o),
(459,494,cs),
(459,425,o),
(417,380,o),
(315,380,cs),
(194,380,l)
);
}
);
width = 630;
},
{
associatedMasterId = m01;
layerId = "87A59120-CA50-4A7F-ACBA-A35BE71CDF43";
name = "27 juin 24 à 14:53";
shapes = (
{
closed = 1;
nodes = (
(194,0,l),
(194,299,l),
(301,300,ls),
(390,301,o),
(418,274,o),
(435,181,cs),
(455,74,ls),
(460,46,o),
(468,18,o),
(479,0,c),
(577,0,l),
(565,19,o),
(557,46,o),
(551,76,cs),
(525,202,ls),
(510,276,o),
(488,319,o),
(449,331,c),
(449,339,l),
(521,371,o),
(555,428,o),
(555,510,cs),
(555,631,o),
(473,700,o),
(327,700,cs),
(98,700,l),
(98,0,l)
);
},
{
closed = 1;
nodes = (
(194,614,l),
(316,614,ls),
(419,614,o),
(459,573,o),
(459,494,cs),
(459,425,o),
(417,380,o),
(315,380,cs),
(194,380,l)
);
}
);
width = 630;
},
{
anchors = (
{
name = bottom;
pos = (271,0);
},
{
name = top;
pos = (395,700);
}
);
layerId = "941849C8-D0D1-40F0-8537-D2B5B3A46943";
shapes = (
{
closed = 1;
nodes = (
(150,0,l),
(203,299,l),
(310,300,ls),
(399,301,o),
(423,274,o),
(423,181,cs),
(424,74,ls),
(424,46,o),
(427,18,o),
(435,0,c),
(533,0,l),
(525,19,o),
(521,46,o),
(521,76,cs),
(517,202,ls),
(515,276,o),
(501,319,o),
(445,334,c),
(447,342,l),
(553,364,o),
(605,432,o),
(605,524,cs),
(605,627,o),
(543,700,o),
(385,700,cs),
(178,700,l),
(54,0,l)
);
},
{
closed = 1;
nodes = (
(259,614,l),
(361,614,ls),
(468,614,o),
(505,574,o),
(505,506,cs),
(505,425,o),
(447,380,o),
(348,380,cs),
(217,380,l)
);
}
);
width = 630;
},
{
associatedMasterId = "941849C8-D0D1-40F0-8537-D2B5B3A46943";
layerId = "79C994EA-F0DD-4AB2-A856-C16C92A900EF";
name = "27 juin 24 à 14:53";
shapes = (
{
closed = 1;
nodes = (
(194,0,l),
(194,299,l),
(301,300,ls),
(390,301,o),
(418,274,o),
(435,181,cs),
(455,74,ls),
(460,46,o),
(468,18,o),
(479,0,c),
(577,0,l),
(565,19,o),
(557,46,o),
(551,76,cs),
(525,202,ls),
(510,276,o),
(488,319,o),
(449,331,c),
(449,339,l),
(521,371,o),
(555,428,o),
(555,510,cs),
(555,631,o),
(473,700,o),
(327,700,cs),
(98,700,l),
(98,0,l)
);
},
{
closed = 1;
nodes = (
(194,614,l),
(316,614,ls),
(419,614,o),
(459,573,o),
(459,494,cs),
(459,425,o),
(417,380,o),
(315,380,cs),
(194,380,l)
);
}
);
width = 630;
}
);
unicode = 82;
},
{
glyphname = S;
lastChange = "2024-07-26 14:47:52 +0000";
layers = (
{
anchors = (
{
name = bottom;
pos = (344,0);
},
{
name = top;
pos = (324,700);
}
);
layerId = m01;
shapes = (
{
closed = 1;
nodes = (
(478,-10,o),
(566,64,o),
(566,194,cs),
(566,297,o),
(504,355,o),
(404,386,cs),
(310,415,ls),
(235,438,o),
(204,473,o),
(204,526,cs),
(204,588,o),
(253,629,o),
(328,629,cs),
(414,629,o),
(463,581,o),
(463,479,c),
(421,496,l),
(604,496,l),
(561,483,l),
(561,617,o),
(492,710,o),
(328,710,cs),
(190,710,o),
(106,629,o),
(106,520,cs),
(106,412,o),
(172,356,o),
(277,325,cs),
(351,303,ls),
(443,276,o),
(468,237,o),
(468,181,cs),
(468,109,o),
(416,71,o),
(335,71,cs),
(231,71,o),
(185,133,o),
(185,232,c),
(221,211,l),
(43,211,l),
(87,225,l),
(87,82,o),
(171,-10,o),
(335,-10,cs)
);
}
);
width = 630;
},
{
anchors = (
{
name = bottom;
pos = (313,0);
},
{
name = top;
pos = (386,700);
}
);
layerId = "941849C8-D0D1-40F0-8537-D2B5B3A46943";
shapes = (
{
closed = 1;
nodes = (
(467,-10,o),
(562,77,o),
(562,200,cs),
(562,298,o),
(512,346,o),
(430,381,cs),
(341,419,ls),
(279,445,o),
(253,474,o),
(253,524,cs),
(253,588,o),
(303,629,o),
(381,629,cs),
(463,629,o),
(515,578,o),
(506,479,c),
(467,496,l),
(650,496,l),
(604,483,l),
(619,606,o),
(538,710,o),
(386,710,cs),
(235,710,o),
(152,627,o),
(152,510,cs),
(152,408,o),
(208,365,o),
(293,330,cs),
(363,301,ls),
(443,268,o),
(460,235,o),
(460,193,cs),
(460,114,o),
(403,71,o),
(325,71,cs),
(222,71,o),
(176,133,o),
(184,232,c),
(216,211,l),
(38,211,l),
(85,225,l),
(76,88,o),
(149,-10,o),
(319,-10,cs)
);
}
);
width = 630;
}
);
unicode = 83;
},
{
glyphname = Germandbls;
lastChange = "2024-07-26 14:30:06 +0000";
layers = (
{
layerId = m01;
shapes = (
{
closed = 1;
nodes = (
(190,0,l),
(190,614,l),
(426,614,l),
(307,399,l),
(307,318,l),
(347,318,ls),
(464,318,o),
(498,270,o),
(498,202,cs),
(498,134,o),
(464,86,o),
(347,86,cs),
(274,86,l),
(274,0,l),
(363,0,ls),
(499,0,o),
(594,70,o),
(594,202,cs),
(594,334,o),
(499,399,o),
(363,399,cs),
(339,399,l),
(377,363,l),
(528,614,l),
(528,700,l),
(190,700,ls),
(122,700,o),
(94,673,o),
(94,605,cs),
(94,0,l)
);
}
);
width = 630;
},
{
layerId = "941849C8-D0D1-40F0-8537-D2B5B3A46943";
shapes = (
{
closed = 1;
nodes = (
(153,0,l),
(262,614,l),
(498,614,l),
(341,399,l),
(326,318,l),
(366,318,ls),
(466,318,o),
(500,271,o),
(500,208,cs),
(500,125,o),
(445,86,o),
(337,86,cs),
(252,86,l),
(237,0,l),
(355,0,ls),
(512,0,o),
(597,79,o),
(597,214,cs),
(597,320,o),
(529,396,o),
(368,396,cs),
(353,396,l),
(404,363,l),
(600,614,l),
(615,700,l),
(277,700,ls),
(209,700,o),
(176,673,o),
(164,605,cs),
(57,0,l)
);
}
);
width = 630;
}
);
unicode = 7838;
},
{
glyphname = T;
lastChange = "2024-07-26 13:25:08 +0000";
layers = (
{
anchors = (
{
name = bottom;
pos = (315,0);
},
{
name = center;
pos = (315,350);
},
{
name = top;
pos = (315,700);
}
);
layerId = m01;
shapes = (
{
closed = 1;
nodes = (
(363,0,l),
(363,614,l),
(584,614,l),
(584,700,l),
(46,700,l),
(46,614,l),
(267,614,l),
(267,0,l)
);
}
);
width = 630;
},
{
anchors = (
{
name = bottom;
pos = (270,0);
},
{
name = center;
pos = (332,350);
},
{
name = top;
pos = (394,700);
}
);
layerId = "941849C8-D0D1-40F0-8537-D2B5B3A46943";
shapes = (
{
closed = 1;
nodes = (
(318,0,l),
(427,614,l),
(648,614,l),
(663,700,l),
(125,700,l),
(110,614,l),
(331,614,l),
(222,0,l)
);
}
);
width = 630;
}
);
unicode = 84;
},
{
glyphname = U;
lastChange = "2024-07-26 14:30:06 +0000";
layers = (
{
anchors = (
{
name = bottom;
pos = (315,0);
},
{
name = ogonek;
pos = (400,0);
},
{
name = top;
pos = (315,700);
},
{
name = topright;
pos = (610,700);
}
);
layerId = m01;
shapes = (
{
closed = 1;
nodes = (
(478,-10,o),
(548,77,o),
(548,228,cs),
(548,700,l),
(452,700,l),
(452,236,ls),
(452,133,o),
(409,76,o),
(315,76,cs),
(221,76,o),
(178,133,o),
(178,236,cs),
(178,700,l),
(82,700,l),
(82,228,ls),
(82,77,o),
(152,-10,o),
(315,-10,cs)
);
}
);
width = 630;
},
{
anchors = (
{
name = bottom;
pos = (272,0);
},
{
name = ogonek;
pos = (357,0);
},
{
name = top;
pos = (396,700);
},
{
name = topright;
pos = (691,700);
}
);
layerId = "941849C8-D0D1-40F0-8537-D2B5B3A46943";
shapes = (
{
closed = 1;
nodes = (
(451,-10,o),
(519,77,o),
(545,228,cs),
(629,700,l),
(533,700,l),
(451,236,ls),
(433,133,o),
(388,76,o),
(294,76,cs),
(200,76,o),
(159,133,o),
(177,236,cs),
(259,700,l),
(163,700,l),
(79,228,ls),
(53,77,o),
(125,-10,o),
(288,-10,cs)
);
}
);
width = 630;
}
);
unicode = 85;
},
{
glyphname = V;
lastChange = "2024-07-26 13:25:08 +0000";
layers = (
{
anchors = (
{
name = bottom;
pos = (315,0);
},
{
name = top;
pos = (315,700);
}
);
layerId = m01;
shapes = (
{
closed = 1;
nodes = (
(311,105,l),
(148,700,l),
(49,700,l),
(250,0,l),
(380,0,l),
(581,700,l),
(482,700,l),
(319,105,l)
);
}
);
width = 630;
},
{
anchors = (
{
name = bottom;
pos = (270,0);
},
{
name = top;
pos = (394,700);
}
);
layerId = "941849C8-D0D1-40F0-8537-D2B5B3A46943";
shapes = (
{
closed = 1;
nodes = (
(282,105,l),
(224,700,l),
(128,700,l),
(205,0,l),
(335,0,l),
(660,700,l),
(558,700,l),
(290,105,l)
);
}
);
width = 630;
}
);
unicode = 86;
},
{
glyphname = W;
lastChange = "2024-07-26 13:25:08 +0000";
layers = (
{
anchors = (
{
name = bottom;
pos = (315,0);
},
{
name = top;
pos = (315,700);
}
);
layerId = m01;
shapes = (
{
closed = 1;
nodes = (
(234,0,l),
(311,303,l),
(319,303,l),
(396,0,l),
(534,0,l),
(566,700,l),
(470,700,l),
(445,127,l),
(438,127,l),
(352,468,l),
(278,468,l),
(192,127,l),
(185,127,l),
(160,700,l),
(64,700,l),
(96,0,l)
);
}
);
width = 630;
},
{
anchors = (
{
name = bottom;
pos = (270,0);
},
{
name = top;
pos = (394,700);
}
);
layerId = "941849C8-D0D1-40F0-8537-D2B5B3A46943";
shapes = (
{
closed = 1;
nodes = (
(189,0,l),
(320,303,l),
(328,303,l),
(351,0,l),
(489,0,l),
(645,700,l),
(549,700,l),
(423,127,l),
(416,127,l),
(390,468,l),
(316,468,l),
(170,127,l),
(163,127,l),
(239,700,l),
(143,700,l),
(51,0,l)
);
}
);
width = 630;
}
);
unicode = 87;
},
{
glyphname = X;
lastChange = "2024-07-26 13:25:08 +0000";
layers = (
{
anchors = (
{
name = bottom;
pos = (315,0);
},
{
name = top;
pos = (315,700);
}
);
layerId = m01;
shapes = (
{
closed = 1;
nodes = (
(172,0,l),
(311,287,l),
(319,287,l),
(458,0,l),
(566,0,l),
(389,353,l),
(558,700,l),
(456,700,l),
(319,416,l),
(311,416,l),
(174,700,l),
(72,700,l),
(241,353,l),
(64,0,l)
);
}
);
width = 630;
},
{
anchors = (
{
name = bottom;
pos = (271,0);
},
{
name = top;
pos = (395,700);
}
);
layerId = "941849C8-D0D1-40F0-8537-D2B5B3A46943";
shapes = (
{
closed = 1;
nodes = (
(132,0,l),
(322,287,l),
(330,287,l),
(418,0,l),
(522,0,l),
(408,353,l),
(638,700,l),
(532,700,l),
(345,416,l),
(337,416,l),
(250,700,l),
(152,700,l),
(260,353,l),
(20,0,l)
);
}
);
width = 630;
}
);
unicode = 88;
},
{
glyphname = Y;
lastChange = "2024-07-26 13:25:08 +0000";
layers = (
{
anchors = (
{
name = bottom;
pos = (315,0);
},
{
name = top;
pos = (315,700);
},
{
name = topleft;
pos = (20,700);
}
);
layerId = m01;
shapes = (
{
closed = 1;
nodes = (
(267,268,l),
(267,0,l),
(363,0,l),
(363,268,l),
(565,700,l),
(465,700,l),
(319,381,l),
(311,381,l),
(165,700,l),
(65,700,l)
);
}
);
width = 630;
},
{
anchors = (
{
name = bottom;
pos = (270,0);
},
{
name = top;
pos = (394,700);
},
{
name = topleft;
pos = (99,700);
}
);
layerId = "941849C8-D0D1-40F0-8537-D2B5B3A46943";
shapes = (
{
closed = 1;
nodes = (
(270,268,l),
(222,0,l),
(318,0,l),
(366,268,l),
(644,700,l),
(540,700,l),
(337,381,l),
(329,381,l),
(240,700,l),
(144,700,l)
);
}
);
width = 630;
}
);
unicode = 89;
},
{
glyphname = Z;
lastChange = "2024-07-26 13:25:08 +0000";
layers = (
{
anchors = (
{
name = bottom;
pos = (315,0);
},
{
name = center;
pos = (315,350);
},
{
name = top;
pos = (315,700);
}
);
layerId = m01;
shapes = (
{
closed = 1;
nodes = (
(539,0,l),
(539,85,l),
(195,85,l),
(531,614,l),
(531,700,l),
(100,700,l),
(100,614,l),
(426,614,l),
(90,85,l),
(90,0,l)
);
}
);
width = 630;
},
{
anchors = (
{
name = bottom;
pos = (271,0);
},
{
name = center;
pos = (333,350);
},
{
name = top;
pos = (395,700);
}
);
layerId = "941849C8-D0D1-40F0-8537-D2B5B3A46943";
shapes = (
{
closed = 1;
nodes = (
(495,0,l),
(510,85,l),
(180,85,l),
(596,614,l),
(611,700,l),
(180,700,l),
(165,614,l),
(477,614,l),
(61,85,l),
(46,0,l)
);
}
);
width = 630;
}
);
unicode = 90;
},
{
glyphname = M.ss02;
lastChange = "2024-07-26 14:30:06 +0000";
layers = (
{
anchors = (
{
name = bottom;
pos = (315,0);
},
{
name = top;
pos = (315,700);
}
);
layerId = m01;
shapes = (
{
closed = 1;
nodes = (
(160,578,l),
(167,578,l),
(310,230,l),
(320,230,l),
(463,578,l),
(470,578,l),
(470,0,l),
(566,0,l),
(566,700,l),
(422,700,l),
(319,430,l),
(311,430,l),
(208,700,l),
(64,700,l),
(64,0,l),
(160,0,l)
);
}
);
width = 630;
},
{
associatedMasterId = m01;
layerId = "8392A0A2-DE5C-4EEF-B6AD-40C707089B8F";
name = "20 juin 24 à 12:37";
shapes = (
{
closed = 1;
nodes = (
(156,608,l),
(163,608,l),
(257,230,l),
(373,230,l),
(467,608,l),
(474,608,l),
(474,0,l),
(564,0,l),
(564,700,l),
(410,700,l),
(319,309,l),
(311,309,l),
(220,700,l),
(66,700,l),
(66,0,l),
(156,0,l)
);
}
);
width = 630;
},
{
anchors = (
{
name = bottom;
pos = (272,0);
},
{
name = top;
pos = (396,700);
}
);
layerId = "941849C8-D0D1-40F0-8537-D2B5B3A46943";
shapes = (
{
closed = 1;
nodes = (
(219,578,l),
(226,578,l),
(308,230,l),
(318,230,l),
(522,578,l),
(529,578,l),
(427,0,l),
(523,0,l),
(647,700,l),
(503,700,l),
(352,430,l),
(344,430,l),
(289,700,l),
(145,700,l),
(21,0,l),
(117,0,l)
);
}
);
width = 630;
},
{
associatedMasterId = "941849C8-D0D1-40F0-8537-D2B5B3A46943";
layerId = "B17832FD-A04B-4312-BA91-C162B25BD67F";
name = "20 juin 24 à 12:37";
shapes = (
{
closed = 1;
nodes = (
(156,608,l),
(163,608,l),
(257,230,l),
(373,230,l),
(467,608,l),
(474,608,l),
(474,0,l),
(564,0,l),
(564,700,l),
(410,700,l),
(319,309,l),
(311,309,l),
(220,700,l),
(66,700,l),
(66,0,l),
(156,0,l)
);
}
);
width = 630;
}
);
},
{
glyphname = W.ss02;
lastChange = "2024-07-26 13:25:08 +0000";
layers = (
{
anchors = (
{
name = bottom;
pos = (315,0);
},
{
name = top;
pos = (315,700);
}
);
layerId = m01;
shapes = (
{
closed = 1;
nodes = (
(206,0,l),
(311,279,l),
(319,279,l),
(428,0,l),
(534,0,l),
(566,700,l),
(470,700,l),
(451,183,l),
(444,183,l),
(320,495,l),
(310,495,l),
(188,182,l),
(181,182,l),
(160,700,l),
(64,700,l),
(96,0,l)
);
}
);
width = 630;
},
{
anchors = (
{
name = bottom;
pos = (270,0);
},
{
name = top;
pos = (394,700);
}
);
layerId = "941849C8-D0D1-40F0-8537-D2B5B3A46943";
shapes = (
{
closed = 1;
nodes = (
(161,0,l),
(315,279,l),
(323,279,l),
(383,0,l),
(489,0,l),
(645,700,l),
(549,700,l),
(439,183,l),
(432,183,l),
(363,495,l),
(353,495,l),
(175,182,l),
(168,182,l),
(239,700,l),
(143,700,l),
(51,0,l)
);
}
);
width = 630;
}
);
},
{
glyphname = a;
lastChange = "2024-07-26 14:30:06 +0000";
layers = (
{
anchors = (
{
name = bottom;
pos = (315,0);
},
{
name = ogonek;
pos = (587,0);
},
{
name = top;
pos = (315,500);
}
);
layerId = m01;
shapes = (
{
closed = 1;
nodes = (
(587,0,l),
(587,79,l),
(504,79,l),
(504,330,ls),
(504,456,o),
(423,510,o),
(315,510,cs),
(184,510,o),
(109,438,o),
(109,332,c),
(93,346,l),
(218,346,l),
(207,329,l),
(207,391,o),
(236,434,o),
(312,434,cs),
(374,434,o),
(410,399,o),
(410,327,cs),
(410,162,ls),
(410,92,o),
(355,64,o),
(295,64,cs),
(236,64,o),
(200,88,o),
(200,137,cs),
(200,195,o),
(247,222,o),
(376,222,cs),
(419,222,l),
(419,292,l),
(363,292,ls),
(190,292,o),
(103,242,o),
(103,133,cs),
(103,38,o),
(173,-6,o),
(271,-6,cs),
(337,-6,o),
(398,17,o),
(429,62,c),
(437,62,l),
(437,48,ls),
(437,14,o),
(455,0,o),
(488,0,cs)
);
}
);
width = 630;
},
{
anchors = (
{
name = bottom;
pos = (277,0);
},
{
name = ogonek;
pos = (549,0);
},
{
name = top;
pos = (365,500);
}
);
layerId = "941849C8-D0D1-40F0-8537-D2B5B3A46943";
shapes = (
{
closed = 1;
nodes = (
(549,0,l),
(562,79,l),
(479,79,l),
(524,330,ls),
(546,456,o),
(461,510,o),
(353,510,cs),
(222,510,o),
(146,438,o),
(129,332,c),
(116,346,l),
(241,346,l),
(227,329,l),
(236,391,o),
(267,434,o),
(343,434,cs),
(405,434,o),
(441,398,o),
(429,327,cs),
(400,162,ls),
(388,92,o),
(328,64,o),
(268,64,cs),
(216,64,o),
(184,83,o),
(184,127,cs),
(184,207,o),
(282,222,o),
(377,222,cs),
(420,222,l),
(432,292,l),
(376,292,ls),
(221,292,o),
(85,253,o),
(85,114,cs),
(85,31,o),
(146,-6,o),
(233,-6,cs),
(299,-6,o),
(363,17,o),
(401,62,c),
(409,62,l),
(407,48,ls),
(401,14,o),
(417,0,o),
(450,0,cs)
);
}
);
width = 630;
},
{
anchors = (
{
name = bottom;
pos = (271,0);
},
{
name = ogonek;
pos = (543,0);
},
{
name = top;
pos = (359,500);
}
);
associatedMasterId = "941849C8-D0D1-40F0-8537-D2B5B3A46943";
layerId = "F7457211-9114-4FA0-B969-D218DC0F1DC3";
name = "26 juil. 24 à 15:43";
shapes = (
{
closed = 1;
nodes = (
(543,0,l),
(556,79,l),
(473,79,l),
(518,330,ls),
(540,456,o),
(455,510,o),
(347,510,cs),
(216,510,o),
(140,438,o),
(123,332,c),
(110,346,l),
(235,346,l),
(221,329,l),
(230,391,o),
(261,434,o),
(337,434,cs),
(399,434,o),
(435,398,o),
(423,327,cs),
(394,162,ls),
(382,92,o),
(322,64,o),
(262,64,cs),
(210,64,o),
(178,83,o),
(178,127,cs),
(178,207,o),
(276,222,o),
(371,222,cs),
(414,222,l),
(426,292,l),
(370,292,ls),
(215,292,o),
(79,253,o),
(79,114,cs),
(79,31,o),
(140,-6,o),
(227,-6,cs),
(293,-6,o),
(357,17,o),
(395,62,c),
(403,62,l),
(401,48,ls),
(395,14,o),
(411,0,o),
(444,0,cs)
);
}
);
width = 630;
}
);
unicode = 97;
},
{
glyphname = ae;
lastChange = "2024-07-26 14:30:06 +0000";
layers = (
{
layerId = m01;
shapes = (
{
closed = 1;
nodes = (
(259,-6,o),
(299,23,o),
(321,66,c),
(329,66,l),
(346,24,o),
(394,-5,o),
(451,-5,cs),
(524,-5,o),
(590,38,o),
(607,145,c),
(521,145,l),
(514,100,o),
(492,70,o),
(454,70,cs),
(406,70,o),
(378,111,o),
(378,231,cs),
(378,273,ls),
(378,397,o),
(408,435,o),
(455,435,cs),
(494,435,o),
(522,401,o),
(525,291,c),
(360,291,l),
(360,225,l),
(609,225,l),
(610,241,o),
(611,250,o),
(611,266,cs),
(611,426,o),
(548,510,o),
(459,510,cs),
(417,510,o),
(380,493,o),
(353,463,c),
(345,463,l),
(319,495,o),
(281,510,o),
(222,510,cs),
(122,510,o),
(59,448,o),
(53,350,c),
(141,350,l),
(146,400,o),
(171,430,o),
(219,430,cs),
(268,430,o),
(290,402,o),
(290,340,cs),
(290,150,ls),
(290,90,o),
(252,64,o),
(207,64,cs),
(165,64,o),
(135,88,o),
(135,132,cs),
(135,193,o),
(192,225,o),
(278,225,cs),
(305,225,l),
(305,291,l),
(267,291,ls),
(141,291,o),
(45,235,o),
(45,131,cs),
(45,40,o),
(107,-6,o),
(188,-6,cs)
);
}
);
width = 630;
},
{
layerId = "941849C8-D0D1-40F0-8537-D2B5B3A46943";
shapes = (
{
closed = 1;
nodes = (
(218,-10,o),
(263,23,o),
(293,66,c),
(301,66,l),
(310,24,o),
(353,-9,o),
(410,-9,cs),
(483,-9,o),
(557,38,o),
(593,145,c),
(507,145,l),
(492,100,o),
(464,70,o),
(426,70,cs),
(355,70,o),
(368,174,o),
(379,231,cs),
(386,273,ls),
(408,397,o),
(445,435,o),
(492,435,cs),
(555,435,o),
(544,342,o),
(536,291,c),
(371,291,l),
(360,225,l),
(609,225,l),
(619,259,o),
(626,313,o),
(626,350,cs),
(626,455,o),
(581,510,o),
(509,510,cs),
(467,510,o),
(427,493,o),
(395,463,c),
(387,463,l),
(356,499,o),
(311,510,o),
(262,510,cs),
(162,510,o),
(98,448,o),
(75,350,c),
(163,350,l),
(177,400,o),
(203,430,o),
(251,430,cs),
(307,430,o),
(318,383,o),
(310,340,cs),
(276,150,ls),
(266,90,o),
(223,64,o),
(178,64,cs),
(141,64,o),
(117,88,o),
(117,123,cs),
(117,193,o),
(190,225,o),
(278,225,cs),
(305,225,l),
(316,291,l),
(278,291,ls),
(149,291,o),
(25,239,o),
(25,109,cs),
(25,33,o),
(76,-10,o),
(155,-10,cs)
);
}
);
width = 630;
}
);
unicode = 230;
},
{
glyphname = b;
lastChange = "2024-07-26 14:30:06 +0000";
layers = (
{
anchors = (
{
name = bottom;
pos = (315,0);
},
{
name = center;
pos = (158,560);
},
{
name = top;
pos = (315,500);
}
);
layerId = m01;
shapes = (
{
closed = 1;
nodes = (
(467,-10,o),
(562,78,o),
(562,250,cs),
(562,422,o),
(465,510,o),
(339,510,cs),
(272,510,o),
(215,484,o),
(184,434,c),
(178,434,l),
(178,700,l),
(84,700,l),
(84,0,l),
(172,0,l),
(172,69,l),
(180,69,l),
(208,25,o),
(265,-10,o),
(340,-10,cs)
);
},
{
closed = 1;
nodes = (
(233,70,o),
(178,129,o),
(178,250,cs),
(178,367,o),
(233,430,o),
(322,430,cs),
(411,430,o),
(466,367,o),
(466,250,cs),
(466,129,o),
(411,70,o),
(322,70,cs)
);
}
);
width = 630;
},
{
anchors = (
{
name = bottom;
pos = (275,0);
},
{
name = center;
pos = (217,560);
},
{
name = top;
pos = (363,500);
}
);
layerId = "941849C8-D0D1-40F0-8537-D2B5B3A46943";
shapes = (
{
closed = 1;
nodes = (
(493,-10,o),
(573,146,o),
(573,309,cs),
(573,442,o),
(491,510,o),
(389,510,cs),
(321,510,o),
(261,484,o),
(221,434,c),
(215,434,l),
(262,700,l),
(168,700,l),
(44,0,l),
(132,0,l),
(144,69,l),
(152,69,l),
(173,27,o),
(233,-10,o),
(308,-10,cs)
);
},
{
closed = 1;
nodes = (
(223,70,o),
(177,118,o),
(177,203,cs),
(177,313,o),
(234,430,o),
(349,430,cs),
(428,430,o),
(475,382,o),
(475,297,cs),
(475,187,o),
(417,70,o),
(303,70,cs)
);
}
);
width = 630;
}
);
unicode = 98;
},
{
glyphname = c;
lastChange = "2024-07-26 14:30:06 +0000";
layers = (
{
anchors = (
{
name = bottom;
pos = (315,0);
},
{
name = top;
pos = (315,500);
}
);
layerId = m01;
shapes = (
{
closed = 1;
nodes = (
(408,172,l),
(457,205,l),
(447,121,o),
(400,70,o),
(323,70,cs),
(232,70,o),
(183,137,o),
(183,250,cs),
(183,363,o),
(230,430,o),
(321,430,cs),
(404,430,o),
(449,366,o),
(449,288,c),
(401,316,l),
(585,316,l),
(543,294,l),
(543,429,o),
(449,510,o),
(321,510,cs),
(179,510,o),
(85,414,o),
(85,250,cs),
(85,86,o),
(179,-10,o),
(323,-10,cs),
(461,-10,o),
(542,74,o),
(551,199,c),
(592,172,l)
);
}
);
width = 630;
},
{
anchors = (
{
name = bottom;
pos = (275,0);
},
{
name = top;
pos = (363,500);
}
);
layerId = "941849C8-D0D1-40F0-8537-D2B5B3A46943";
shapes = (
{
closed = 1;
nodes = (
(403,171,l),
(453,198,l),
(429,117,o),
(377,70,o),
(306,70,cs),
(225,70,o),
(184,119,o),
(184,201,cs),
(184,288,o),
(222,430,o),
(349,430,cs),
(440,430,o),
(466,363,o),
(461,277,c),
(420,315,l),
(588,315,l),
(554,282,l),
(577,395,o),
(509,510,o),
(357,510,cs),
(177,510,o),
(85,363,o),
(85,198,cs),
(85,67,o),
(166,-10,o),
(299,-10,cs),
(426,-10,o),
(514,66,o),
(543,183,c),
(559,171,l)
);
}
);
width = 630;
}
);
unicode = 99;
},
{
glyphname = d;
lastChange = "2024-07-26 14:30:06 +0000";
layers = (
{
anchors = (
{
name = bottom;
pos = (315,0);
},
{
name = center;
pos = (473,590);
},
{
name = top;
pos = (315,500);
},
{
name = topright;
pos = (610,700);
}
);
layerId = m01;
shapes = (
{
closed = 1;
nodes = (
(365,-10,o),
(422,25,o),
(450,69,c),
(458,69,l),
(458,0,l),
(546,0,l),
(546,700,l),
(452,700,l),
(452,434,l),
(446,434,l),
(415,484,o),
(358,510,o),
(291,510,cs),
(165,510,o),
(68,422,o),
(68,250,cs),
(68,78,o),
(163,-10,o),
(290,-10,cs)
);
},
{
closed = 1;
nodes = (
(219,70,o),
(164,129,o),
(164,250,cs),
(164,367,o),
(219,430,o),
(308,430,cs),
(397,430,o),
(452,367,o),
(452,250,cs),
(452,129,o),
(397,70,o),
(308,70,cs)
);
}
);
width = 630;
},
{
anchors = (
{
name = bottom;
pos = (280,0);
},
{
name = center;
pos = (542,590);
},
{
name = top;
pos = (368,500);
},
{
name = topright;
pos = (699,700);
}
);
layerId = "941849C8-D0D1-40F0-8537-D2B5B3A46943";
shapes = (
{
closed = 1;
nodes = (
(337,-10,o),
(392,23,o),
(427,69,c),
(435,69,l),
(423,0,l),
(511,0,l),
(635,700,l),
(541,700,l),
(494,434,l),
(488,434,l),
(465,475,o),
(406,510,o),
(336,510,cs),
(174,510,o),
(71,379,o),
(71,201,cs),
(71,71,o),
(143,-10,o),
(261,-10,cs)
);
},
{
closed = 1;
nodes = (
(214,70,o),
(168,118,o),
(168,203,cs),
(168,313,o),
(225,430,o),
(340,430,cs),
(419,430,o),
(466,382,o),
(466,297,cs),
(466,187,o),
(408,70,o),
(294,70,cs)
);
}
);
width = 630;
}
);
unicode = 100;
},
{
glyphname = eth;
lastChange = "2024-07-26 13:25:08 +0000";
layers = (
{
layerId = m01;
shapes = (
{
closed = 1;
nodes = (
(451,-10,o),
(555,86,o),
(555,265,cs),
(555,470,o),
(431,598,o),
(310,700,c),
(183,700,l),
(286,622,o),
(362,544,o),
(414,453,c),
(402,448,l),
(374,481,o),
(335,500,o),
(273,500,cs),
(164,500,o),
(75,404,o),
(75,245,cs),
(75,86,o),
(171,-10,o),
(311,-10,cs)
);
},
{
closed = 1;
nodes = (
(226,70,o),
(171,134,o),
(171,248,cs),
(171,362,o),
(226,426,o),
(315,426,cs),
(404,426,o),
(459,362,o),
(459,248,cs),
(459,134,o),
(404,70,o),
(315,70,cs)
);
},
{
closed = 1;
nodes = (
(483,615,l),
(483,675,l),
(191,600,l),
(191,540,l)
);
}
);
width = 630;
},
{
layerId = "941849C8-D0D1-40F0-8537-D2B5B3A46943";
shapes = (
{
closed = 1;
nodes = (
(405,-10,o),
(526,86,o),
(558,265,cs),
(594,470,o),
(493,598,o),
(390,700,c),
(263,700,l),
(352,622,o),
(414,544,o),
(450,453,c),
(437,448,l),
(415,481,o),
(379,500,o),
(317,500,cs),
(208,500,o),
(102,404,o),
(74,245,cs),
(46,86,o),
(125,-10,o),
(265,-10,cs)
);
},
{
closed = 1;
nodes = (
(195,70,o),
(151,134,o),
(171,248,cs),
(191,362,o),
(257,426,o),
(346,426,cs),
(435,426,o),
(479,362,o),
(459,248,cs),
(439,134,o),
(373,70,o),
(284,70,cs)
);
},
{
closed = 1;
nodes = (
(548,615,l),
(558,675,l),
(253,600,l),
(242,540,l)
);
}
);
width = 630;
}
);
unicode = 240;
},
{
glyphname = e;
lastChange = "2024-07-26 14:32:58 +0000";
layers = (
{
anchors = (
{
name = bottom;
pos = (315,0);
},
{
name = ogonek;
pos = (394,0);
},
{
name = top;
pos = (315,500);
}
);
layerId = m01;
shapes = (
{
closed = 1;
nodes = (
(441,-10,o),
(530,55,o),
(547,172,c),
(585,145,l),
(405,145,l),
(453,176,l),
(448,115,o),
(402,69,o),
(320,69,cs),
(232,69,o),
(183,130,o),
(183,231,cs),
(183,273,ls),
(183,368,o),
(228,433,o),
(318,433,cs),
(401,433,o),
(453,368,o),
(453,273,cs),
(453,258,o),
(453,244,o),
(453,229,c),
(494,291,l),
(159,291,l),
(159,216,l),
(545,216,l),
(547,232,o),
(548,250,o),
(548,266,cs),
(548,410,o),
(458,510,o),
(323,510,cs),
(179,510,o),
(88,410,o),
(88,250,cs),
(88,85,o),
(185,-10,o),
(320,-10,cs)
);
}
);
width = 630;
},
{
anchors = (
{
name = bottom;
pos = (276,0);
},
{
name = ogonek;
pos = (367,0);
},
{
name = top;
pos = (364,500);
}
);
layerId = "941849C8-D0D1-40F0-8537-D2B5B3A46943";
shapes = (
{
closed = 1;
nodes = (
(410,-9,o),
(502,52,o),
(538,165,c),
(571,136,l),
(392,143,l),
(445,172,l),
(430,113,o),
(379,70,o),
(303,70,cs),
(199,70,o),
(169,145,o),
(186,236,cs),
(194,278,ls),
(210,371,o),
(263,434,o),
(350,434,cs),
(425,434,o),
(465,385,o),
(465,310,cs),
(465,294,o),
(462,273,o),
(454,259,c),
(507,287,l),
(160,287,l),
(160,209,l),
(544,209,l),
(550,229,o),
(560,272,o),
(560,316,cs),
(560,433,o),
(481,510,o),
(359,510,cs),
(182,510,o),
(89,360,o),
(89,204,cs),
(89,64,o),
(172,-9,o),
(295,-9,cs)
);
}
);
width = 630;
}
);
unicode = 101;
},
{
glyphname = schwa;
lastChange = "2024-07-26 14:30:06 +0000";
layers = (
{
layerId = m01;
shapes = (
{
closed = 1;
nodes = (
(451,-10,o),
(545,90,o),
(545,250,cs),
(545,415,o),
(449,510,o),
(313,510,cs),
(185,510,o),
(91,428,o),
(86,328,c),
(48,355,l),
(231,355,l),
(183,324,l),
(189,383,o),
(233,433,o),
(313,433,cs),
(401,433,o),
(452,370,o),
(452,269,cs),
(452,227,ls),
(452,125,o),
(402,67,o),
(312,67,cs),
(229,67,o),
(178,125,o),
(178,227,cs),
(178,242,o),
(178,256,o),
(178,271,c),
(137,209,l),
(476,209,l),
(476,282,l),
(88,282,l),
(86,266,o),
(85,250,o),
(85,234,cs),
(85,90,o),
(170,-10,o),
(307,-10,cs)
);
}
);
width = 630;
},
{
layerId = "941849C8-D0D1-40F0-8537-D2B5B3A46943";
shapes = (
{
closed = 1;
nodes = (
(460,-9,o),
(553,141,o),
(553,297,cs),
(553,437,o),
(470,510,o),
(347,510,cs),
(232,510,o),
(140,449,o),
(104,336,c),
(71,365,l),
(250,358,l),
(197,329,l),
(212,388,o),
(263,431,o),
(339,431,cs),
(443,431,o),
(473,356,o),
(456,265,cs),
(448,223,ls),
(432,130,o),
(379,67,o),
(292,67,cs),
(217,67,o),
(177,116,o),
(177,191,cs),
(177,207,o),
(180,228,o),
(188,242,c),
(135,214,l),
(482,214,l),
(482,292,l),
(98,292,l),
(92,272,o),
(82,229,o),
(82,185,cs),
(82,68,o),
(161,-9,o),
(283,-9,cs)
);
}
);
width = 630;
}
);
unicode = 601;
},
{
glyphname = f;
lastChange = "2024-08-13 10:36:50 +0000";
layers = (
{
anchors = (
{
name = bottom;
pos = (315,0);
},
{
name = top;
pos = (315,700);
}
);
layerId = m01;
shapes = (
{
closed = 1;
nodes = (
(541,0,l),
(541,80,l),
(351,80,l),
(351,420,l),
(561,420,l),
(561,500,l),
(351,500,l),
(351,620,l),
(573,620,l),
(573,700,l),
(353,700,ls),
(285,700,o),
(257,673,o),
(257,605,cs),
(257,500,l),
(81,500,l),
(81,420,l),
(257,420,l),
(257,80,l),
(100,80,l),
(100,0,l)
);
}
);
width = 630;
},
{
associatedMasterId = m01;
layerId = "B1EB748A-FBF6-4A44-86F0-CE1D5A1EB9EE";
name = "20 juin 24 à 14:35";
shapes = (
{
closed = 1;
nodes = (
(334,568,ls),
(334,608,o),
(347,620,o),
(387,620,cs),
(556,620,l),
(556,700,l),
(366,700,ls),
(279,700,o),
(240,662,o),
(240,578,cs),
(240,0,l),
(334,0,l)
);
},
{
closed = 1;
nodes = (
(84,420,l),
(556,420,l),
(556,500,l),
(84,500,l)
);
}
);
width = 630;
},
{
anchors = (
{
name = bottom;
pos = (272,0);
},
{
name = top;
pos = (396,700);
}
);
layerId = "941849C8-D0D1-40F0-8537-D2B5B3A46943";
shapes = (
{
closed = 1;
nodes = (
(498,0,l),
(512,80,l),
(322,80,l),
(382,420,l),
(592,420,l),
(606,500,l),
(397,500,l),
(418,620,l),
(640,620,l),
(654,700,l),
(434,700,ls),
(366,700,o),
(333,673,o),
(321,605,cs),
(302,500,l),
(126,500,l),
(112,420,l),
(288,420,l),
(228,80,l),
(71,80,l),
(57,0,l)
);
}
);
width = 630;
},
{
associatedMasterId = "941849C8-D0D1-40F0-8537-D2B5B3A46943";
layerId = "D0B9850C-674C-4A2F-8C9C-9F11D5184C04";
name = "20 juin 24 à 14:35";
shapes = (
{
closed = 1;
nodes = (
(334,568,ls),
(334,608,o),
(347,620,o),
(387,620,cs),
(556,620,l),
(556,700,l),
(366,700,ls),
(279,700,o),
(240,662,o),
(240,578,cs),
(240,0,l),
(334,0,l)
);
},
{
closed = 1;
nodes = (
(84,420,l),
(556,420,l),
(556,500,l),
(84,500,l)
);
}
);
width = 630;
}
);
unicode = 102;
},
{
glyphname = g;
lastChange = "2024-07-26 14:33:31 +0000";
layers = (
{
anchors = (
{
name = bottom;
pos = (315,-200);
},
{
name = top;
pos = (315,500);
}
);
layerId = m01;
shapes = (
{
closed = 1;
nodes = (
(375,-200,ls),
(490,-200,o),
(547,-150,o),
(547,-58,cs),
(547,33,o),
(490,80,o),
(375,80,cs),
(229,80,ls),
(185,80,o),
(168,96,o),
(168,123,cs),
(168,150,o),
(191,166,o),
(229,166,cs),
(313,166,l),
(173,235,l),
(173,200,l),
(112,184,o),
(81,153,o),
(81,102,cs),
(81,37,o),
(131,-6,o),
(222,-6,cs),
(383,-6,ls),
(425,-6,o),
(453,-27,o),
(453,-64,cs),
(453,-102,o),
(425,-121,o),
(383,-121,cs),
(216,-121,ls),
(174,-121,o),
(146,-102,o),
(146,-64,cs),
(146,-27,o),
(174,-6,o),
(216,-6,c),
(131,42,l),
(131,7,l),
(84,-8,o),
(57,-46,o),
(57,-92,cs),
(57,-158,o),
(99,-200,o),
(213,-200,cs)
);
},
{
closed = 1;
nodes = (
(429,166,o),
(514,228,o),
(514,344,cs),
(514,410,l),
(590,410,l),
(590,500,l),
(542,500,ls),
(496,500,o),
(479,473,o),
(479,442,c),
(471,442,l),
(441,485,o),
(379,510,o),
(311,510,cs),
(195,510,o),
(112,452,o),
(112,338,cs),
(112,230,o),
(197,166,o),
(313,166,cs)
);
},
{
closed = 1;
nodes = (
(247,236,o),
(202,274,o),
(202,338,cs),
(202,402,o),
(247,439,o),
(313,439,cs),
(379,439,o),
(424,402,o),
(424,338,cs),
(424,274,o),
(379,236,o),
(313,236,cs)
);
}
);
width = 630;
},
{
associatedMasterId = m01;
layerId = "868EE22C-9B12-4977-B719-8174777A694F";
name = "27 juin 24 à 14:17";
shapes = (
{
closed = 1;
nodes = (
(439,150,o),
(524,218,o),
(524,330,cs),
(524,449,o),
(439,510,o),
(329,510,cs),
(219,510,o),
(134,449,o),
(134,330,cs),
(134,218,o),
(219,150,o),
(329,150,cs)
);
},
{
closed = 1;
nodes = (
(268,220,o),
(223,256,o),
(223,330,cs),
(223,404,o),
(268,440,o),
(329,440,cs),
(390,440,o),
(435,404,o),
(435,330,cs),
(435,256,o),
(390,220,o),
(329,220,cs)
);
},
{
closed = 1;
nodes = (
(396,-210,ls),
(511,-210,o),
(568,-161,o),
(568,-72,cs),
(568,18,o),
(511,66,o),
(396,66,cs),
(258,66,ls),
(214,66,o),
(197,86,o),
(197,112,cs),
(197,139,o),
(220,150,o),
(258,150,cs),
(338,150,l),
(199,218,l),
(199,180,l),
(138,165,o),
(110,136,o),
(110,86,cs),
(110,22,o),
(160,-21,o),
(251,-21,cs),
(394,-21,ls),
(446,-21,o),
(474,-39,o),
(474,-77,cs),
(474,-115,o),
(446,-133,o),
(394,-133,cs),
(246,-133,ls),
(194,-133,o),
(166,-115,o),
(166,-77,cs),
(166,-39,o),
(194,-21,o),
(246,-21,c),
(153,30,l),
(153,-8,l),
(105,-26,o),
(78,-52,o),
(78,-101,cs),
(78,-156,o),
(113,-210,o),
(233,-210,cs)
);
},
{
closed = 1;
nodes = (
(524,410,l),
(600,410,l),
(600,500,l),
(548,500,ls),
(497,500,o),
(478,474,o),
(478,425,cs),
(478,330,l),
(524,330,l)
);
}
);
width = 630;
},
{
anchors = (
{
name = bottom;
pos = (236,-200);
},
{
name = top;
pos = (359,500);
}
);
layerId = "941849C8-D0D1-40F0-8537-D2B5B3A46943";
shapes = (
{
closed = 1;
nodes = (
(300,-200,ls),
(425,-200,o),
(500,-145,o),
(500,-46,cs),
(500,34,o),
(450,80,o),
(349,80,cs),
(203,80,ls),
(165,80,o),
(149,96,o),
(149,118,cs),
(149,150,o),
(176,166,o),
(218,166,cs),
(302,166,l),
(174,235,l),
(168,200,l),
(98,183,o),
(57,145,o),
(57,88,cs),
(57,29,o),
(99,-6,o),
(181,-6,cs),
(332,-6,ls),
(380,-6,o),
(403,-23,o),
(403,-56,cs),
(403,-96,o),
(370,-121,o),
(312,-121,cs),
(165,-121,ls),
(118,-121,o),
(94,-104,o),
(94,-70,cs),
(94,-30,o),
(129,-6,o),
(185,-6,c),
(98,42,l),
(92,7,l),
(35,-10,o),
(-1,-48,o),
(-1,-101,cs),
(-1,-163,o),
(45,-200,o),
(138,-200,cs)
);
},
{
closed = 1;
nodes = (
(418,166,o),
(521,227,o),
(536,353,cs),
(543,410,l),
(622,410,l),
(638,500,l),
(590,500,ls),
(544,500,o),
(522,473,o),
(517,442,c),
(509,442,l),
(485,484,o),
(427,510,o),
(359,510,cs),
(225,510,o),
(129,427,o),
(129,305,cs),
(129,217,o),
(198,166,o),
(302,166,cs)
);
},
{
closed = 1;
nodes = (
(257,236,o),
(220,265,o),
(220,316,cs),
(220,380,o),
(266,439,o),
(350,439,cs),
(409,439,o),
(446,410,o),
(446,359,cs),
(446,299,o),
(401,236,o),
(315,236,cs)
);
}
);
width = 630;
},
{
associatedMasterId = "941849C8-D0D1-40F0-8537-D2B5B3A46943";
layerId = "A8CEB5D2-E9CA-4F97-ABEB-622FA467DF52";
name = "27 juin 24 à 14:17";
shapes = (
{
closed = 1;
nodes = (
(439,150,o),
(524,218,o),
(524,330,cs),
(524,449,o),
(439,510,o),
(329,510,cs),
(219,510,o),
(134,449,o),
(134,330,cs),
(134,218,o),
(219,150,o),
(329,150,cs)
);
},
{
closed = 1;
nodes = (
(268,220,o),
(223,256,o),
(223,330,cs),
(223,404,o),
(268,440,o),
(329,440,cs),
(390,440,o),
(435,404,o),
(435,330,cs),
(435,256,o),
(390,220,o),
(329,220,cs)
);
},
{
closed = 1;
nodes = (
(396,-210,ls),
(511,-210,o),
(568,-161,o),
(568,-72,cs),
(568,18,o),
(511,66,o),
(396,66,cs),
(258,66,ls),
(214,66,o),
(197,86,o),
(197,112,cs),
(197,139,o),
(220,150,o),
(258,150,cs),
(338,150,l),
(199,218,l),
(199,180,l),
(138,165,o),
(110,136,o),
(110,86,cs),
(110,22,o),
(160,-21,o),
(251,-21,cs),
(394,-21,ls),
(446,-21,o),
(474,-39,o),
(474,-77,cs),
(474,-115,o),
(446,-133,o),
(394,-133,cs),
(246,-133,ls),
(194,-133,o),
(166,-115,o),
(166,-77,cs),
(166,-39,o),
(194,-21,o),
(246,-21,c),
(153,30,l),
(153,-8,l),
(105,-26,o),
(78,-52,o),
(78,-101,cs),
(78,-156,o),
(113,-210,o),
(233,-210,cs)
);
},
{
closed = 1;
nodes = (
(524,410,l),
(600,410,l),
(600,500,l),
(548,500,ls),
(497,500,o),
(478,474,o),
(478,425,cs),
(478,330,l),
(524,330,l)
);
}
);
width = 630;
},
{
anchors = (
{
name = bottom;
pos = (237,-200);
},
{
name = top;
pos = (361,500);
}
);
associatedMasterId = "941849C8-D0D1-40F0-8537-D2B5B3A46943";
layerId = "08B875F4-75E7-4E37-A751-1D883D5845CD";
name = "26 juil. 24 à 15:31";
shapes = (
{
closed = 1;
nodes = (
(416,166,o),
(512,228,o),
(532,344,cs),
(544,410,l),
(620,410,l),
(636,500,l),
(588,500,ls),
(542,500,o),
(520,473,o),
(515,442,c),
(507,442,l),
(484,485,o),
(427,510,o),
(359,510,cs),
(243,510,o),
(149,452,o),
(129,338,cs),
(110,230,o),
(184,166,o),
(300,166,cs)
);
},
{
closed = 1;
nodes = (
(246,236,o),
(208,274,o),
(219,338,cs),
(231,402,o),
(282,439,o),
(348,439,cs),
(414,439,o),
(453,402,o),
(441,338,cs),
(430,274,o),
(378,236,o),
(312,236,cs)
);
},
{
closed = 1;
nodes = (
(297,-200,ls),
(412,-200,o),
(478,-150,o),
(494,-58,cs),
(510,33,o),
(462,80,o),
(347,80,cs),
(201,80,ls),
(157,80,o),
(143,96,o),
(147,123,cs),
(152,150,o),
(178,166,o),
(216,166,cs),
(300,166,l),
(172,235,l),
(166,200,l),
(102,184,o),
(66,153,o),
(57,102,cs),
(45,37,o),
(88,-6,o),
(179,-6,cs),
(340,-6,ls),
(382,-6,o),
(406,-27,o),
(399,-64,cs),
(393,-102,o),
(361,-121,o),
(319,-121,cs),
(152,-121,ls),
(110,-121,o),
(86,-102,o),
(92,-64,cs),
(99,-27,o),
(131,-6,o),
(173,-6,c),
(96,42,l),
(90,7,l),
(40,-8,o),
(7,-46,o),
(-2,-92,cs),
(-13,-158,o),
(21,-200,o),
(135,-200,cs)
);
}
);
width = 630;
}
);
unicode = 103;
},
{
glyphname = h;
lastChange = "2024-07-26 14:30:06 +0000";
layers = (
{
anchors = (
{
name = bottom;
pos = (315,0);
},
{
name = center;
pos = (158,585);
},
{
name = top;
pos = (315,700);
}
);
layerId = m01;
shapes = (
{
closed = 1;
nodes = (
(199,0,l),
(199,270,ls),
(199,382,o),
(252,430,o),
(325,430,cs),
(395,430,o),
(438,394,o),
(438,284,cs),
(438,0,l),
(532,0,l),
(532,298,ls),
(532,441,o),
(468,510,o),
(359,510,cs),
(284,510,o),
(235,480,o),
(207,433,c),
(199,433,l),
(199,700,l),
(105,700,l),
(105,0,l)
);
}
);
width = 630;
},
{
anchors = (
{
name = bottom;
pos = (272,0);
},
{
name = center;
pos = (218,585);
},
{
name = top;
pos = (396,700);
}
);
layerId = "941849C8-D0D1-40F0-8537-D2B5B3A46943";
shapes = (
{
closed = 1;
nodes = (
(156,0,l),
(204,270,ls),
(224,382,o),
(285,430,o),
(358,430,cs),
(428,430,o),
(465,394,o),
(445,284,cs),
(395,0,l),
(489,0,l),
(542,298,ls),
(567,441,o),
(515,510,o),
(406,510,cs),
(331,510,o),
(277,480,o),
(241,433,c),
(233,433,l),
(280,700,l),
(186,700,l),
(62,0,l)
);
}
);
width = 630;
}
);
unicode = 104;
},
{
glyphname = idotless;
lastChange = "2024-07-26 13:25:08 +0000";
layers = (
{
anchors = (
{
name = bottom;
pos = (315,0);
},
{
name = ogonek;
pos = (524,0);
},
{
name = top;
pos = (307,500);
}
);
layerId = m01;
shapes = (
{
closed = 1;
nodes = (
(524,0,l),
(524,80,l),
(366,80,l),
(366,500,l),
(134,500,l),
(134,420,l),
(272,420,l),
(272,80,l),
(114,80,l),
(114,0,l)
);
}
);
width = 630;
},
{
anchors = (
{
name = bottom;
pos = (271,0);
},
{
name = ogonek;
pos = (480,0);
},
{
name = top;
pos = (351,500);
}
);
layerId = "941849C8-D0D1-40F0-8537-D2B5B3A46943";
shapes = (
{
closed = 1;
nodes = (
(480,0,l),
(494,80,l),
(336,80,l),
(410,500,l),
(178,500,l),
(164,420,l),
(302,420,l),
(242,80,l),
(84,80,l),
(70,0,l)
);
}
);
width = 630;
}
);
unicode = 305;
},
{
glyphname = jdotless;
lastChange = "2024-07-26 13:25:08 +0000";
layers = (
{
anchors = (
{
name = bottom;
pos = (353,-200);
},
{
name = top;
pos = (353,500);
}
);
layerId = m01;
shapes = (
{
closed = 1;
nodes = (
(302,-200,ls),
(380,-200,o),
(416,-164,o),
(416,-86,cs),
(416,500,l),
(116,500,l),
(116,420,l),
(322,420,l),
(322,-120,l),
(135,-120,l),
(135,-200,l)
);
}
);
width = 630;
},
{
anchors = (
{
name = bottom;
pos = (273,-200);
},
{
name = top;
pos = (397,500);
}
);
layerId = "941849C8-D0D1-40F0-8537-D2B5B3A46943";
shapes = (
{
closed = 1;
nodes = (
(222,-200,ls),
(300,-200,o),
(343,-164,o),
(356,-86,cs),
(460,500,l),
(160,500,l),
(146,420,l),
(352,420,l),
(256,-120,l),
(69,-120,l),
(55,-200,l)
);
}
);
width = 630;
}
);
unicode = 567;
},
{
glyphname = k;
lastChange = "2024-07-26 13:25:08 +0000";
layers = (
{
anchors = (
{
name = bottom;
pos = (315,0);
},
{
name = top;
pos = (315,700);
}
);
layerId = m01;
shapes = (
{
closed = 1;
nodes = (
(196,127,l),
(548,500,l),
(435,500,l),
(224,277,l),
(216,277,l),
(159,277,l),
(159,127,l)
);
},
{
closed = 1;
nodes = (
(216,0,l),
(216,700,l),
(122,700,l),
(122,0,l)
);
},
{
closed = 1;
nodes = (
(574,0,l),
(353,380,l),
(300,291,l),
(300,252,l),
(322,252,l),
(468,0,l)
);
}
);
width = 630;
},
{
anchors = (
{
name = bottom;
pos = (271,0);
},
{
name = top;
pos = (395,700);
}
);
layerId = "941849C8-D0D1-40F0-8537-D2B5B3A46943";
shapes = (
{
closed = 1;
nodes = (
(175,127,l),
(592,500,l),
(479,500,l),
(229,277,l),
(221,277,l),
(164,277,l),
(138,127,l)
);
},
{
closed = 1;
nodes = (
(172,0,l),
(296,700,l),
(202,700,l),
(78,0,l)
);
},
{
closed = 1;
nodes = (
(530,0,l),
(376,380,l),
(308,291,l),
(301,252,l),
(323,252,l),
(424,0,l)
);
}
);
width = 630;
}
);
unicode = 107;
},
{
glyphname = l;
lastChange = "2024-07-26 14:34:02 +0000";
layers = (
{
anchors = (
{
name = bottom;
pos = (315,0);
},
{
name = center;
pos = (315,363);
},
{
name = top;
pos = (315,700);
},
{
name = topright;
pos = (411,700);
}
);
layerId = m01;
shapes = (
{
closed = 1;
nodes = (
(550,0,l),
(550,80,l),
(362,80,l),
(362,700,l),
(99,700,l),
(99,620,l),
(268,620,l),
(268,80,l),
(80,80,l),
(80,0,l)
);
}
);
width = 630;
},
{
anchors = (
{
name = bottom;
pos = (271,0);
},
{
name = center;
pos = (335,363);
},
{
name = top;
pos = (395,700);
},
{
name = topright;
pos = (550,700);
}
);
layerId = "941849C8-D0D1-40F0-8537-D2B5B3A46943";
shapes = (
{
closed = 1;
nodes = (
(506,0,l),
(520,80,l),
(332,80,l),
(442,700,l),
(179,700,l),
(165,620,l),
(334,620,l),
(238,80,l),
(50,80,l),
(36,0,l)
);
}
);
width = 630;
}
);
unicode = 108;
},
{
glyphname = m;
lastChange = "2024-07-26 13:25:08 +0000";
layers = (
{
anchors = (
{
name = bottom;
pos = (315,0);
},
{
name = top;
pos = (315,500);
}
);
layerId = m01;
shapes = (
{
closed = 1;
nodes = (
(163,0,l),
(163,357,ls),
(163,406,o),
(181,433,o),
(222,433,cs),
(251,433,o),
(274,413,o),
(274,370,cs),
(274,0,l),
(366,0,l),
(366,357,ls),
(366,406,o),
(384,433,o),
(425,433,cs),
(454,433,o),
(477,413,o),
(477,370,cs),
(477,0,l),
(568,0,l),
(568,378,ls),
(568,462,o),
(530,510,o),
(463,510,cs),
(412,510,o),
(379,485,o),
(360,456,c),
(352,456,l),
(338,486,o),
(307,510,o),
(259,510,cs),
(211,510,o),
(175,488,o),
(160,457,c),
(152,457,l),
(152,500,l),
(71,500,l),
(71,0,l)
);
}
);
width = 630;
},
{
anchors = (
{
name = bottom;
pos = (271,0);
},
{
name = top;
pos = (359,500);
}
);
layerId = "941849C8-D0D1-40F0-8537-D2B5B3A46943";
shapes = (
{
closed = 1;
nodes = (
(119,0,l),
(182,357,ls),
(191,406,o),
(213,433,o),
(254,433,cs),
(283,433,o),
(303,413,o),
(295,370,cs),
(230,0,l),
(322,0,l),
(385,357,ls),
(394,406,o),
(416,433,o),
(457,433,cs),
(486,433,o),
(506,413,o),
(498,370,cs),
(433,0,l),
(524,0,l),
(591,378,ls),
(605,462,o),
(576,510,o),
(509,510,cs),
(458,510,o),
(421,485,o),
(396,456,c),
(388,456,l),
(380,486,o),
(353,510,o),
(305,510,cs),
(257,510,o),
(217,488,o),
(197,457,c),
(189,457,l),
(196,500,l),
(115,500,l),
(27,0,l)
);
}
);
width = 630;
}
);
unicode = 109;
},
{
glyphname = n;
lastChange = "2024-07-26 14:30:06 +0000";
layers = (
{
anchors = (
{
name = bottom;
pos = (315,0);
},
{
name = top;
pos = (315,500);
}
);
layerId = m01;
shapes = (
{
closed = 1;
nodes = (
(208,0,l),
(208,270,ls),
(208,382,o),
(261,430,o),
(334,430,cs),
(404,430,o),
(447,394,o),
(447,284,cs),
(447,0,l),
(541,0,l),
(541,298,ls),
(541,441,o),
(477,510,o),
(368,510,cs),
(293,510,o),
(239,478,o),
(210,425,c),
(202,425,l),
(202,500,l),
(114,500,l),
(114,0,l)
);
}
);
width = 630;
},
{
anchors = (
{
name = bottom;
pos = (272,0);
},
{
name = top;
pos = (360,500);
}
);
layerId = "941849C8-D0D1-40F0-8537-D2B5B3A46943";
shapes = (
{
closed = 1;
nodes = (
(165,0,l),
(213,270,ls),
(232,382,o),
(294,430,o),
(367,430,cs),
(437,430,o),
(474,394,o),
(454,284,cs),
(404,0,l),
(498,0,l),
(551,298,ls),
(576,441,o),
(524,510,o),
(415,510,cs),
(340,510,o),
(280,478,o),
(242,425,c),
(234,425,l),
(247,500,l),
(159,500,l),
(71,0,l)
);
}
);
width = 630;
}
);
unicode = 110;
},
{
glyphname = o;
lastChange = "2024-07-26 14:30:06 +0000";
layers = (
{
anchors = (
{
name = bottom;
pos = (315,0);
},
{
name = center;
pos = (315,250);
},
{
name = ogonek;
pos = (567,10);
},
{
name = top;
pos = (315,500);
},
{
name = topright;
pos = (610,500);
}
);
layerId = m01;
shapes = (
{
closed = 1;
nodes = (
(455,-10,o),
(555,86,o),
(555,250,cs),
(555,414,o),
(455,510,o),
(315,510,cs),
(175,510,o),
(75,414,o),
(75,250,cs),
(75,86,o),
(175,-10,o),
(315,-10,cs)
);
},
{
closed = 1;
nodes = (
(226,70,o),
(171,133,o),
(171,250,cs),
(171,367,o),
(226,430,o),
(315,430,cs),
(404,430,o),
(459,367,o),
(459,250,cs),
(459,133,o),
(404,70,o),
(315,70,cs)
);
}
);
width = 630;
},
{
anchors = (
{
name = bottom;
pos = (272,0);
},
{
name = center;
pos = (316,250);
},
{
name = ogonek;
pos = (526,10);
},
{
name = top;
pos = (360,500);
},
{
name = topright;
pos = (655,500);
}
);
layerId = "941849C8-D0D1-40F0-8537-D2B5B3A46943";
shapes = (
{
closed = 1;
nodes = (
(454,-10,o),
(560,133,o),
(560,298,cs),
(560,431,o),
(476,510,o),
(348,510,cs),
(178,510,o),
(73,367,o),
(73,202,cs),
(73,69,o),
(158,-10,o),
(286,-10,cs)
);
},
{
closed = 1;
nodes = (
(215,70,o),
(169,118,o),
(169,203,cs),
(169,313,o),
(226,430,o),
(340,430,cs),
(419,430,o),
(465,382,o),
(465,297,cs),
(465,187,o),
(408,70,o),
(294,70,cs)
);
}
);
width = 630;
},
{
anchors = (
{
name = bottom;
pos = (271,0);
},
{
name = center;
pos = (315,250);
},
{
name = ogonek;
pos = (525,10);
},
{
name = top;
pos = (359,500);
},
{
name = topright;
pos = (654,500);
}
);
associatedMasterId = "941849C8-D0D1-40F0-8537-D2B5B3A46943";
layerId = "4B3650C6-C22A-4BAE-8265-06D3834B5B81";
name = "26 juil. 24 à 15:04";
shapes = (
{
closed = 1;
nodes = (
(455,-10,o),
(561,143,o),
(561,307,cs),
(561,440,o),
(473,510,o),
(345,510,cs),
(175,510,o),
(69,361,o),
(69,197,cs),
(69,64,o),
(157,-10,o),
(285,-10,cs)
);
},
{
closed = 1;
nodes = (
(218,70,o),
(166,118,o),
(166,200,cs),
(166,317,o),
(227,430,o),
(342,430,cs),
(412,430,o),
(464,386,o),
(464,304,cs),
(464,187,o),
(403,70,o),
(288,70,cs)
);
}
);
width = 630;
}
);
unicode = 111;
},
{
glyphname = oe;
lastChange = "2024-07-26 14:30:06 +0000";
layers = (
{
layerId = m01;
shapes = (
{
closed = 1;
nodes = (
(244,-10,o),
(284,10,o),
(311,60,c),
(319,60,l),
(346,10,o),
(384,-10,o),
(432,-10,cs),
(518,-10,o),
(572,54,o),
(588,164,c),
(501,164,l),
(491,100,o),
(467,70,o),
(432,70,cs),
(387,70,o),
(359,122,o),
(359,250,cs),
(359,378,o),
(387,430,o),
(432,430,cs),
(479,430,o),
(505,378,o),
(505,250,c),
(547,294,l),
(346,294,l),
(346,223,l),
(593,223,l),
(593,232,o),
(593,241,o),
(593,250,cs),
(593,417,o),
(542,510,o),
(438,510,cs),
(389,510,o),
(347,489,o),
(319,438,c),
(311,438,l),
(284,489,o),
(245,510,o),
(196,510,cs),
(92,510,o),
(37,417,o),
(37,250,cs),
(37,83,o),
(92,-10,o),
(196,-10,cs)
);
},
{
closed = 1;
nodes = (
(153,70,o),
(125,122,o),
(125,250,cs),
(125,378,o),
(153,430,o),
(198,430,cs),
(244,430,o),
(271,378,o),
(271,250,cs),
(271,122,o),
(244,70,o),
(198,70,cs)
);
}
);
width = 630;
},
{
layerId = "941849C8-D0D1-40F0-8537-D2B5B3A46943";
shapes = (
{
closed = 1;
nodes = (
(200,-10,o),
(245,11,o),
(279,60,c),
(286,60,l),
(304,10,o),
(339,-10,o),
(387,-10,cs),
(473,-10,o),
(538,53,o),
(575,164,c),
(487,164,l),
(466,99,o),
(436,70,o),
(401,70,cs),
(369,70,o),
(351,96,o),
(351,158,cs),
(351,224,o),
(378,430,o),
(465,430,cs),
(529,430,o),
(509,300,o),
(505,252,c),
(556,294,l),
(311,294,l),
(299,223,l),
(589,223,l),
(599,263,o),
(604,302,o),
(604,343,cs),
(604,455,o),
(565,510,o),
(485,510,cs),
(436,510,o),
(386,489,o),
(353,438,c),
(345,438,l),
(326,487,o),
(295,510,o),
(243,510,cs),
(79,510,o),
(29,276,o),
(29,152,cs),
(29,47,o),
(70,-10,o),
(151,-10,cs)
);
},
{
closed = 1;
nodes = (
(135,70,o),
(117,96,o),
(117,158,cs),
(117,224,o),
(144,430,o),
(231,430,cs),
(263,430,o),
(282,404,o),
(282,344,cs),
(282,277,o),
(254,70,o),
(167,70,cs)
);
}
);
width = 630;
}
);
unicode = 339;
},
{
glyphname = p;
lastChange = "2024-07-26 14:30:06 +0000";
layers = (
{
anchors = (
{
name = bottom;
pos = (315,0);
},
{
name = top;
pos = (315,500);
}
);
layerId = m01;
shapes = (
{
closed = 1;
nodes = (
(265,510,o),
(208,475,o),
(180,431,c),
(172,431,l),
(172,500,l),
(84,500,l),
(84,-200,l),
(178,-200,l),
(178,66,l),
(184,66,l),
(215,16,o),
(272,-10,o),
(339,-10,cs),
(465,-10,o),
(562,78,o),
(562,250,cs),
(562,422,o),
(467,510,o),
(340,510,cs)
);
},
{
closed = 1;
nodes = (
(411,430,o),
(466,371,o),
(466,250,cs),
(466,133,o),
(411,70,o),
(322,70,cs),
(233,70,o),
(178,133,o),
(178,250,cs),
(178,371,o),
(233,430,o),
(322,430,cs)
);
}
);
width = 630;
},
{
anchors = (
{
name = bottom;
pos = (274,0);
},
{
name = top;
pos = (362,500);
}
);
layerId = "941849C8-D0D1-40F0-8537-D2B5B3A46943";
shapes = (
{
closed = 1;
nodes = (
(308,510,o),
(253,477,o),
(218,431,c),
(210,431,l),
(222,500,l),
(134,500,l),
(10,-200,l),
(104,-200,l),
(151,66,l),
(157,66,l),
(180,25,o),
(239,-10,o),
(309,-10,cs),
(471,-10,o),
(574,121,o),
(574,299,cs),
(574,429,o),
(502,510,o),
(384,510,cs)
);
},
{
closed = 1;
nodes = (
(431,430,o),
(477,382,o),
(477,297,cs),
(477,187,o),
(420,70,o),
(305,70,cs),
(226,70,o),
(179,118,o),
(179,203,cs),
(179,313,o),
(237,430,o),
(351,430,cs)
);
}
);
width = 630;
}
);
unicode = 112;
},
{
glyphname = thorn;
lastChange = "2024-07-26 14:30:06 +0000";
layers = (
{
layerId = m01;
shapes = (
{
closed = 1;
nodes = (
(178,-200,l),
(178,66,l),
(184,66,l),
(215,16,o),
(272,-10,o),
(339,-10,cs),
(465,-10,o),
(562,78,o),
(562,250,cs),
(562,422,o),
(465,510,o),
(339,510,cs),
(272,510,o),
(215,484,o),
(184,434,c),
(178,434,l),
(178,700,l),
(84,700,l),
(84,-200,l)
);
},
{
closed = 1;
nodes = (
(466,133,o),
(411,70,o),
(322,70,cs),
(233,70,o),
(178,133,o),
(178,250,cs),
(178,367,o),
(233,430,o),
(322,430,cs),
(411,430,o),
(466,367,o),
(466,250,cs)
);
}
);
width = 630;
},
{
layerId = "941849C8-D0D1-40F0-8537-D2B5B3A46943";
shapes = (
{
closed = 1;
nodes = (
(104,-200,l),
(151,66,l),
(157,66,l),
(180,25,o),
(239,-10,o),
(309,-10,cs),
(471,-10,o),
(574,121,o),
(574,299,cs),
(574,429,o),
(502,510,o),
(384,510,cs),
(308,510,o),
(257,480,o),
(222,434,c),
(216,434,l),
(263,700,l),
(169,700,l),
(10,-200,l)
);
},
{
closed = 1;
nodes = (
(226,70,o),
(179,118,o),
(179,203,cs),
(179,313,o),
(237,430,o),
(351,430,cs),
(431,430,o),
(477,382,o),
(477,297,cs),
(477,187,o),
(420,70,o),
(305,70,cs)
);
}
);
width = 630;
}
);
unicode = 254;
},
{
glyphname = q;
lastChange = "2024-07-26 14:30:06 +0000";
layers = (
{
anchors = (
{
name = bottom;
pos = (315,0);
},
{
name = top;
pos = (315,500);
}
);
layerId = m01;
shapes = (
{
closed = 1;
nodes = (
(163,510,o),
(68,422,o),
(68,250,cs),
(68,78,o),
(165,-10,o),
(291,-10,cs),
(358,-10,o),
(415,16,o),
(446,66,c),
(452,66,l),
(452,-200,l),
(546,-200,l),
(546,500,l),
(458,500,l),
(458,431,l),
(450,431,l),
(422,475,o),
(365,510,o),
(290,510,cs)
);
},
{
closed = 1;
nodes = (
(397,430,o),
(452,371,o),
(452,250,cs),
(452,133,o),
(397,70,o),
(308,70,cs),
(219,70,o),
(164,133,o),
(164,250,cs),
(164,371,o),
(219,430,o),
(308,430,cs)
);
}
);
width = 630;
},
{
anchors = (
{
name = bottom;
pos = (284,0);
},
{
name = top;
pos = (372,500);
}
);
layerId = "941849C8-D0D1-40F0-8537-D2B5B3A46943";
shapes = (
{
closed = 1;
nodes = (
(149,510,o),
(69,354,o),
(69,191,cs),
(69,58,o),
(151,-10,o),
(253,-10,cs),
(321,-10,o),
(381,16,o),
(421,66,c),
(427,66,l),
(380,-200,l),
(474,-200,l),
(598,500,l),
(510,500,l),
(498,431,l),
(490,431,l),
(469,473,o),
(409,510,o),
(334,510,cs)
);
},
{
closed = 1;
nodes = (
(419,430,o),
(465,382,o),
(465,297,cs),
(465,187,o),
(408,70,o),
(293,70,cs),
(214,70,o),
(167,118,o),
(167,203,cs),
(167,313,o),
(225,430,o),
(339,430,cs)
);
}
);
width = 630;
}
);
unicode = 113;
},
{
glyphname = r;
lastChange = "2024-07-26 13:25:08 +0000";
layers = (
{
anchors = (
{
name = bottom;
pos = (315,0);
},
{
name = top;
pos = (315,500);
}
);
layerId = m01;
shapes = (
{
closed = 1;
nodes = (
(511,0,l),
(511,80,l),
(331,80,l),
(331,265,ls),
(331,375,o),
(374,414,o),
(492,414,cs),
(579,414,l),
(579,500,l),
(488,500,ls),
(405,500,o),
(356,475,o),
(339,413,c),
(331,413,l),
(331,500,l),
(110,500,l),
(110,420,l),
(238,420,l),
(238,80,l),
(100,80,l),
(100,0,l)
);
}
);
width = 630;
},
{
anchors = (
{
name = bottom;
pos = (271,0);
},
{
name = top;
pos = (359,500);
}
);
layerId = "941849C8-D0D1-40F0-8537-D2B5B3A46943";
shapes = (
{
closed = 1;
nodes = (
(467,0,l),
(481,80,l),
(301,80,l),
(334,265,ls),
(353,375,o),
(403,414,o),
(521,414,cs),
(608,414,l),
(623,500,l),
(532,500,ls),
(449,500,o),
(396,475,o),
(368,413,c),
(360,413,l),
(375,500,l),
(154,500,l),
(140,420,l),
(268,420,l),
(208,80,l),
(70,80,l),
(56,0,l)
);
}
);
width = 630;
}
);
unicode = 114;
},
{
glyphname = s;
lastChange = "2024-07-26 14:34:31 +0000";
layers = (
{
anchors = (
{
name = bottom;
pos = (335,0);
},
{
name = top;
pos = (323,500);
}
);
layerId = m01;
shapes = (
{
closed = 1;
nodes = (
(454,-10,o),
(516,55,o),
(516,140,cs),
(516,219,o),
(468,259,o),
(378,281,cs),
(303,299,ls),
(247,312,o),
(223,328,o),
(223,366,cs),
(223,408,o),
(261,434,o),
(320,434,cs),
(384,434,o),
(421,404,o),
(421,334,c),
(376,355,l),
(559,355,l),
(513,336,l),
(513,437,o),
(448,510,o),
(320,510,cs),
(202,510,o),
(133,442,o),
(133,360,cs),
(133,280,o),
(181,237,o),
(269,217,cs),
(342,200,ls),
(399,187,o),
(426,171,o),
(426,131,cs),
(426,90,o),
(395,64,o),
(324,64,cs),
(250,64,o),
(207,101,o),
(207,163,c),
(233,147,l),
(90,147,l),
(114,159,l),
(114,61,o),
(188,-10,o),
(319,-10,cs)
);
}
);
width = 630;
},
{
anchors = (
{
name = bottom;
pos = (302,0);
},
{
name = top;
pos = (359,500);
}
);
layerId = "941849C8-D0D1-40F0-8537-D2B5B3A46943";
shapes = (
{
closed = 1;
nodes = (
(423,-11,o),
(501,47,o),
(501,145,cs),
(501,216,o),
(460,252,o),
(386,276,cs),
(315,299,ls),
(268,314,o),
(246,330,o),
(246,360,cs),
(246,407,o),
(286,433,o),
(343,433,cs),
(432,433,o),
(448,386,o),
(438,326,c),
(397,350,l),
(579,350,l),
(530,322,l),
(550,438,o),
(475,510,o),
(349,510,cs),
(230,510,o),
(155,439,o),
(155,353,cs),
(155,285,o),
(194,243,o),
(267,220,cs),
(336,198,ls),
(384,183,o),
(408,167,o),
(408,132,cs),
(408,90,o),
(376,63,o),
(310,63,cs),
(234,63,o),
(185,94,o),
(196,170,c),
(219,153,l),
(77,153,l),
(103,173,l),
(80,59,o),
(170,-11,o),
(302,-11,cs)
);
}
);
width = 630;
}
);
unicode = 115;
},
{
glyphname = germandbls;
lastChange = "2024-07-26 14:39:45 +0000";
layers = (
{
layerId = m01;
shapes = (
{
closed = 1;
nodes = (
(217,0,l),
(217,486,ls),
(217,576,o),
(261,614,o),
(323,614,cs),
(385,614,o),
(429,573,o),
(429,508,cs),
(429,449,o),
(395,406,o),
(314,406,cs),
(304,406,l),
(304,320,l),
(319,320,ls),
(405,320,o),
(450,277,o),
(450,203,cs),
(450,129,o),
(405,86,o),
(319,86,cs),
(304,86,l),
(304,0,l),
(330,0,ls),
(467,0,o),
(546,75,o),
(546,194,cs),
(546,285,o),
(507,338,o),
(437,363,c),
(437,371,l),
(483,394,o),
(525,437,o),
(525,519,cs),
(525,609,o),
(468,700,o),
(327,700,cs),
(179,700,o),
(121,607,o),
(121,486,cs),
(121,0,l)
);
}
);
width = 630;
},
{
layerId = "941849C8-D0D1-40F0-8537-D2B5B3A46943";
shapes = (
{
closed = 1;
nodes = (
(173,0,l),
(259,486,ls),
(275,576,o),
(326,614,o),
(388,614,cs),
(443,614,o),
(477,582,o),
(477,530,cs),
(477,474,o),
(441,406,o),
(342,406,cs),
(332,406,l),
(317,320,l),
(332,320,ls),
(407,320,o),
(445,277,o),
(445,221,cs),
(445,134,o),
(384,86,o),
(290,86,cs),
(275,86,l),
(260,0,l),
(295,0,ls),
(450,0,o),
(541,95,o),
(541,224,cs),
(541,297,o),
(511,343,o),
(457,363,c),
(459,371,l),
(547,411,o),
(576,486,o),
(576,544,cs),
(576,623,o),
(520,700,o),
(397,700,cs),
(249,700,o),
(184,607,o),
(163,486,cs),
(77,0,l)
);
}
);
width = 630;
}
);
unicode = 223;
},
{
glyphname = t;
lastChange = "2024-08-13 10:36:52 +0000";
layers = (
{
anchors = (
{
name = bottom;
pos = (315,0);
},
{
name = center;
pos = (315,250);
},
{
name = top;
pos = (315,660);
},
{
name = topright;
pos = (610,700);
}
);
layerId = m01;
shapes = (
{
closed = 1;
nodes = (
(529,0,l),
(529,80,l),
(307,80,l),
(307,420,l),
(529,420,l),
(529,500,l),
(307,500,l),
(307,660,l),
(213,660,l),
(213,537,ls),
(213,513,o),
(200,500,o),
(176,500,cs),
(57,500,l),
(57,420,l),
(213,420,l),
(213,95,ls),
(213,27,o),
(241,0,o),
(309,0,cs)
);
}
);
width = 630;
},
{
anchors = (
{
name = bottom;
pos = (342,0);
},
{
name = center;
pos = (315,250);
},
{
name = top;
pos = (387,660);
},
{
name = topright;
pos = (689,700);
}
);
layerId = "941849C8-D0D1-40F0-8537-D2B5B3A46943";
shapes = (
{
closed = 1;
nodes = (
(485,0,l),
(499,80,l),
(277,80,l),
(337,420,l),
(559,420,l),
(573,500,l),
(351,500,l),
(379,660,l),
(285,660,l),
(263,537,ls),
(259,513,o),
(244,500,o),
(220,500,cs),
(101,500,l),
(87,420,l),
(243,420,l),
(186,95,ls),
(174,27,o),
(197,0,o),
(265,0,cs)
);
}
);
width = 630;
}
);
unicode = 116;
},
{
glyphname = u;
lastChange = "2024-07-26 13:47:48 +0000";
layers = (
{
anchors = (
{
name = bottom;
pos = (315,0);
},
{
name = ogonek;
pos = (396,0);
},
{
name = top;
pos = (315,500);
},
{
name = topright;
pos = (610,500);
}
);
layerId = m01;
shapes = (
{
closed = 1;
nodes = (
(442,-10,o),
(524,49,o),
(524,192,cs),
(524,500,l),
(430,500,l),
(430,204,ls),
(430,112,o),
(390,70,o),
(315,70,cs),
(239,70,o),
(200,112,o),
(200,204,cs),
(200,500,l),
(106,500,l),
(106,192,ls),
(106,49,o),
(188,-10,o),
(315,-10,cs)
);
}
);
width = 630;
},
{
anchors = (
{
name = bottom;
pos = (271,0);
},
{
name = ogonek;
pos = (352,0);
},
{
name = top;
pos = (359,500);
},
{
name = topright;
pos = (654,500);
}
);
layerId = "941849C8-D0D1-40F0-8537-D2B5B3A46943";
shapes = (
{
closed = 1;
nodes = (
(413,-10,o),
(488,49,o),
(514,192,cs),
(568,500,l),
(474,500,l),
(422,204,ls),
(406,112,o),
(362,70,o),
(287,70,cs),
(211,70,o),
(176,112,o),
(192,204,cs),
(244,500,l),
(150,500,l),
(96,192,ls),
(70,49,o),
(159,-10,o),
(286,-10,cs)
);
}
);
width = 630;
}
);
unicode = 117;
},
{
glyphname = v;
lastChange = "2024-07-26 13:25:08 +0000";
layers = (
{
anchors = (
{
name = bottom;
pos = (315,0);
},
{
name = top;
pos = (315,500);
}
);
layerId = m01;
shapes = (
{
closed = 1;
nodes = (
(311,113,l),
(182,500,l),
(82,500,l),
(260,0,l),
(368,0,l),
(548,500,l),
(448,500,l),
(319,113,l)
);
}
);
width = 630;
},
{
anchors = (
{
name = bottom;
pos = (271,0);
},
{
name = top;
pos = (359,500);
}
);
layerId = "941849C8-D0D1-40F0-8537-D2B5B3A46943";
shapes = (
{
closed = 1;
nodes = (
(287,113,l),
(226,500,l),
(126,500,l),
(216,0,l),
(324,0,l),
(592,500,l),
(492,500,l),
(295,113,l)
);
}
);
width = 630;
}
);
unicode = 118;
},
{
glyphname = w;
lastChange = "2024-07-26 13:25:08 +0000";
layers = (
{
anchors = (
{
name = bottom;
pos = (315,0);
},
{
name = top;
pos = (315,500);
}
);
layerId = m01;
shapes = (
{
closed = 1;
nodes = (
(243,0,l),
(311,380,l),
(319,380,l),
(387,0,l),
(504,0,l),
(559,500,l),
(471,500,l),
(439,120,l),
(431,120,l),
(361,500,l),
(269,500,l),
(199,120,l),
(191,120,l),
(159,500,l),
(71,500,l),
(127,0,l)
);
}
);
width = 630;
},
{
anchors = (
{
name = bottom;
pos = (271,0);
},
{
name = top;
pos = (359,500);
}
);
layerId = "941849C8-D0D1-40F0-8537-D2B5B3A46943";
shapes = (
{
closed = 1;
nodes = (
(199,0,l),
(334,380,l),
(342,380,l),
(343,0,l),
(460,0,l),
(603,500,l),
(515,500,l),
(416,120,l),
(408,120,l),
(405,500,l),
(313,500,l),
(176,120,l),
(168,120,l),
(203,500,l),
(115,500,l),
(83,0,l)
);
}
);
width = 630;
}
);
unicode = 119;
},
{
glyphname = x;
lastChange = "2024-07-26 13:25:08 +0000";
layers = (
{
anchors = (
{
name = bottom;
pos = (315,0);
},
{
name = top;
pos = (315,500);
}
);
layerId = m01;
shapes = (
{
closed = 1;
nodes = (
(185,0,l),
(311,187,l),
(319,187,l),
(445,0,l),
(552,0,l),
(379,250,l),
(545,500,l),
(438,500,l),
(319,313,l),
(311,313,l),
(192,500,l),
(85,500,l),
(251,250,l),
(78,0,l)
);
}
);
width = 630;
},
{
anchors = (
{
name = bottom;
pos = (271,0);
},
{
name = top;
pos = (359,500);
}
);
layerId = "941849C8-D0D1-40F0-8537-D2B5B3A46943";
shapes = (
{
closed = 1;
nodes = (
(141,0,l),
(300,187,l),
(308,187,l),
(401,0,l),
(508,0,l),
(379,250,l),
(589,500,l),
(482,500,l),
(330,313,l),
(322,313,l),
(236,500,l),
(129,500,l),
(251,250,l),
(34,0,l)
);
}
);
width = 630;
}
);
unicode = 120;
},
{
glyphname = y;
lastChange = "2024-07-26 13:25:08 +0000";
layers = (
{
anchors = (
{
name = bottom;
pos = (315,0);
},
{
name = top;
pos = (315,500);
}
);
layerId = m01;
shapes = (
{
closed = 1;
nodes = (
(316,113,l),
(187,500,l),
(88,500,l),
(290,-70,l),
(284,9,l),
(235,-119,l),
(107,-119,l),
(107,-200,l),
(218,-200,ls),
(280,-200,o),
(310,-182,o),
(329,-128,cs),
(552,500,l),
(453,500,l),
(324,113,l)
);
}
);
width = 630;
},
{
anchors = (
{
name = bottom;
pos = (271,0);
},
{
name = top;
pos = (359,500);
}
);
layerId = "941849C8-D0D1-40F0-8537-D2B5B3A46943";
shapes = (
{
closed = 1;
nodes = (
(291,113,l),
(231,500,l),
(132,500,l),
(233,-70,l),
(241,9,l),
(170,-119,l),
(42,-119,l),
(27,-200,l),
(138,-200,ls),
(200,-200,o),
(233,-182,o),
(262,-128,cs),
(596,500,l),
(497,500,l),
(299,113,l)
);
}
);
width = 630;
}
);
unicode = 121;
},
{
glyphname = z;
lastChange = "2024-07-26 13:25:08 +0000";
layers = (
{
anchors = (
{
name = bottom;
pos = (315,0);
},
{
name = center;
pos = (315,250);
},
{
name = top;
pos = (315,500);
}
);
layerId = m01;
shapes = (
{
closed = 1;
nodes = (
(515,0,l),
(515,80,l),
(223,80,l),
(509,420,l),
(509,500,l),
(121,500,l),
(121,420,l),
(400,420,l),
(114,80,l),
(114,0,l)
);
}
);
width = 630;
},
{
anchors = (
{
name = bottom;
pos = (271,0);
},
{
name = center;
pos = (315,250);
},
{
name = top;
pos = (359,500);
}
);
layerId = "941849C8-D0D1-40F0-8537-D2B5B3A46943";
shapes = (
{
closed = 1;
nodes = (
(471,0,l),
(485,80,l),
(193,80,l),
(539,420,l),
(553,500,l),
(165,500,l),
(151,420,l),
(430,420,l),
(84,80,l),
(70,0,l)
);
}
);
width = 630;
}
);
unicode = 122;
},
{
glyphname = a.ss01;
lastChange = "2024-07-26 14:30:06 +0000";
layers = (
{
anchors = (
{
name = bottom;
pos = (315,0);
},
{
name = ogonek;
pos = (546,0);
},
{
name = top;
pos = (315,500);
}
);
layerId = m01;
shapes = (
{
closed = 1;
nodes = (
(365,-10,o),
(422,25,o),
(450,69,c),
(458,69,l),
(458,0,l),
(546,0,l),
(546,500,l),
(458,500,l),
(458,431,l),
(450,431,l),
(422,475,o),
(365,510,o),
(290,510,cs),
(163,510,o),
(68,422,o),
(68,250,cs),
(68,78,o),
(163,-10,o),
(290,-10,cs)
);
},
{
closed = 1;
nodes = (
(219,70,o),
(164,129,o),
(164,250,cs),
(164,371,o),
(219,430,o),
(308,430,cs),
(397,430,o),
(452,371,o),
(452,250,cs),
(452,129,o),
(397,70,o),
(308,70,cs)
);
}
);
width = 630;
},
{
associatedMasterId = m01;
layerId = "6BEBA5BA-FE38-4DB2-9A49-A5E1D9A5A40B";
name = "20 juin 24 à 16:18";
shapes = (
{
closed = 1;
nodes = (
(529,-7,o),
(550,-2,o),
(559,5,c),
(559,88,l),
(551,84,o),
(546,82,o),
(537,82,cs),
(518,82,o),
(505,94,o),
(505,124,cs),
(505,330,ls),
(505,456,o),
(425,510,o),
(314,510,cs),
(192,510,o),
(116,439,o),
(116,333,c),
(100,344,l),
(222,344,l),
(211,333,l),
(211,391,o),
(245,431,o),
(314,431,cs),
(369,431,o),
(411,407,o),
(411,327,cs),
(411,171,ls),
(411,91,o),
(358,57,o),
(295,57,cs),
(239,57,o),
(204,86,o),
(204,134,cs),
(204,193,o),
(244,224,o),
(361,224,cs),
(420,224,l),
(420,292,l),
(354,292,ls),
(201,292,o),
(110,250,o),
(110,134,cs),
(110,37,o),
(181,-10,o),
(270,-10,cs),
(335,-10,o),
(385,15,o),
(416,50,c),
(424,50,l),
(435,7,o),
(465,-7,o),
(510,-7,cs)
);
}
);
width = 630;
},
{
associatedMasterId = m01;
layerId = "E848FFD5-43D2-4E80-B373-E5F42CF828EA";
name = "20 juin 24 à 16:23";
shapes = (
{
closed = 1;
nodes = (
(529,-7,o),
(550,-2,o),
(559,5,c),
(559,88,l),
(551,84,o),
(546,82,o),
(537,82,cs),
(518,82,o),
(505,94,o),
(505,124,cs),
(505,339,ls),
(505,465,o),
(440,510,o),
(323,510,cs),
(197,510,o),
(116,447,o),
(116,333,c),
(100,344,l),
(224,344,l),
(213,333,l),
(213,402,o),
(249,434,o),
(323,434,cs),
(374,434,o),
(411,412,o),
(411,361,cs),
(411,171,ls),
(411,91,o),
(358,57,o),
(295,57,cs),
(239,57,o),
(204,86,o),
(204,134,cs),
(204,193,o),
(245,211,o),
(321,224,cs),
(363,231,o),
(387,241,o),
(403,257,c),
(414,257,l),
(421,279,o),
(424,294,o),
(425,314,c),
(411,361,l),
(411,322,o),
(390,299,o),
(324,291,cs),
(186,274,o),
(110,238,o),
(110,129,cs),
(110,35,o),
(181,-10,o),
(270,-10,cs),
(335,-10,o),
(391,15,o),
(422,64,c),
(430,64,l),
(441,7,o),
(465,-7,o),
(510,-7,cs)
);
}
);
width = 630;
},
{
anchors = (
{
name = bottom;
pos = (278,0);
},
{
name = ogonek;
pos = (509,0);
},
{
name = top;
pos = (366,500);
}
);
layerId = "941849C8-D0D1-40F0-8537-D2B5B3A46943";
shapes = (
{
closed = 1;
nodes = (
(321,-10,o),
(384,13,o),
(425,69,c),
(433,69,l),
(421,0,l),
(509,0,l),
(598,500,l),
(510,500,l),
(498,431,l),
(490,431,l),
(469,473,o),
(409,510,o),
(334,510,cs),
(149,510,o),
(69,354,o),
(69,191,cs),
(69,58,o),
(151,-10,o),
(253,-10,cs)
);
},
{
closed = 1;
nodes = (
(214,70,o),
(167,118,o),
(167,203,cs),
(167,313,o),
(225,430,o),
(339,430,cs),
(419,430,o),
(465,382,o),
(465,297,cs),
(465,187,o),
(408,70,o),
(293,70,cs)
);
}
);
width = 630;
},
{
associatedMasterId = "941849C8-D0D1-40F0-8537-D2B5B3A46943";
layerId = "102677D5-3A0B-49E7-A188-28BCCD616EDE";
name = "20 juin 24 à 16:18";
shapes = (
{
closed = 1;
nodes = (
(529,-7,o),
(550,-2,o),
(559,5,c),
(559,88,l),
(551,84,o),
(546,82,o),
(537,82,cs),
(518,82,o),
(505,94,o),
(505,124,cs),
(505,330,ls),
(505,456,o),
(425,510,o),
(314,510,cs),
(192,510,o),
(116,439,o),
(116,333,c),
(100,344,l),
(222,344,l),
(211,333,l),
(211,391,o),
(245,431,o),
(314,431,cs),
(369,431,o),
(411,407,o),
(411,327,cs),
(411,171,ls),
(411,91,o),
(358,57,o),
(295,57,cs),
(239,57,o),
(204,86,o),
(204,134,cs),
(204,193,o),
(244,224,o),
(361,224,cs),
(420,224,l),
(420,292,l),
(354,292,ls),
(201,292,o),
(110,250,o),
(110,134,cs),
(110,37,o),
(181,-10,o),
(270,-10,cs),
(335,-10,o),
(385,15,o),
(416,50,c),
(424,50,l),
(435,7,o),
(465,-7,o),
(510,-7,cs)
);
}
);
width = 630;
},
{
associatedMasterId = "941849C8-D0D1-40F0-8537-D2B5B3A46943";
layerId = "5DDE1A57-89C1-4CA4-BB01-4E6E8C6F26CE";
name = "20 juin 24 à 16:23";
shapes = (
{
closed = 1;
nodes = (
(529,-7,o),
(550,-2,o),
(559,5,c),
(559,88,l),
(551,84,o),
(546,82,o),
(537,82,cs),
(518,82,o),
(505,94,o),
(505,124,cs),
(505,339,ls),
(505,465,o),
(440,510,o),
(323,510,cs),
(197,510,o),
(116,447,o),
(116,333,c),
(100,344,l),
(224,344,l),
(213,333,l),
(213,402,o),
(249,434,o),
(323,434,cs),
(374,434,o),
(411,412,o),
(411,361,cs),
(411,171,ls),
(411,91,o),
(358,57,o),
(295,57,cs),
(239,57,o),
(204,86,o),
(204,134,cs),
(204,193,o),
(245,211,o),
(321,224,cs),
(363,231,o),
(387,241,o),
(403,257,c),
(414,257,l),
(421,279,o),
(424,294,o),
(425,314,c),
(411,361,l),
(411,322,o),
(390,299,o),
(324,291,cs),
(186,274,o),
(110,238,o),
(110,129,cs),
(110,35,o),
(181,-10,o),
(270,-10,cs),
(335,-10,o),
(391,15,o),
(422,64,c),
(430,64,l),
(441,7,o),
(465,-7,o),
(510,-7,cs)
);
}
);
width = 630;
}
);
},
{
glyphname = g.ss01;
lastChange = "2024-07-26 14:40:43 +0000";
layers = (
{
anchors = (
{
name = bottom;
pos = (315,-200);
},
{
name = top;
pos = (315,500);
}
);
layerId = m01;
shapes = (
{
closed = 1;
nodes = (
(452,-210,o),
(545,-149,o),
(545,-3,cs),
(545,500,l),
(458,500,l),
(458,431,l),
(450,431,l),
(421,477,o),
(362,510,o),
(291,510,cs),
(168,510,o),
(73,422,o),
(73,257,cs),
(73,92,o),
(168,4,o),
(291,4,cs),
(362,4,o),
(415,38,o),
(443,79,c),
(451,79,l),
(451,0,ls),
(451,-100,o),
(396,-131,o),
(311,-131,cs),
(220,-131,o),
(180,-92,o),
(180,-40,c),
(225,-49,l),
(39,-49,l),
(83,-35,l),
(83,-149,o),
(166,-210,o),
(311,-210,cs)
);
},
{
closed = 1;
nodes = (
(224,84,o),
(169,143,o),
(169,257,cs),
(169,371,o),
(224,430,o),
(309,430,cs),
(394,430,o),
(449,371,o),
(449,257,cs),
(449,143,o),
(394,84,o),
(309,84,cs)
);
}
);
width = 630;
},
{
anchors = (
{
name = bottom;
pos = (236,-200);
},
{
name = top;
pos = (359,500);
}
);
layerId = "941849C8-D0D1-40F0-8537-D2B5B3A46943";
shapes = (
{
closed = 1;
nodes = (
(384,-210,o),
(477,-149,o),
(502,-3,cs),
(591,500,l),
(504,500,l),
(492,431,l),
(484,431,l),
(463,477,o),
(410,510,o),
(339,510,cs),
(171,510,o),
(70,352,o),
(70,193,cs),
(70,69,o),
(144,4,o),
(250,4,cs),
(321,4,o),
(380,38,o),
(415,79,c),
(423,79,l),
(409,0,ls),
(391,-100,o),
(331,-131,o),
(246,-131,cs),
(155,-131,o),
(122,-92,o),
(131,-40,c),
(174,-49,l),
(-12,-49,l),
(35,-35,l),
(15,-149,o),
(98,-210,o),
(243,-210,cs)
);
},
{
closed = 1;
nodes = (
(210,84,o),
(167,126,o),
(167,207,cs),
(167,319,o),
(229,430,o),
(343,430,cs),
(414,430,o),
(457,388,o),
(457,308,cs),
(457,196,o),
(397,84,o),
(282,84,cs)
);
}
);
width = 630;
}
);
},
{
export = 0;
glyphname = u.001;
lastChange = "2024-07-26 14:30:06 +0000";
layers = (
{
anchors = (
{
name = bottom;
pos = (315,0);
},
{
name = ogonek;
pos = (567,10);
},
{
name = top;
pos = (315,500);
},
{
name = topright;
pos = (610,500);
}
);
layerId = m01;
shapes = (
{
closed = 1;
nodes = (
(428,500,l),
(428,230,ls),
(428,118,o),
(379,70,o),
(306,70,cs),
(236,70,o),
(197,106,o),
(197,216,cs),
(197,500,l),
(103,500,l),
(103,202,ls),
(103,59,o),
(165,-10,o),
(271,-10,cs),
(344,-10,o),
(397,22,o),
(426,75,c),
(434,75,l),
(434,0,l),
(522,0,l),
(522,500,l)
);
}
);
width = 630;
},
{
anchors = (
{
name = bottom;
pos = (273,0);
},
{
name = ogonek;
pos = (527,10);
},
{
name = top;
pos = (361,500);
},
{
name = topright;
pos = (656,500);
}
);
layerId = "941849C8-D0D1-40F0-8537-D2B5B3A46943";
shapes = (
{
closed = 1;
nodes = (
(474,500,l),
(426,230,ls),
(407,118,o),
(349,70,o),
(276,70,cs),
(206,70,o),
(173,106,o),
(193,216,cs),
(243,500,l),
(149,500,l),
(96,202,ls),
(71,59,o),
(121,-10,o),
(227,-10,cs),
(300,-10,o),
(359,22,o),
(397,75,c),
(405,75,l),
(392,0,l),
(480,0,l),
(568,500,l)
);
}
);
width = 630;
}
);
},
{
glyphname = zero;
lastChange = "2024-07-26 14:30:06 +0000";
layers = (
{
layerId = m01;
shapes = (
{
closed = 1;
nodes = (
(476,-10,o),
(578,112,o),
(578,350,cs),
(578,588,o),
(476,710,o),
(315,710,cs),
(154,710,o),
(52,588,o),
(52,350,cs),
(52,112,o),
(154,-10,o),
(315,-10,cs)
);
},
{
closed = 1;
nodes = (
(199,73,o),
(150,177,o),
(150,350,cs),
(150,523,o),
(199,627,o),
(315,627,cs),
(431,627,o),
(480,523,o),
(480,350,cs),
(480,177,o),
(431,73,o),
(315,73,cs)
);
},
{
closed = 1;
nodes = (
(465,584,l),
(403,637,l),
(166,120,l),
(227,63,l)
);
}
);
width = 630;
},
{
associatedMasterId = m01;
layerId = "357B6C05-DCA7-4054-B11E-12C0CB9DC9B0";
name = "9 juil. 24 à 17:17";
shapes = (
{
closed = 1;
nodes = (
(476,-10,o),
(578,112,o),
(578,350,cs),
(578,588,o),
(476,710,o),
(315,710,cs),
(154,710,o),
(52,588,o),
(52,350,cs),
(52,112,o),
(154,-10,o),
(315,-10,cs)
);
},
{
closed = 1;
nodes = (
(199,73,o),
(150,177,o),
(150,350,cs),
(150,523,o),
(199,627,o),
(315,627,cs),
(431,627,o),
(480,523,o),
(480,350,cs),
(480,177,o),
(431,73,o),
(315,73,cs)
);
},
{
closed = 1;
nodes = (
(354,280,o),
(385,310,o),
(385,350,cs),
(385,388,o),
(354,420,o),
(315,420,cs),
(276,420,o),
(245,388,o),
(245,350,cs),
(245,310,o),
(276,280,o),
(315,280,cs)
);
}
);
width = 630;
},
{
layerId = "941849C8-D0D1-40F0-8537-D2B5B3A46943";
shapes = (
{
closed = 1;
nodes = (
(529,-10,o),
(610,282,o),
(610,455,cs),
(610,623,o),
(528,710,o),
(391,710,cs),
(145,710,o),
(64,419,o),
(64,245,cs),
(64,77,o),
(146,-10,o),
(284,-10,cs)
);
},
{
closed = 1;
nodes = (
(202,73,o),
(162,136,o),
(162,244,cs),
(162,365,o),
(207,627,o),
(380,627,cs),
(472,627,o),
(512,564,o),
(512,457,cs),
(512,332,o),
(466,73,o),
(295,73,cs)
);
},
{
closed = 1;
nodes = (
(527,579,l),
(475,634,l),
(149,125,l),
(199,66,l)
);
}
);
width = 630;
},
{
associatedMasterId = "941849C8-D0D1-40F0-8537-D2B5B3A46943";
layerId = "A8B1E5CE-22C0-450C-943E-AFBCFDDCB64B";
name = "9 juil. 24 à 17:17";
shapes = (
{
closed = 1;
nodes = (
(476,-10,o),
(578,112,o),
(578,350,cs),
(578,588,o),
(476,710,o),
(315,710,cs),
(154,710,o),
(52,588,o),
(52,350,cs),
(52,112,o),
(154,-10,o),
(315,-10,cs)
);
},
{
closed = 1;
nodes = (
(199,73,o),
(150,177,o),
(150,350,cs),
(150,523,o),
(199,627,o),
(315,627,cs),
(431,627,o),
(480,523,o),
(480,350,cs),
(480,177,o),
(431,73,o),
(315,73,cs)
);
},
{
closed = 1;
nodes = (
(354,280,o),
(385,310,o),
(385,350,cs),
(385,388,o),
(354,420,o),
(315,420,cs),
(276,420,o),
(245,388,o),
(245,350,cs),
(245,310,o),
(276,280,o),
(315,280,cs)
);
}
);
width = 630;
}
);
unicode = 48;
},
{
glyphname = one;
lastChange = "2024-08-12 15:27:04 +0000";
layers = (
{
layerId = m01;
shapes = (
{
closed = 1;
nodes = (
(530,0,l),
(530,86,l),
(363,86,l),
(363,700,l),
(277,700,l),
(100,560,l),
(100,456,l),
(259,580,l),
(267,580,l),
(267,86,l),
(100,86,l),
(100,0,l)
);
}
);
width = 630;
},
{
layerId = "941849C8-D0D1-40F0-8537-D2B5B3A46943";
shapes = (
{
closed = 1;
nodes = (
(486,0,l),
(501,86,l),
(334,86,l),
(443,700,l),
(357,700,l),
(155,560,l),
(137,456,l),
(318,580,l),
(326,580,l),
(238,86,l),
(71,86,l),
(56,0,l)
);
}
);
width = 630;
}
);
unicode = 49;
},
{
glyphname = two;
lastChange = "2024-07-26 14:30:06 +0000";
layers = (
{
layerId = m01;
shapes = (
{
closed = 1;
nodes = (
(233,97,l),
(374,226,ls),
(484,327,o),
(540,400,o),
(540,500,cs),
(540,631,o),
(452,710,o),
(316,710,cs),
(172,710,o),
(72,609,o),
(88,433,c),
(43,469,l),
(227,469,l),
(184,432,l),
(172,549,o),
(219,624,o),
(316,624,cs),
(394,624,o),
(440,575,o),
(440,500,cs),
(440,417,o),
(389,367,o),
(292,275,cs),
(94,89,l),
(94,0,l),
(545,0,l),
(545,89,l),
(233,89,l)
);
}
);
width = 630;
},
{
layerId = "941849C8-D0D1-40F0-8537-D2B5B3A46943";
shapes = (
{
closed = 1;
nodes = (
(207,97,l),
(360,218,ls),
(474,308,o),
(589,403,o),
(589,545,cs),
(589,649,o),
(513,710,o),
(393,710,cs),
(241,710,o),
(136,609,o),
(121,433,c),
(82,469,l),
(266,469,l),
(217,432,l),
(225,549,o),
(280,624,o),
(377,624,cs),
(445,624,o),
(488,587,o),
(488,528,cs),
(488,419,o),
(371,336,o),
(287,267,cs),
(66,89,l),
(50,0,l),
(501,0,l),
(517,89,l),
(205,89,l)
);
}
);
width = 630;
}
);
unicode = 50;
},
{
glyphname = three;
lastChange = "2024-07-26 14:30:06 +0000";
layers = (
{
layerId = m01;
shapes = (
{
closed = 1;
nodes = (
(446,362,l),
(502,388,o),
(546,440,o),
(546,517,cs),
(546,632,o),
(462,710,o),
(326,710,cs),
(181,710,o),
(81,612,o),
(95,473,c),
(51,503,l),
(235,503,l),
(193,469,l),
(182,568,o),
(238,626,o),
(325,626,cs),
(400,626,o),
(448,580,o),
(448,514,cs),
(448,448,o),
(407,400,o),
(327,400,cs),
(270,400,l),
(270,314,l),
(318,314,ls),
(408,314,o),
(455,265,o),
(455,194,cs),
(455,127,o),
(409,74,o),
(316,74,cs),
(225,74,o),
(170,134,o),
(172,226,c),
(217,195,l),
(33,195,l),
(76,227,l),
(66,75,o),
(171,-10,o),
(314,-10,cs),
(455,-10,o),
(554,61,o),
(554,200,cs),
(554,283,o),
(502,332,o),
(446,354,c)
);
}
);
width = 630;
},
{
layerId = "941849C8-D0D1-40F0-8537-D2B5B3A46943";
shapes = (
{
closed = 1;
nodes = (
(469,362,l),
(562,401,o),
(600,472,o),
(600,543,cs),
(600,647,o),
(517,710,o),
(390,710,cs),
(245,710,o),
(148,612,o),
(138,473,c),
(99,503,l),
(283,503,l),
(235,469,l),
(241,568,o),
(298,626,o),
(385,626,cs),
(459,626,o),
(500,586,o),
(500,528,cs),
(500,470,o),
(459,400,o),
(357,400,cs),
(300,400,l),
(285,314,l),
(323,314,ls),
(413,314,o),
(450,268,o),
(450,200,cs),
(450,132,o),
(399,74,o),
(303,74,cs),
(212,74,o),
(153,134,o),
(171,226,c),
(211,195,l),
(27,195,l),
(75,227,l),
(39,75,o),
(154,-10,o),
(297,-10,cs),
(450,-10,o),
(552,74,o),
(552,214,cs),
(552,288,o),
(513,335,o),
(468,354,c)
);
}
);
width = 630;
}
);
unicode = 51;
},
{
glyphname = four;
lastChange = "2024-07-26 14:30:06 +0000";
layers = (
{
layerId = m01;
shapes = (
{
closed = 1;
nodes = (
(469,0,l),
(469,700,l),
(369,700,l),
(52,228,l),
(52,140,l),
(573,140,l),
(573,223,l),
(153,223,l),
(369,548,l),
(377,548,l),
(377,0,l)
);
}
);
width = 630;
},
{
layerId = "941849C8-D0D1-40F0-8537-D2B5B3A46943";
shapes = (
{
closed = 1;
nodes = (
(426,0,l),
(550,700,l),
(450,700,l),
(49,228,l),
(34,140,l),
(555,140,l),
(570,223,l),
(150,223,l),
(423,548,l),
(431,548,l),
(334,0,l)
);
}
);
width = 630;
}
);
unicode = 52;
},
{
glyphname = five;
lastChange = "2024-07-26 14:30:06 +0000";
layers = (
{
layerId = m01;
shapes = (
{
closed = 1;
nodes = (
(452,-10,o),
(556,88,o),
(556,234,cs),
(556,379,o),
(460,465,o),
(348,465,cs),
(287,465,o),
(228,448,o),
(194,412,c),
(186,412,l),
(209,615,l),
(510,615,l),
(510,701,l),
(131,701,l),
(84,299,l),
(171,299,l),
(200,357,o),
(249,384,o),
(315,384,cs),
(401,384,o),
(457,315,o),
(457,229,cs),
(457,147,o),
(406,73,o),
(310,73,cs),
(217,73,o),
(167,133,o),
(167,224,c),
(217,195,l),
(30,195,l),
(73,224,l),
(73,75,o),
(166,-10,o),
(310,-10,cs)
);
}
);
width = 630;
},
{
layerId = "941849C8-D0D1-40F0-8537-D2B5B3A46943";
shapes = (
{
closed = 1;
nodes = (
(456,-10,o),
(561,94,o),
(561,266,cs),
(561,389,o),
(479,465,o),
(363,465,cs),
(309,465,o),
(266,448,o),
(226,412,c),
(218,412,l),
(277,615,l),
(578,615,l),
(593,701,l),
(214,701,l),
(96,299,l),
(183,299,l),
(222,357,o),
(266,384,o),
(332,384,cs),
(408,384,o),
(459,327,o),
(459,246,cs),
(459,163,o),
(402,73,o),
(292,73,cs),
(199,73,o),
(150,133,o),
(166,224,c),
(210,195,l),
(23,195,l),
(72,224,l),
(45,75,o),
(145,-10,o),
(289,-10,cs)
);
}
);
width = 630;
}
);
unicode = 53;
},
{
glyphname = six;
lastChange = "2024-07-26 14:30:06 +0000";
layers = (
{
layerId = m01;
shapes = (
{
closed = 1;
nodes = (
(175,362,l),
(175,525,o),
(223,630,o),
(343,630,cs),
(426,630,o),
(465,571,o),
(468,496,c),
(420,515,l),
(607,515,l),
(564,496,l),
(561,619,o),
(488,710,o),
(343,710,cs),
(164,710,o),
(74,562,o),
(74,312,cs),
(74,84,o),
(180,-10,o),
(329,-10,cs),
(459,-10,o),
(568,66,o),
(568,222,cs),
(568,369,o),
(477,443,o),
(350,443,cs),
(276,443,o),
(213,411,o),
(183,362,c)
);
},
{
closed = 1;
nodes = (
(243,73,o),
(186,132,o),
(186,218,cs),
(186,304,o),
(243,363,o),
(329,363,cs),
(415,363,o),
(470,304,o),
(470,218,cs),
(470,132,o),
(415,73,o),
(329,73,cs)
);
}
);
width = 630;
},
{
layerId = "941849C8-D0D1-40F0-8537-D2B5B3A46943";
shapes = (
{
closed = 1;
nodes = (
(202,368,l),
(229,528,o),
(294,630,o),
(409,630,cs),
(495,630,o),
(524,576,o),
(516,491,c),
(472,512,l),
(658,506,l),
(612,488,l),
(633,612,o),
(568,710,o),
(419,710,cs),
(179,710,o),
(82,410,o),
(82,220,cs),
(82,59,o),
(171,-9,o),
(302,-9,cs),
(469,-9,o),
(572,117,o),
(572,269,cs),
(572,382,o),
(496,443,o),
(382,443,cs),
(318,443,o),
(252,421,o),
(210,367,c)
);
},
{
closed = 1;
nodes = (
(231,74,o),
(183,122,o),
(183,193,cs),
(183,276,o),
(244,363,o),
(348,363,cs),
(427,363,o),
(472,317,o),
(472,246,cs),
(472,159,o),
(412,74,o),
(309,74,cs)
);
}
);
width = 630;
},
{
associatedMasterId = "941849C8-D0D1-40F0-8537-D2B5B3A46943";
layerId = "93E569A5-598F-474A-9A2C-98DE834EE4F1";
name = "26 juil. 24 à 16:05";
shapes = (
{
closed = 1;
nodes = (
(185,353,l),
(224,525,o),
(290,630,o),
(410,630,cs),
(493,630,o),
(522,571,o),
(512,496,c),
(467,515,l),
(654,515,l),
(608,496,l),
(626,619,o),
(557,710,o),
(414,710,cs),
(169,710,o),
(78,440,o),
(78,243,cs),
(78,58,o),
(172,-10,o),
(299,-10,cs),
(469,-10,o),
(568,112,o),
(568,265,cs),
(568,377,o),
(493,443,o),
(382,443,cs),
(308,443,o),
(242,411,o),
(193,353,c)
);
},
{
closed = 1;
nodes = (
(233,73,o),
(178,118,o),
(178,187,cs),
(178,273,o),
(242,363,o),
(349,363,cs),
(424,363,o),
(468,318,o),
(468,250,cs),
(468,162,o),
(414,73,o),
(308,73,cs)
);
}
);
width = 630;
}
);
unicode = 54;
},
{
glyphname = seven;
lastChange = "2024-07-26 14:30:06 +0000";
layers = (
{
layerId = m01;
shapes = (
{
closed = 1;
nodes = (
(438,606,l),
(319,492,o),
(233,310,o),
(233,36,cs),
(233,0,l),
(329,0,l),
(329,30,ls),
(329,311,o),
(375,444,o),
(550,614,c),
(550,700,l),
(79,700,l),
(79,614,l),
(438,614,l)
);
}
);
width = 630;
},
{
layerId = "941849C8-D0D1-40F0-8537-D2B5B3A46943";
shapes = (
{
closed = 1;
nodes = (
(500,606,l),
(361,492,o),
(243,310,o),
(195,36,cs),
(188,0,l),
(284,0,l),
(290,30,ls),
(339,311,o),
(409,444,o),
(614,614,c),
(629,700,l),
(158,700,l),
(143,614,l),
(502,614,l)
);
}
);
width = 630;
}
);
unicode = 55;
},
{
glyphname = eight;
lastChange = "2024-07-26 14:30:06 +0000";
layers = (
{
layerId = m01;
shapes = (
{
closed = 1;
nodes = (
(466,-10,o),
(568,62,o),
(568,188,cs),
(568,263,o),
(533,324,o),
(444,362,c),
(444,370,l),
(520,404,o),
(548,461,o),
(548,525,cs),
(548,635,o),
(456,710,o),
(315,710,cs),
(174,710,o),
(82,635,o),
(82,525,cs),
(82,462,o),
(109,404,o),
(185,370,c),
(185,362,l),
(96,324,o),
(62,262,o),
(62,188,cs),
(62,62,o),
(164,-10,o),
(315,-10,cs)
);
},
{
closed = 1;
nodes = (
(213,73,o),
(160,127,o),
(160,200,cs),
(160,270,o),
(213,324,o),
(315,324,cs),
(417,324,o),
(470,270,o),
(470,200,cs),
(470,127,o),
(417,73,o),
(315,73,cs)
);
},
{
closed = 1;
nodes = (
(229,407,o),
(180,451,o),
(180,517,cs),
(180,583,o),
(229,627,o),
(315,627,cs),
(401,627,o),
(450,583,o),
(450,517,cs),
(450,451,o),
(401,407,o),
(315,407,cs)
);
}
);
width = 630;
},
{
layerId = "941849C8-D0D1-40F0-8537-D2B5B3A46943";
shapes = (
{
closed = 1;
nodes = (
(433,-10,o),
(561,72,o),
(561,217,cs),
(561,275,o),
(532,323,o),
(464,357,c),
(466,365,l),
(549,397,o),
(600,464,o),
(600,549,cs),
(600,647,o),
(518,710,o),
(384,710,cs),
(245,710,o),
(130,628,o),
(130,499,cs),
(130,449,o),
(152,404,o),
(209,375,c),
(207,367,l),
(106,330,o),
(51,253,o),
(51,159,cs),
(51,52,o),
(144,-10,o),
(286,-10,cs)
);
},
{
closed = 1;
nodes = (
(198,73,o),
(152,119,o),
(152,182,cs),
(152,260,o),
(213,324,o),
(319,324,cs),
(417,324,o),
(464,278,o),
(464,217,cs),
(464,132,o),
(391,73,o),
(293,73,cs)
);
},
{
closed = 1;
nodes = (
(271,407,o),
(227,445,o),
(227,502,cs),
(227,573,o),
(286,627,o),
(375,627,cs),
(457,627,o),
(500,589,o),
(500,533,cs),
(500,459,o),
(439,407,o),
(353,407,cs)
);
}
);
width = 630;
}
);
unicode = 56;
},
{
glyphname = nine;
lastChange = "2024-07-26 14:30:06 +0000";
layers = (
{
layerId = m01;
shapes = (
{
closed = 1;
nodes = (
(486,344,l),
(486,175,o),
(458,70,o),
(328,70,cs),
(235,70,o),
(196,129,o),
(193,204,c),
(241,185,l),
(54,185,l),
(97,204,l),
(100,81,o),
(173,-10,o),
(328,-10,cs),
(517,-10,o),
(587,138,o),
(587,388,cs),
(587,616,o),
(481,710,o),
(332,710,cs),
(202,710,o),
(93,634,o),
(93,481,cs),
(93,343,o),
(184,263,o),
(311,263,cs),
(385,263,o),
(448,295,o),
(478,344,c)
);
},
{
closed = 1;
nodes = (
(418,627,o),
(475,568,o),
(475,485,cs),
(475,402,o),
(418,343,o),
(332,343,cs),
(246,343,o),
(191,402,o),
(191,485,cs),
(191,568,o),
(246,627,o),
(332,627,cs)
);
}
);
width = 630;
},
{
layerId = "941849C8-D0D1-40F0-8537-D2B5B3A46943";
shapes = (
{
closed = 1;
nodes = (
(506,333,l),
(479,173,o),
(429,71,o),
(314,71,cs),
(228,71,o),
(184,125,o),
(192,210,c),
(236,189,l),
(50,195,l),
(96,213,l),
(75,89,o),
(165,-9,o),
(311,-9,cs),
(535,-9,o),
(626,251,o),
(626,481,cs),
(626,642,o),
(537,710,o),
(406,710,cs),
(239,710,o),
(136,584,o),
(136,432,cs),
(136,319,o),
(212,258,o),
(326,258,cs),
(390,258,o),
(456,280,o),
(498,334,c)
);
},
{
closed = 1;
nodes = (
(477,627,o),
(525,579,o),
(525,508,cs),
(525,425,o),
(464,338,o),
(360,338,cs),
(281,338,o),
(236,384,o),
(236,455,cs),
(236,542,o),
(296,627,o),
(399,627,cs)
);
}
);
width = 630;
}
);
unicode = 57;
},
{
glyphname = zero.dnom;
lastChange = "2024-08-08 10:30:01 +0000";
layers = (
{
layerId = m01;
shapes = (
{
closed = 1;
nodes = (
(405,-10,o),
(462,49,o),
(462,165,cs),
(462,281,o),
(405,340,o),
(315,340,cs),
(225,340,o),
(168,281,o),
(168,165,cs),
(168,49,o),
(225,-10,o),
(315,-10,cs)
);
},
{
closed = 1;
nodes = (
(259,46,o),
(234,91,o),
(234,165,cs),
(234,239,o),
(259,284,o),
(315,284,cs),
(371,284,o),
(396,239,o),
(396,165,cs),
(396,91,o),
(371,46,o),
(315,46,cs)
);
},
{
closed = 1;
nodes = (
(403,279,l),
(360,304,l),
(228,53,l),
(270,25,l)
);
}
);
width = 630;
},
{
associatedMasterId = m01;
layerId = "357B6C05-DCA7-4054-B11E-12C0CB9DC9B0";
name = "9 juil. 24 à 17:17";
shapes = (
{
closed = 1;
nodes = (
(476,-10,o),
(578,112,o),
(578,350,cs),
(578,588,o),
(476,710,o),
(315,710,cs),
(154,710,o),
(52,588,o),
(52,350,cs),
(52,112,o),
(154,-10,o),
(315,-10,cs)
);
},
{
closed = 1;
nodes = (
(199,73,o),
(150,177,o),
(150,350,cs),
(150,523,o),
(199,627,o),
(315,627,cs),
(431,627,o),
(480,523,o),
(480,350,cs),
(480,177,o),
(431,73,o),
(315,73,cs)
);
},
{
closed = 1;
nodes = (
(354,280,o),
(385,310,o),
(385,350,cs),
(385,388,o),
(354,420,o),
(315,420,cs),
(276,420,o),
(245,388,o),
(245,350,cs),
(245,310,o),
(276,280,o),
(315,280,cs)
);
}
);
width = 630;
},
{
layerId = "941849C8-D0D1-40F0-8537-D2B5B3A46943";
shapes = (
{
closed = 1;
nodes = (
(396,-10,o),
(451,98,o),
(451,205,cs),
(451,293,o),
(401,340,o),
(318,340,cs),
(203,340,o),
(149,229,o),
(149,126,cs),
(149,37,o),
(200,-10,o),
(283,-10,cs)
);
},
{
closed = 1;
nodes = (
(237,46,o),
(216,77,o),
(216,128,cs),
(216,176,o),
(234,284,o),
(314,284,cs),
(363,284,o),
(385,253,o),
(385,200,cs),
(385,153,o),
(366,46,o),
(287,46,cs)
);
},
{
closed = 1;
nodes = (
(408,273,l),
(370,301,l),
(194,59,l),
(231,28,l)
);
}
);
width = 630;
},
{
associatedMasterId = "941849C8-D0D1-40F0-8537-D2B5B3A46943";
layerId = "A8B1E5CE-22C0-450C-943E-AFBCFDDCB64B";
name = "9 juil. 24 à 17:17";
shapes = (
{
closed = 1;
nodes = (
(476,-10,o),
(578,112,o),
(578,350,cs),
(578,588,o),
(476,710,o),
(315,710,cs),
(154,710,o),
(52,588,o),
(52,350,cs),
(52,112,o),
(154,-10,o),
(315,-10,cs)
);
},
{
closed = 1;
nodes = (
(199,73,o),
(150,177,o),
(150,350,cs),
(150,523,o),
(199,627,o),
(315,627,cs),
(431,627,o),
(480,523,o),
(480,350,cs),
(480,177,o),
(431,73,o),
(315,73,cs)
);
},
{
closed = 1;
nodes = (
(354,280,o),
(385,310,o),
(385,350,cs),
(385,388,o),
(354,420,o),
(315,420,cs),
(276,420,o),
(245,388,o),
(245,350,cs),
(245,310,o),
(276,280,o),
(315,280,cs)
);
}
);
width = 630;
}
);
},
{
glyphname = one.dnom;
lastChange = "2024-08-12 09:41:05 +0000";
layers = (
{
layerId = m01;
shapes = (
{
closed = 1;
nodes = (
(435,0,l),
(435,60,l),
(346,60,l),
(347,340,l),
(287,340,l),
(195,270,l),
(195,201,l),
(279,264,l),
(283,264,l),
(283,60,l),
(195,60,l),
(195,0,l)
);
}
);
width = 630;
},
{
layerId = "941849C8-D0D1-40F0-8537-D2B5B3A46943";
shapes = (
{
closed = 1;
nodes = (
(390,0,l),
(401,60,l),
(312,60,l),
(362,340,l),
(302,340,l),
(198,270,l),
(185,201,l),
(281,264,l),
(285,264,l),
(249,60,l),
(161,60,l),
(150,0,l)
);
}
);
width = 630;
}
);
},
{
glyphname = two.dnom;
lastChange = "2024-08-12 09:39:11 +0000";
layers = (
{
layerId = m01;
shapes = (
{
closed = 1;
nodes = (
(293,64,l),
(359,111,ls),
(417,152,o),
(441,185,o),
(441,242,cs),
(441,306,o),
(392,345,o),
(319,345,cs),
(240,345,o),
(179,296,o),
(188,200,c),
(163,218,l),
(281,218,l),
(258,200,l),
(252,257,o),
(276,285,o),
(319,285,cs),
(355,285,o),
(375,263,o),
(375,233,cs),
(375,196,o),
(350,177,o),
(292,134,cs),
(192,60,l),
(192,0,l),
(444,0,l),
(444,60,l),
(293,60,l)
);
}
);
width = 630;
},
{
layerId = "941849C8-D0D1-40F0-8537-D2B5B3A46943";
shapes = (
{
closed = 1;
nodes = (
(269,64,l),
(342,111,ls),
(401,149,o),
(440,180,o),
(440,252,cs),
(440,313,o),
(389,345,o),
(324,345,cs),
(245,345,o),
(178,301,o),
(178,200,c),
(156,218,l),
(274,218,l),
(248,200,l),
(244,262,o),
(279,285,o),
(322,285,cs),
(354,285,o),
(373,268,o),
(373,239,cs),
(373,210,o),
(350,187,o),
(305,157,cs),
(157,60,l),
(147,0,l),
(399,0,l),
(409,60,l),
(268,60,l)
);
}
);
width = 630;
}
);
},
{
glyphname = three.dnom;
lastChange = "2024-08-12 09:39:56 +0000";
layers = (
{
layerId = m01;
shapes = (
{
closed = 1;
nodes = (
(398,171,l),
(420,183,o),
(444,209,o),
(444,246,cs),
(444,302,o),
(398,340,o),
(323,340,cs),
(244,340,o),
(187,292,o),
(195,215,c),
(171,229,l),
(291,229,l),
(268,213,l),
(258,255,o),
(283,282,o),
(323,282,cs),
(353,282,o),
(378,266,o),
(378,237,cs),
(378,210,o),
(357,196,o),
(322,196,cs),
(290,196,l),
(290,140,l),
(326,140,ls),
(366,140,o),
(382,122,o),
(382,95,cs),
(382,63,o),
(355,47,o),
(319,47,cs),
(279,47,o),
(252,69,o),
(253,115,c),
(277,100,l),
(157,100,l),
(182,115,l),
(176,38,o),
(235,-10,o),
(315,-10,cs),
(392,-10,o),
(448,25,o),
(448,92,cs),
(448,134,o),
(424,158,o),
(398,167,c)
);
}
);
width = 630;
},
{
layerId = "941849C8-D0D1-40F0-8537-D2B5B3A46943";
shapes = (
{
closed = 1;
nodes = (
(418,166,l),
(447,179,o),
(478,209,o),
(478,254,cs),
(478,304,o),
(436,339,o),
(363,339,cs),
(289,339,o),
(228,295,o),
(222,221,c),
(201,233,l),
(319,233,l),
(294,215,l),
(286,237,o),
(312,281,o),
(359,281,cs),
(388,281,o),
(411,265,o),
(411,239,cs),
(411,205,o),
(382,195,o),
(348,195,cs),
(316,195,l),
(306,139,l),
(342,139,ls),
(376,139,o),
(390,123,o),
(390,102,cs),
(390,65,o),
(361,46,o),
(325,46,cs),
(273,46,o),
(255,79,o),
(264,118,c),
(286,106,l),
(167,106,l),
(195,121,l),
(176,33,o),
(227,-10,o),
(318,-10,cs),
(397,-10,o),
(455,34,o),
(455,98,cs),
(455,130,o),
(435,151,o),
(418,162,c)
);
}
);
width = 630;
}
);
},
{
glyphname = four.dnom;
lastChange = "2024-08-08 10:34:07 +0000";
layers = (
{
layerId = m01;
shapes = (
{
closed = 1;
nodes = (
(400,0,l),
(400,340,l),
(332,340,l),
(167,126,l),
(167,68,l),
(458,68,l),
(458,123,l),
(230,123,l),
(332,256,l),
(337,256,l),
(337,0,l)
);
}
);
width = 630;
},
{
layerId = "941849C8-D0D1-40F0-8537-D2B5B3A46943";
shapes = (
{
closed = 1;
nodes = (
(358,0,l),
(418,340,l),
(350,340,l),
(147,126,l),
(137,68,l),
(428,68,l),
(438,123,l),
(218,123,l),
(332,241,l),
(337,241,l),
(295,0,l)
);
}
);
width = 630;
}
);
},
{
glyphname = five.dnom;
lastChange = "2024-08-08 10:37:36 +0000";
layers = (
{
layerId = m01;
shapes = (
{
closed = 1;
nodes = (
(388,-10,o),
(450,28,o),
(450,109,cs),
(450,181,o),
(402,221,o),
(338,221,cs),
(304,221,o),
(281,210,o),
(263,197,c),
(259,197,l),
(269,276,l),
(424,276,l),
(424,336,l),
(213,336,l),
(185,129,l),
(253,129,l),
(259,150,o),
(287,169,o),
(321,169,cs),
(354,169,o),
(384,146,o),
(384,107,cs),
(384,67,o),
(356,47,o),
(318,47,cs),
(280,47,o),
(256,71,o),
(254,104,c),
(282,90,l),
(158,90,l),
(181,104,l),
(181,31,o),
(236,-10,o),
(317,-10,cs)
);
}
);
width = 630;
},
{
layerId = "941849C8-D0D1-40F0-8537-D2B5B3A46943";
shapes = (
{
closed = 1;
nodes = (
(368,-10,o),
(425,46,o),
(425,120,cs),
(425,186,o),
(381,221,o),
(328,221,cs),
(294,221,o),
(272,210,o),
(252,197,c),
(248,197,l),
(272,276,l),
(427,276,l),
(438,336,l),
(227,336,l),
(162,129,l),
(230,129,l),
(240,150,o),
(264,169,o),
(298,169,cs),
(329,169,o),
(358,148,o),
(358,116,cs),
(358,76,o),
(332,47,o),
(284,47,cs),
(246,47,o),
(223,71,o),
(227,104,c),
(252,90,l),
(128,90,l),
(154,104,l),
(141,31,o),
(198,-10,o),
(279,-10,cs)
);
}
);
width = 630;
}
);
},
{
glyphname = six.dnom;
lastChange = "2024-08-08 10:37:33 +0000";
layers = (
{
layerId = m01;
shapes = (
{
closed = 1;
nodes = (
(245,174,l),
(245,235,o),
(269,282,o),
(320,282,cs),
(355,282,o),
(378,263,o),
(379,231,c),
(352,238,l),
(475,238,l),
(451,231,l),
(447,294,o),
(402,340,o),
(326,340,cs),
(233,340,o),
(177,268,o),
(177,165,cs),
(177,37,o),
(236,-10,o),
(320,-10,cs),
(392,-10,o),
(453,30,o),
(453,106,cs),
(453,177,o),
(399,210,o),
(331,210,cs),
(300,210,o),
(267,195,o),
(250,174,c)
);
},
{
closed = 1;
nodes = (
(279,39,o),
(255,65,o),
(255,101,cs),
(255,137,o),
(279,162,o),
(318,162,cs),
(359,162,o),
(382,137,o),
(382,101,cs),
(382,65,o),
(359,39,o),
(318,39,cs)
);
}
);
width = 630;
},
{
layerId = "941849C8-D0D1-40F0-8537-D2B5B3A46943";
shapes = (
{
closed = 1;
nodes = (
(233,178,l),
(243,237,o),
(273,282,o),
(321,282,cs),
(361,282,o),
(376,259,o),
(375,228,c),
(350,237,l),
(472,237,l),
(447,224,l),
(448,272,o),
(429,340,o),
(330,340,cs),
(205,340,o),
(158,220,o),
(158,128,cs),
(158,36,o),
(209,-9,o),
(285,-9,cs),
(364,-9,o),
(429,33,o),
(429,118,cs),
(429,177,o),
(383,210,o),
(321,210,cs),
(290,210,o),
(257,197,o),
(238,178,c)
);
},
{
closed = 1;
nodes = (
(250,40,o),
(229,61,o),
(229,91,cs),
(229,134,o),
(257,162,o),
(298,162,cs),
(337,162,o),
(357,141,o),
(357,110,cs),
(357,70,o),
(329,40,o),
(288,40,cs)
);
}
);
width = 630;
},
{
associatedMasterId = "941849C8-D0D1-40F0-8537-D2B5B3A46943";
layerId = "93E569A5-598F-474A-9A2C-98DE834EE4F1";
name = "26 juil. 24 à 16:05";
shapes = (
{
closed = 1;
nodes = (
(185,353,l),
(224,525,o),
(290,630,o),
(410,630,cs),
(493,630,o),
(522,571,o),
(512,496,c),
(467,515,l),
(654,515,l),
(608,496,l),
(626,619,o),
(557,710,o),
(414,710,cs),
(169,710,o),
(78,440,o),
(78,243,cs),
(78,58,o),
(172,-10,o),
(299,-10,cs),
(469,-10,o),
(568,112,o),
(568,265,cs),
(568,377,o),
(493,443,o),
(382,443,cs),
(308,443,o),
(242,411,o),
(193,353,c)
);
},
{
closed = 1;
nodes = (
(233,73,o),
(178,118,o),
(178,187,cs),
(178,273,o),
(242,363,o),
(349,363,cs),
(424,363,o),
(468,318,o),
(468,250,cs),
(468,162,o),
(414,73,o),
(308,73,cs)
);
}
);
width = 630;
}
);
},
{
glyphname = seven.dnom;
lastChange = "2024-08-08 10:37:21 +0000";
layers = (
{
layerId = m01;
shapes = (
{
closed = 1;
nodes = (
(375,277,l),
(316,221,o),
(276,131,o),
(276,17,cs),
(276,0,l),
(341,0,l),
(341,15,ls),
(341,121,o),
(368,198,o),
(446,280,c),
(446,340,l),
(183,340,l),
(183,280,l),
(375,280,l)
);
}
);
width = 630;
},
{
layerId = "941849C8-D0D1-40F0-8537-D2B5B3A46943";
shapes = (
{
closed = 1;
nodes = (
(380,277,l),
(311,221,o),
(252,131,o),
(232,17,cs),
(229,0,l),
(299,0,l),
(302,15,ls),
(320,121,o),
(359,198,o),
(451,280,c),
(462,340,l),
(199,340,l),
(188,280,l),
(380,280,l)
);
}
);
width = 630;
}
);
},
{
glyphname = eight.dnom;
lastChange = "2024-08-08 10:39:18 +0000";
layers = (
{
layerId = m01;
shapes = (
{
closed = 1;
nodes = (
(399,-10,o),
(456,29,o),
(456,90,cs),
(456,127,o),
(437,152,o),
(397,171,c),
(397,175,l),
(430,191,o),
(445,217,o),
(445,248,cs),
(445,301,o),
(394,340,o),
(315,340,cs),
(236,340,o),
(185,301,o),
(185,248,cs),
(185,217,o),
(200,191,o),
(233,175,c),
(233,171,l),
(193,152,o),
(174,126,o),
(174,90,cs),
(174,29,o),
(231,-10,o),
(315,-10,cs)
);
},
{
closed = 1;
nodes = (
(271,40,o),
(249,64,o),
(249,94,cs),
(249,122,o),
(271,145,o),
(315,145,cs),
(360,145,o),
(381,122,o),
(381,94,cs),
(381,64,o),
(360,40,o),
(315,40,cs)
);
},
{
closed = 1;
nodes = (
(278,198,o),
(256,217,o),
(256,245,cs),
(256,272,o),
(278,292,o),
(315,292,cs),
(352,292,o),
(374,272,o),
(374,245,cs),
(374,217,o),
(352,198,o),
(315,198,cs)
);
}
);
width = 630;
},
{
layerId = "941849C8-D0D1-40F0-8537-D2B5B3A46943";
shapes = (
{
closed = 1;
nodes = (
(365,-10,o),
(428,32,o),
(428,100,cs),
(428,128,o),
(412,149,o),
(382,167,c),
(382,171,l),
(423,187,o),
(444,217,o),
(444,254,cs),
(444,304,o),
(397,340,o),
(319,340,cs),
(239,340,o),
(184,298,o),
(184,240,cs),
(184,215,o),
(195,194,o),
(220,179,c),
(218,175,l),
(169,156,o),
(145,126,o),
(145,82,cs),
(145,28,o),
(197,-10,o),
(280,-10,cs)
);
},
{
closed = 1;
nodes = (
(241,40,o),
(220,62,o),
(220,89,cs),
(220,120,o),
(246,145,o),
(290,145,cs),
(333,145,o),
(353,126,o),
(353,102,cs),
(353,67,o),
(329,40,o),
(282,40,cs)
);
},
{
closed = 1;
nodes = (
(274,198,o),
(254,216,o),
(254,241,cs),
(254,274,o),
(284,292,o),
(317,292,cs),
(353,292,o),
(373,274,o),
(373,251,cs),
(373,219,o),
(347,198,o),
(311,198,cs)
);
}
);
width = 630;
}
);
},
{
glyphname = nine.dnom;
lastChange = "2024-08-08 10:38:47 +0000";
layers = (
{
layerId = m01;
shapes = (
{
closed = 1;
nodes = (
(429,-10,o),
(475,62,o),
(475,165,cs),
(475,293,o),
(416,340,o),
(332,340,cs),
(260,340,o),
(199,300,o),
(199,224,cs),
(199,153,o),
(253,120,o),
(321,120,cs),
(352,120,o),
(385,135,o),
(402,156,c),
(407,156,l),
(407,95,o),
(393,48,o),
(333,48,cs),
(297,48,o),
(277,67,o),
(273,99,c),
(300,92,l),
(177,92,l),
(201,99,l),
(205,36,o),
(250,-10,o),
(327,-10,cs)
);
},
{
closed = 1;
nodes = (
(293,168,o),
(270,193,o),
(270,229,cs),
(270,265,o),
(293,291,o),
(334,291,cs),
(373,291,o),
(397,265,o),
(397,229,cs),
(397,193,o),
(373,168,o),
(334,168,cs)
);
}
);
width = 630;
},
{
layerId = "941849C8-D0D1-40F0-8537-D2B5B3A46943";
shapes = (
{
closed = 1;
nodes = (
(401,-9,o),
(442,111,o),
(442,203,cs),
(442,295,o),
(391,340,o),
(315,340,cs),
(236,340,o),
(171,298,o),
(171,213,cs),
(171,154,o),
(217,121,o),
(279,121,cs),
(310,121,o),
(343,134,o),
(362,153,c),
(367,153,l),
(357,94,o),
(333,49,o),
(280,49,cs),
(245,49,o),
(224,70,o),
(225,103,c),
(250,94,l),
(128,94,l),
(153,107,l),
(152,39,o),
(195,-9,o),
(276,-9,cs)
);
},
{
closed = 1;
nodes = (
(263,169,o),
(243,190,o),
(243,221,cs),
(243,261,o),
(271,291,o),
(312,291,cs),
(350,291,o),
(371,270,o),
(371,240,cs),
(371,197,o),
(343,169,o),
(302,169,cs)
);
}
);
width = 630;
}
);
},
{
glyphname = zero.numr;
lastChange = "2024-08-08 10:42:57 +0000";
layers = (
{
layerId = m01;
shapes = (
{
pos = (0,370);
ref = zero.dnom;
}
);
width = 630;
},
{
associatedMasterId = m01;
layerId = "357B6C05-DCA7-4054-B11E-12C0CB9DC9B0";
name = "9 juil. 24 à 17:17";
shapes = (
{
closed = 1;
nodes = (
(476,-10,o),
(578,112,o),
(578,350,cs),
(578,588,o),
(476,710,o),
(315,710,cs),
(154,710,o),
(52,588,o),
(52,350,cs),
(52,112,o),
(154,-10,o),
(315,-10,cs)
);
},
{
closed = 1;
nodes = (
(199,73,o),
(150,177,o),
(150,350,cs),
(150,523,o),
(199,627,o),
(315,627,cs),
(431,627,o),
(480,523,o),
(480,350,cs),
(480,177,o),
(431,73,o),
(315,73,cs)
);
},
{
closed = 1;
nodes = (
(354,280,o),
(385,310,o),
(385,350,cs),
(385,388,o),
(354,420,o),
(315,420,cs),
(276,420,o),
(245,388,o),
(245,350,cs),
(245,310,o),
(276,280,o),
(315,280,cs)
);
}
);
width = 630;
},
{
layerId = "941849C8-D0D1-40F0-8537-D2B5B3A46943";
shapes = (
{
pos = (65,370);
ref = zero.dnom;
}
);
width = 630;
},
{
associatedMasterId = "941849C8-D0D1-40F0-8537-D2B5B3A46943";
layerId = "A8B1E5CE-22C0-450C-943E-AFBCFDDCB64B";
name = "9 juil. 24 à 17:17";
shapes = (
{
closed = 1;
nodes = (
(476,-10,o),
(578,112,o),
(578,350,cs),
(578,588,o),
(476,710,o),
(315,710,cs),
(154,710,o),
(52,588,o),
(52,350,cs),
(52,112,o),
(154,-10,o),
(315,-10,cs)
);
},
{
closed = 1;
nodes = (
(199,73,o),
(150,177,o),
(150,350,cs),
(150,523,o),
(199,627,o),
(315,627,cs),
(431,627,o),
(480,523,o),
(480,350,cs),
(480,177,o),
(431,73,o),
(315,73,cs)
);
},
{
closed = 1;
nodes = (
(354,280,o),
(385,310,o),
(385,350,cs),
(385,388,o),
(354,420,o),
(315,420,cs),
(276,420,o),
(245,388,o),
(245,350,cs),
(245,310,o),
(276,280,o),
(315,280,cs)
);
}
);
width = 630;
}
);
},
{
glyphname = six.numr;
lastChange = "2024-08-08 10:43:28 +0000";
layers = (
{
layerId = m01;
shapes = (
{
pos = (0,370);
ref = six.dnom;
}
);
width = 630;
},
{
layerId = "941849C8-D0D1-40F0-8537-D2B5B3A46943";
shapes = (
{
pos = (65,370);
ref = six.dnom;
}
);
width = 630;
},
{
associatedMasterId = "941849C8-D0D1-40F0-8537-D2B5B3A46943";
layerId = "93E569A5-598F-474A-9A2C-98DE834EE4F1";
name = "26 juil. 24 à 16:05";
shapes = (
{
closed = 1;
nodes = (
(185,353,l),
(224,525,o),
(290,630,o),
(410,630,cs),
(493,630,o),
(522,571,o),
(512,496,c),
(467,515,l),
(654,515,l),
(608,496,l),
(626,619,o),
(557,710,o),
(414,710,cs),
(169,710,o),
(78,440,o),
(78,243,cs),
(78,58,o),
(172,-10,o),
(299,-10,cs),
(469,-10,o),
(568,112,o),
(568,265,cs),
(568,377,o),
(493,443,o),
(382,443,cs),
(308,443,o),
(242,411,o),
(193,353,c)
);
},
{
closed = 1;
nodes = (
(233,73,o),
(178,118,o),
(178,187,cs),
(178,273,o),
(242,363,o),
(349,363,cs),
(424,363,o),
(468,318,o),
(468,250,cs),
(468,162,o),
(414,73,o),
(308,73,cs)
);
}
);
width = 630;
}
);
},
{
glyphname = fraction;
lastChange = "2024-08-08 10:48:45 +0000";
layers = (
{
layerId = m01;
shapes = (
{
closed = 1;
nodes = (
(0,0,l),
(630,612,l),
(630,700,l),
(0,88,l)
);
}
);
width = 630;
},
{
layerId = "941849C8-D0D1-40F0-8537-D2B5B3A46943";
shapes = (
{
closed = 1;
nodes = (
(-44,0,l),
(692,600,l),
(709,700,l),
(-26,100,l)
);
}
);
width = 630;
}
);
unicode = 8260;
},
{
glyphname = .notdef;
kernLeft = sixsuperior;
kernRight = seven.numr;
lastChange = "2024-07-26 14:41:04 +0000";
layers = (
{
associatedMasterId = m01;
layerId = "A5741CE7-906B-4EE4-B311-9E131446F528";
name = "Black Condensed";
shapes = (
{
closed = 1;
nodes = (
(481,497,o),
(429,420,o),
(372,345,c),
(372,585,l),
(429,585,o),
(486,584,o),
(543,576,c)
);
},
{
closed = 1;
nodes = (
(465,440,o),
(423,405,o),
(391,367,c),
(427,415,o),
(470,478,o),
(509,478,c),
(577,554,o),
(596,573,o),
(617,586,c),
(617,586,l),
(372,586,l),
(262,586,l),
(262,586,l),
(329,576,o),
(332,554,o),
(332,515,c),
(332,266,l),
(332,226,o),
(329,204,o),
(262,197,c),
(262,197,l),
(372,197,l),
(372,343,l),
(401,381,o),
(453,434,o),
(507,434,c),
(563,434,o),
(596,388,o),
(596,324,c),
(596,252,o),
(553,191,o),
(502,191,c),
(462,191,o),
(438,229,o),
(438,281,c),
(438,290,o),
(439,298,o),
(440,304,c),
(436,276,o),
(423,265,o),
(412,265,c),
(402,265,o),
(392,275,o),
(392,293,c),
(392,307,o),
(396,322,o),
(412,342,c),
(395,324,o),
(390,306,o),
(390,285,c),
(390,236,o),
(438,190,o),
(504,190,c),
(578,190,o),
(643,250,o),
(643,325,c),
(643,396,o),
(588,440,o),
(523,440,c)
);
},
{
closed = 1;
nodes = (
(224,-18,o),
(40,166,o),
(40,390,cs),
(40,617,o),
(223,801,o),
(450,801,cs),
(675,801,o),
(859,617,o),
(859,390,cs),
(859,166,o),
(675,-18,o),
(450,-18,cs)
);
}
);
userData = {
com.hugojourdan.ColorFlow = {
"0" = 0;
"1" = 0;
"10" = 0;
"11" = 0;
"2" = 0;
"3" = 0;
"4" = 0;
"5" = 0;
"6" = 0;
"7" = 0;
"8" = 0;
"9" = 0;
};
};
width = 899;
},
{
associatedMasterId = m01;
layerId = "9E6640B7-7FBE-494D-9943-AEE257E46523";
name = "Regular Condensed";
shapes = (
{
closed = 1;
nodes = (
(480,497,o),
(428,421,o),
(372,346,c),
(372,585,l),
(428,585,o),
(485,584,o),
(542,576,c)
);
},
{
closed = 1;
nodes = (
(464,441,o),
(422,406,o),
(391,368,c),
(426,416,o),
(469,478,o),
(508,478,c),
(576,554,o),
(595,573,o),
(616,586,c),
(616,586,l),
(372,586,l),
(262,586,l),
(262,586,l),
(329,576,o),
(332,554,o),
(332,515,c),
(332,267,l),
(332,227,o),
(329,205,o),
(262,198,c),
(262,198,l),
(372,198,l),
(372,344,l),
(400,382,o),
(452,435,o),
(506,435,c),
(562,435,o),
(595,389,o),
(595,325,c),
(595,253,o),
(552,192,o),
(501,192,c),
(461,192,o),
(437,230,o),
(437,282,c),
(437,291,o),
(438,299,o),
(439,305,c),
(435,277,o),
(422,266,o),
(411,266,c),
(401,266,o),
(392,276,o),
(392,294,c),
(392,308,o),
(396,323,o),
(411,343,c),
(395,325,o),
(390,307,o),
(390,286,c),
(390,237,o),
(437,191,o),
(503,191,c),
(577,191,o),
(642,251,o),
(642,326,c),
(642,397,o),
(587,441,o),
(522,441,c)
);
},
{
closed = 1;
nodes = (
(224,-17,o),
(40,167,o),
(40,391,cs),
(40,616,o),
(223,800,o),
(449,800,cs),
(673,800,o),
(857,616,o),
(857,391,cs),
(857,167,o),
(673,-17,o),
(449,-17,cs)
);
}
);
userData = {
com.hugojourdan.ColorFlow = {
"0" = 0;
"1" = 0;
"10" = 0;
"11" = 0;
"2" = 0;
"3" = 0;
"4" = 0;
"5" = 0;
"6" = 0;
"7" = 0;
"8" = 0;
"9" = 0;
};
};
width = 897;
},
{
layerId = m01;
shapes = (
{
closed = 1;
nodes = (
(340,431,o),
(299,372,o),
(257,315,c),
(257,497,l),
(299,497,o),
(344,497,o),
(387,491,c)
);
},
{
closed = 1;
nodes = (
(327,387,o),
(295,360,o),
(271,332,c),
(298,368,o),
(332,416,o),
(360,416,c),
(413,475,o),
(428,489,o),
(444,499,c),
(444,499,l),
(257,499,l),
(173,499,l),
(173,499,l),
(224,491,o),
(226,475,o),
(226,444,c),
(226,255,l),
(226,224,o),
(224,206,o),
(173,201,c),
(173,201,l),
(257,201,l),
(257,313,l),
(278,343,o),
(319,383,o),
(360,383,c),
(402,383,o),
(428,348,o),
(428,299,c),
(428,244,o),
(395,197,o),
(356,197,c),
(326,197,o),
(306,226,o),
(306,265,c),
(306,272,o),
(307,279,o),
(308,283,c),
(305,261,o),
(297,254,o),
(288,254,cs),
(280,254,o),
(274,261,o),
(274,275,cs),
(274,284,o),
(275,297,o),
(286,312,c),
(274,299,o),
(271,285,o),
(271,268,cs),
(271,231,o),
(306,196,o),
(358,196,cs),
(414,196,o),
(464,242,o),
(464,299,c),
(464,353,o),
(422,387,o),
(372,387,c)
);
},
{
closed = 1;
nodes = (
(143,36,o),
(1,177,o),
(1,349,cs),
(1,522,o),
(143,663,o),
(316,663,cs),
(488,663,o),
(630,522,o),
(630,349,cs),
(630,177,o),
(488,36,o),
(316,36,cs)
);
}
);
userData = {
com.hugojourdan.ColorFlow = {
"0" = 0;
"1" = 0;
"10" = 0;
"11" = 0;
"2" = 0;
"3" = 0;
"4" = 0;
"5" = 0;
"6" = 0;
"7" = 0;
"8" = 0;
"9" = 0;
};
};
width = 630;
},
{
associatedMasterId = "941849C8-D0D1-40F0-8537-D2B5B3A46943";
layerId = "AEAB43BC-11A1-47E4-8620-172AE06CE6F1";
name = "Black Condensed";
shapes = (
{
closed = 1;
nodes = (
(481,497,o),
(429,420,o),
(372,345,c),
(372,585,l),
(429,585,o),
(486,584,o),
(543,576,c)
);
},
{
closed = 1;
nodes = (
(465,440,o),
(423,405,o),
(391,367,c),
(427,415,o),
(470,478,o),
(509,478,c),
(577,554,o),
(596,573,o),
(617,586,c),
(617,586,l),
(372,586,l),
(262,586,l),
(262,586,l),
(329,576,o),
(332,554,o),
(332,515,c),
(332,266,l),
(332,226,o),
(329,204,o),
(262,197,c),
(262,197,l),
(372,197,l),
(372,343,l),
(401,381,o),
(453,434,o),
(507,434,c),
(563,434,o),
(596,388,o),
(596,324,c),
(596,252,o),
(553,191,o),
(502,191,c),
(462,191,o),
(438,229,o),
(438,281,c),
(438,290,o),
(439,298,o),
(440,304,c),
(436,276,o),
(423,265,o),
(412,265,c),
(402,265,o),
(392,275,o),
(392,293,c),
(392,307,o),
(396,322,o),
(412,342,c),
(395,324,o),
(390,306,o),
(390,285,c),
(390,236,o),
(438,190,o),
(504,190,c),
(578,190,o),
(643,250,o),
(643,325,c),
(643,396,o),
(588,440,o),
(523,440,c)
);
},
{
closed = 1;
nodes = (
(224,-18,o),
(40,166,o),
(40,390,cs),
(40,617,o),
(223,801,o),
(450,801,cs),
(675,801,o),
(859,617,o),
(859,390,cs),
(859,166,o),
(675,-18,o),
(450,-18,cs)
);
}
);
userData = {
com.hugojourdan.ColorFlow = {
"0" = 0;
"1" = 0;
"10" = 0;
"11" = 0;
"2" = 0;
"3" = 0;
"4" = 0;
"5" = 0;
"6" = 0;
"7" = 0;
"8" = 0;
"9" = 0;
};
};
width = 899;
},
{
associatedMasterId = "941849C8-D0D1-40F0-8537-D2B5B3A46943";
layerId = "9F831BB7-F556-4E6C-9FFB-4B46854DAB5D";
name = "Regular Condensed";
shapes = (
{
closed = 1;
nodes = (
(480,497,o),
(428,421,o),
(372,346,c),
(372,585,l),
(428,585,o),
(485,584,o),
(542,576,c)
);
},
{
closed = 1;
nodes = (
(464,441,o),
(422,406,o),
(391,368,c),
(426,416,o),
(469,478,o),
(508,478,c),
(576,554,o),
(595,573,o),
(616,586,c),
(616,586,l),
(372,586,l),
(262,586,l),
(262,586,l),
(329,576,o),
(332,554,o),
(332,515,c),
(332,267,l),
(332,227,o),
(329,205,o),
(262,198,c),
(262,198,l),
(372,198,l),
(372,344,l),
(400,382,o),
(452,435,o),
(506,435,c),
(562,435,o),
(595,389,o),
(595,325,c),
(595,253,o),
(552,192,o),
(501,192,c),
(461,192,o),
(437,230,o),
(437,282,c),
(437,291,o),
(438,299,o),
(439,305,c),
(435,277,o),
(422,266,o),
(411,266,c),
(401,266,o),
(392,276,o),
(392,294,c),
(392,308,o),
(396,323,o),
(411,343,c),
(395,325,o),
(390,307,o),
(390,286,c),
(390,237,o),
(437,191,o),
(503,191,c),
(577,191,o),
(642,251,o),
(642,326,c),
(642,397,o),
(587,441,o),
(522,441,c)
);
},
{
closed = 1;
nodes = (
(224,-17,o),
(40,167,o),
(40,391,cs),
(40,616,o),
(223,800,o),
(449,800,cs),
(673,800,o),
(857,616,o),
(857,391,cs),
(857,167,o),
(673,-17,o),
(449,-17,cs)
);
}
);
userData = {
com.hugojourdan.ColorFlow = {
"0" = 0;
"1" = 0;
"10" = 0;
"11" = 0;
"2" = 0;
"3" = 0;
"4" = 0;
"5" = 0;
"6" = 0;
"7" = 0;
"8" = 0;
"9" = 0;
};
};
width = 897;
},
{
layerId = "941849C8-D0D1-40F0-8537-D2B5B3A46943";
shapes = (
{
closed = 1;
nodes = (
(357,431,o),
(316,372,o),
(274,315,c),
(274,497,l),
(316,497,o),
(361,497,o),
(404,491,c)
);
},
{
closed = 1;
nodes = (
(344,387,o),
(312,360,o),
(288,332,c),
(315,368,o),
(349,416,o),
(377,416,c),
(430,475,o),
(445,489,o),
(461,499,c),
(461,499,l),
(274,499,l),
(190,499,l),
(190,499,l),
(241,491,o),
(243,475,o),
(243,444,c),
(243,255,l),
(243,224,o),
(241,206,o),
(190,201,c),
(190,201,l),
(274,201,l),
(274,313,l),
(295,343,o),
(336,383,o),
(377,383,c),
(419,383,o),
(445,348,o),
(445,299,c),
(445,244,o),
(412,197,o),
(373,197,c),
(343,197,o),
(323,226,o),
(323,265,c),
(323,272,o),
(324,279,o),
(325,283,c),
(322,261,o),
(314,254,o),
(305,254,cs),
(297,254,o),
(291,261,o),
(291,275,cs),
(291,284,o),
(292,297,o),
(303,312,c),
(291,299,o),
(288,285,o),
(288,268,cs),
(288,231,o),
(323,196,o),
(375,196,cs),
(431,196,o),
(481,242,o),
(481,299,c),
(481,353,o),
(439,387,o),
(389,387,c)
);
},
{
closed = 1;
nodes = (
(160,36,o),
(18,177,o),
(18,349,cs),
(18,522,o),
(160,663,o),
(333,663,cs),
(505,663,o),
(647,522,o),
(647,349,cs),
(647,177,o),
(505,36,o),
(333,36,cs)
);
}
);
userData = {
com.hugojourdan.ColorFlow = {
"0" = 0;
"1" = 0;
"10" = 0;
"11" = 0;
"2" = 0;
"3" = 0;
"4" = 0;
"5" = 0;
"6" = 0;
"7" = 0;
"8" = 0;
"9" = 0;
};
};
width = 630;
}
);
},
{
glyphname = period;
lastChange = "2024-07-26 14:30:06 +0000";
layers = (
{
anchors = (
{
name = _dot;
pos = (315,0);
}
);
layerId = m01;
shapes = (
{
closed = 1;
nodes = (
(354,-10,o),
(385,20,o),
(385,60,cs),
(385,98,o),
(354,130,o),
(315,130,cs),
(276,130,o),
(245,98,o),
(245,60,cs),
(245,20,o),
(276,-10,o),
(315,-10,cs)
);
}
);
width = 630;
},
{
anchors = (
{
name = _dot;
pos = (273,0);
}
);
layerId = "941849C8-D0D1-40F0-8537-D2B5B3A46943";
shapes = (
{
closed = 1;
nodes = (
(308,-10,o),
(345,19,o),
(353,60,cs),
(359,97,o),
(335,130,o),
(295,130,cs),
(257,130,o),
(219,99,o),
(213,60,cs),
(206,21,o),
(230,-10,o),
(270,-10,cs)
);
}
);
width = 630;
}
);
unicode = 46;
},
{
glyphname = comma;
lastChange = "2024-07-26 14:30:06 +0000";
layers = (
{
layerId = m01;
shapes = (
{
closed = 1;
nodes = (
(243,22,o),
(267,-2,o),
(292,-9,c),
(245,-134,l),
(293,-134,l),
(364,-11,ls),
(418,82,o),
(363,130,o),
(319,130,cs),
(278,130,o),
(243,102,o),
(243,60,cs)
);
}
);
width = 630;
},
{
layerId = "941849C8-D0D1-40F0-8537-D2B5B3A46943";
shapes = (
{
closed = 1;
nodes = (
(204,22,o),
(224,-2,o),
(248,-9,c),
(179,-134,l),
(227,-134,l),
(319,-11,ls),
(390,82,o),
(343,130,o),
(299,130,cs),
(258,130,o),
(218,102,o),
(211,60,cs)
);
}
);
width = 630;
}
);
unicode = 44;
},
{
glyphname = question;
lastChange = "2024-07-26 14:30:06 +0000";
layers = (
{
guides = (
{
locked = 1;
pos = (66,222);
}
);
layerId = m01;
shapes = (
{
ref = _question;
},
{
pos = (3,0);
ref = period;
}
);
width = 630;
},
{
associatedMasterId = m01;
guides = (
{
locked = 1;
pos = (66,222);
}
);
layerId = "F3F04027-7589-4378-AEDA-3B40ABBF9F51";
name = "10 juil. 24 à 09:46";
shapes = (
{
pos = (32,0);
ref = period;
},
{
closed = 1;
nodes = (
(385,222,l),
(385,315,o),
(542,355,o),
(542,505,cs),
(542,631,o),
(451,710,o),
(318,710,cs),
(174,710,o),
(74,609,o),
(90,433,c),
(45,469,l),
(229,469,l),
(186,432,l),
(174,547,o),
(221,622,o),
(319,622,cs),
(388,622,o),
(442,573,o),
(442,502,cs),
(442,374,o),
(291,359,o),
(291,222,c)
);
}
);
width = 630;
},
{
guides = (
{
locked = 1;
pos = (91,222);
}
);
layerId = "941849C8-D0D1-40F0-8537-D2B5B3A46943";
shapes = (
{
ref = _question;
},
{
pos = (11,0);
ref = period;
}
);
width = 639;
},
{
associatedMasterId = "941849C8-D0D1-40F0-8537-D2B5B3A46943";
guides = (
{
locked = 1;
pos = (66,222);
}
);
layerId = "9FDAF71B-0EFB-4F5C-A2E5-C280B0A29633";
name = "10 juil. 24 à 09:46";
shapes = (
{
pos = (32,0);
ref = period;
},
{
closed = 1;
nodes = (
(385,222,l),
(385,315,o),
(542,355,o),
(542,505,cs),
(542,631,o),
(451,710,o),
(318,710,cs),
(174,710,o),
(74,609,o),
(90,433,c),
(45,469,l),
(229,469,l),
(186,432,l),
(174,547,o),
(221,622,o),
(319,622,cs),
(388,622,o),
(442,573,o),
(442,502,cs),
(442,374,o),
(291,359,o),
(291,222,c)
);
}
);
width = 630;
}
);
unicode = 63;
},
{
glyphname = bullet;
lastChange = "2024-07-26 13:25:08 +0000";
layers = (
{
layerId = m01;
shapes = (
{
closed = 1;
nodes = (
(390,131,o),
(449,188,o),
(449,265,cs),
(449,338,o),
(390,399,o),
(315,399,cs),
(240,399,o),
(181,338,o),
(181,265,cs),
(181,188,o),
(240,131,o),
(315,131,cs)
);
}
);
width = 630;
},
{
layerId = "941849C8-D0D1-40F0-8537-D2B5B3A46943";
shapes = (
{
closed = 1;
nodes = (
(369,131,o),
(438,188,o),
(452,265,cs),
(465,338,o),
(417,399,o),
(342,399,cs),
(267,399,o),
(197,338,o),
(184,265,cs),
(170,188,o),
(219,131,o),
(294,131,cs)
);
}
);
width = 630;
}
);
unicode = 8226;
},
{
glyphname = asterisk;
lastChange = "2024-07-26 14:30:06 +0000";
layers = (
{
layerId = m01;
shapes = (
{
closed = 1;
nodes = (
(348,376,l),
(348,416,l),
(344,487,l),
(348,489,l),
(405,449,l),
(440,429,l),
(472,485,l),
(437,505,l),
(374,536,l),
(374,540,l),
(437,571,l),
(472,591,l),
(440,647,l),
(405,627,l),
(348,587,l),
(344,589,l),
(348,660,l),
(348,700,l),
(282,700,l),
(282,660,l),
(286,589,l),
(282,587,l),
(225,627,l),
(190,647,l),
(158,591,l),
(193,571,l),
(256,540,l),
(256,536,l),
(193,505,l),
(158,485,l),
(190,429,l),
(225,449,l),
(282,489,l),
(286,487,l),
(282,416,l),
(282,376,l)
);
}
);
width = 630;
},
{
associatedMasterId = m01;
layerId = "A2C8FB78-1349-478C-993A-A177F351D143";
name = "16 juil. 24 à 10:58";
shapes = (
{
closed = 1;
nodes = (
(358,376,l),
(358,416,l),
(353,538,l),
(358,660,l),
(358,700,l),
(293,700,l),
(293,660,l),
(298,538,l),
(293,416,l),
(293,376,l)
);
},
{
closed = 1;
nodes = (
(482,485,l),
(447,505,l),
(339,562,l),
(236,627,l),
(201,647,l),
(169,591,l),
(204,571,l),
(312,514,l),
(415,449,l),
(450,429,l)
);
},
{
closed = 1;
nodes = (
(236,449,l),
(339,514,l),
(447,571,l),
(482,591,l),
(450,647,l),
(415,627,l),
(312,562,l),
(204,505,l),
(169,485,l),
(201,429,l)
);
}
);
width = 630;
},
{
layerId = "941849C8-D0D1-40F0-8537-D2B5B3A46943";
shapes = (
{
closed = 1;
nodes = (
(371,376,l),
(378,416,l),
(387,487,l),
(391,489,l),
(441,449,l),
(473,429,l),
(515,485,l),
(483,505,l),
(426,536,l),
(426,540,l),
(495,571,l),
(533,591,l),
(511,647,l),
(473,627,l),
(409,587,l),
(405,589,l),
(422,660,l),
(429,700,l),
(363,700,l),
(356,660,l),
(347,589,l),
(343,587,l),
(293,627,l),
(261,647,l),
(219,591,l),
(251,571,l),
(308,540,l),
(308,536,l),
(239,505,l),
(201,485,l),
(223,429,l),
(261,449,l),
(325,489,l),
(329,487,l),
(312,416,l),
(305,376,l)
);
}
);
width = 630;
},
{
associatedMasterId = "941849C8-D0D1-40F0-8537-D2B5B3A46943";
layerId = "A48B9843-C200-4AA2-85AC-3694A819B183";
name = "16 juil. 24 à 10:58";
shapes = (
{
closed = 1;
nodes = (
(358,376,l),
(358,416,l),
(353,538,l),
(358,660,l),
(358,700,l),
(293,700,l),
(293,660,l),
(298,538,l),
(293,416,l),
(293,376,l)
);
},
{
closed = 1;
nodes = (
(482,485,l),
(447,505,l),
(339,562,l),
(236,627,l),
(201,647,l),
(169,591,l),
(204,571,l),
(312,514,l),
(415,449,l),
(450,429,l)
);
},
{
closed = 1;
nodes = (
(236,449,l),
(339,514,l),
(447,571,l),
(482,591,l),
(450,647,l),
(415,627,l),
(312,562,l),
(204,505,l),
(169,485,l),
(201,429,l)
);
}
);
width = 630;
}
);
unicode = 42;
},
{
glyphname = numbersign;
lastChange = "2024-07-26 14:30:06 +0000";
layers = (
{
layerId = m01;
shapes = (
{
closed = 1;
nodes = (
(406,0,l),
(514,700,l),
(431,700,l),
(323,0,l)
);
},
{
closed = 1;
nodes = (
(200,0,l),
(308,700,l),
(225,700,l),
(117,0,l)
);
},
{
closed = 1;
nodes = (
(575,426,l),
(586,500,l),
(90,500,l),
(79,426,l)
);
},
{
closed = 1;
nodes = (
(540,200,l),
(551,274,l),
(55,274,l),
(44,200,l)
);
}
);
width = 630;
},
{
layerId = "941849C8-D0D1-40F0-8537-D2B5B3A46943";
shapes = (
{
closed = 1;
nodes = (
(360,0,l),
(592,700,l),
(509,700,l),
(277,0,l)
);
},
{
closed = 1;
nodes = (
(154,0,l),
(386,700,l),
(303,700,l),
(71,0,l)
);
},
{
closed = 1;
nodes = (
(604,426,l),
(628,500,l),
(132,500,l),
(108,426,l)
);
},
{
closed = 1;
nodes = (
(530,200,l),
(554,274,l),
(58,274,l),
(34,200,l)
);
}
);
width = 630;
}
);
unicode = 35;
},
{
glyphname = slash;
lastChange = "2024-08-12 15:27:04 +0000";
layers = (
{
layerId = m01;
shapes = (
{
closed = 1;
nodes = (
(216,-200,l),
(506,700,l),
(414,700,l),
(124,-200,l)
);
}
);
width = 630;
},
{
layerId = "941849C8-D0D1-40F0-8537-D2B5B3A46943";
shapes = (
{
closed = 1;
nodes = (
(143,-200,l),
(591,700,l),
(488,700,l),
(40,-200,l)
);
}
);
width = 630;
}
);
unicode = 47;
},
{
glyphname = backslash;
lastChange = "2024-07-26 13:25:08 +0000";
layers = (
{
layerId = m01;
shapes = (
{
closed = 1;
nodes = (
(216,700,l),
(124,700,l),
(414,-200,l),
(506,-200,l)
);
}
);
width = 630;
},
{
layerId = "941849C8-D0D1-40F0-8537-D2B5B3A46943";
shapes = (
{
closed = 1;
nodes = (
(295,700,l),
(203,700,l),
(335,-200,l),
(427,-200,l)
);
}
);
width = 630;
}
);
unicode = 92;
},
{
glyphname = hyphen;
lastChange = "2024-07-26 13:25:08 +0000";
layers = (
{
layerId = m01;
shapes = (
{
closed = 1;
nodes = (
(450,230,l),
(450,304,l),
(180,304,l),
(180,230,l)
);
}
);
width = 630;
},
{
layerId = "941849C8-D0D1-40F0-8537-D2B5B3A46943";
shapes = (
{
closed = 1;
nodes = (
(446,230,l),
(460,304,l),
(190,304,l),
(176,230,l)
);
}
);
width = 630;
}
);
unicode = 45;
},
{
glyphname = endash;
lastChange = "2024-07-26 13:25:08 +0000";
layers = (
{
layerId = m01;
shapes = (
{
closed = 1;
nodes = (
(505,230,l),
(505,304,l),
(125,304,l),
(125,230,l)
);
}
);
width = 630;
},
{
layerId = "941849C8-D0D1-40F0-8537-D2B5B3A46943";
shapes = (
{
closed = 1;
nodes = (
(501,230,l),
(515,304,l),
(135,304,l),
(121,230,l)
);
}
);
width = 630;
}
);
unicode = 8211;
},
{
glyphname = emdash;
lastChange = "2024-07-26 13:25:08 +0000";
layers = (
{
layerId = m01;
shapes = (
{
closed = 1;
nodes = (
(595,230,l),
(595,304,l),
(35,304,l),
(35,230,l)
);
}
);
width = 630;
},
{
layerId = "941849C8-D0D1-40F0-8537-D2B5B3A46943";
shapes = (
{
closed = 1;
nodes = (
(591,230,l),
(605,304,l),
(45,304,l),
(31,230,l)
);
}
);
width = 630;
}
);
unicode = 8212;
},
{
glyphname = underscore;
lastChange = "2024-07-26 14:44:57 +0000";
layers = (
{
layerId = m01;
shapes = (
{
closed = 1;
nodes = (
(500,-74,l),
(500,0,l),
(130,0,l),
(130,-74,l)
);
}
);
width = 630;
},
{
layerId = "941849C8-D0D1-40F0-8537-D2B5B3A46943";
shapes = (
{
closed = 1;
nodes = (
(443,-74,l),
(457,0,l),
(87,0,l),
(73,-74,l)
);
}
);
width = 630;
}
);
unicode = 95;
},
{
glyphname = hyphen.case;
kernLeft = hyphen.case;
kernRight = hyphen.case;
lastChange = "2024-07-26 14:30:06 +0000";
layers = (
{
associatedMasterId = m01;
hints = (
{
horizontal = 1;
place = (355,27);
type = Stem;
},
{
place = (91,341);
type = Stem;
}
);
layerId = "9F39D207-C5D9-4181-A1F4-53E560822E1F";
name = Thin;
shapes = (
{
closed = 1;
nodes = (
(409,347,l),
(409,372,l),
(60,372,l),
(60,347,l)
);
}
);
width = 469;
},
{
layerId = m01;
shapes = (
{
pos = (0,70);
ref = hyphen;
}
);
width = 630;
},
{
associatedMasterId = m01;
layerId = "87109ADF-C7F3-42BA-9BAA-EA8C0D0A026D";
name = Black;
shapes = (
{
closed = 1;
nodes = (
(365,283,l),
(365,438,l),
(29,438,l),
(29,283,l)
);
}
);
width = 394;
},
{
associatedMasterId = m01;
layerId = "C5825083-0A14-4B93-A23A-81F7615B2DE8";
name = "Black Expanded";
shapes = (
{
closed = 1;
nodes = (
(701,271,l),
(701,450,l),
(29,450,l),
(29,271,l)
);
}
);
width = 730;
},
{
associatedMasterId = m01;
layerId = "6FAD4A15-D4AA-4497-A928-3CB89ABDD3A3";
name = "Regular Expanded";
shapes = (
{
closed = 1;
nodes = (
(726,324,l),
(726,398,l),
(54,398,l),
(54,324,l)
);
}
);
width = 780;
},
{
associatedMasterId = m01;
hints = (
{
horizontal = 1;
place = (355,27);
type = Stem;
},
{
place = (91,341);
type = Stem;
}
);
layerId = "C16AB37B-F0AF-4C7C-A825-BF3C9218EC5F";
name = "Thin Expanded";
shapes = (
{
closed = 1;
nodes = (
(729,347,l),
(729,372,l),
(57,372,l),
(57,347,l)
);
}
);
width = 786;
},
{
associatedMasterId = m01;
layerId = "C6C0F293-0405-4917-903C-DB5396247F8C";
name = "Black Compressed";
shapes = (
{
closed = 1;
nodes = (
(213,305,l),
(213,416,l),
(13,416,l),
(13,305,l)
);
}
);
width = 226;
},
{
associatedMasterId = m01;
layerId = "0375C567-1D22-4172-B5FC-5C8AC48B4E7B";
name = "Regular Compressed";
shapes = (
{
closed = 1;
nodes = (
(195,333,l),
(195,388,l),
(23,388,l),
(23,333,l)
);
}
);
width = 218;
},
{
associatedMasterId = m01;
hints = (
{
horizontal = 1;
place = (0,0);
type = Stem;
},
{
place = (0,0);
type = Stem;
}
);
layerId = "A5741CE7-906B-4EE4-B311-9E131446F528";
name = "Black Condensed";
shapes = (
{
closed = 1;
nodes = (
(284,295,l),
(284,426,l),
(20,426,l),
(20,295,l)
);
}
);
width = 304;
},
{
associatedMasterId = m01;
hints = (
{
horizontal = 1;
place = (127,10);
type = Stem;
},
{
place = (33,122);
type = Stem;
}
);
layerId = "9E6640B7-7FBE-494D-9943-AEE257E46523";
name = "Regular Condensed";
shapes = (
{
closed = 1;
nodes = (
(294,330,l),
(294,391,l),
(37,391,l),
(37,330,l)
);
}
);
width = 330;
},
{
associatedMasterId = m01;
hints = (
{
horizontal = 1;
place = (355,27);
type = Stem;
},
{
place = (91,341);
type = Stem;
}
);
layerId = "CCB11377-D01C-48F8-AFFD-38D283C72336";
name = "Thin Condensed";
shapes = (
{
closed = 1;
nodes = (
(300,348,l),
(300,370,l),
(44,370,l),
(44,348,l)
);
}
);
width = 344;
},
{
associatedMasterId = "941849C8-D0D1-40F0-8537-D2B5B3A46943";
hints = (
{
horizontal = 1;
place = (355,27);
type = Stem;
},
{
place = (91,341);
type = Stem;
}
);
layerId = "BD27BC0C-BED5-4003-A668-B8617A868A07";
name = Thin;
shapes = (
{
closed = 1;
nodes = (
(409,347,l),
(409,372,l),
(60,372,l),
(60,347,l)
);
}
);
width = 469;
},
{
layerId = "941849C8-D0D1-40F0-8537-D2B5B3A46943";
shapes = (
{
pos = (12,70);
ref = hyphen;
}
);
width = 630;
},
{
associatedMasterId = "941849C8-D0D1-40F0-8537-D2B5B3A46943";
layerId = "F252B899-19D5-46DB-BCF4-F320ECEB97F9";
name = Black;
shapes = (
{
closed = 1;
nodes = (
(365,283,l),
(365,438,l),
(29,438,l),
(29,283,l)
);
}
);
width = 394;
},
{
associatedMasterId = "941849C8-D0D1-40F0-8537-D2B5B3A46943";
layerId = "CB7EDBFE-49DD-467E-85ED-DB40D6508CE3";
name = "Black Expanded";
shapes = (
{
closed = 1;
nodes = (
(701,271,l),
(701,450,l),
(29,450,l),
(29,271,l)
);
}
);
width = 730;
},
{
associatedMasterId = "941849C8-D0D1-40F0-8537-D2B5B3A46943";
layerId = "541E95E1-89E9-443B-BA3D-C79B06A1FA9A";
name = "Regular Expanded";
shapes = (
{
closed = 1;
nodes = (
(726,324,l),
(726,398,l),
(54,398,l),
(54,324,l)
);
}
);
width = 780;
},
{
associatedMasterId = "941849C8-D0D1-40F0-8537-D2B5B3A46943";
hints = (
{
horizontal = 1;
place = (355,27);
type = Stem;
},
{
place = (91,341);
type = Stem;
}
);
layerId = "1294E7CE-C58C-442C-A5EC-2DC87C51CCA8";
name = "Thin Expanded";
shapes = (
{
closed = 1;
nodes = (
(729,347,l),
(729,372,l),
(57,372,l),
(57,347,l)
);
}
);
width = 786;
},
{
associatedMasterId = "941849C8-D0D1-40F0-8537-D2B5B3A46943";
layerId = "77E5B294-861B-410E-A3BC-9F7F74F6CCD4";
name = "Black Compressed";
shapes = (
{
closed = 1;
nodes = (
(213,305,l),
(213,416,l),
(13,416,l),
(13,305,l)
);
}
);
width = 226;
},
{
associatedMasterId = "941849C8-D0D1-40F0-8537-D2B5B3A46943";
layerId = "07DEDC48-3613-481F-8BAB-3112965932E8";
name = "Regular Compressed";
shapes = (
{
closed = 1;
nodes = (
(195,333,l),
(195,388,l),
(23,388,l),
(23,333,l)
);
}
);
width = 218;
},
{
associatedMasterId = "941849C8-D0D1-40F0-8537-D2B5B3A46943";
hints = (
{
horizontal = 1;
place = (0,0);
type = Stem;
},
{
place = (0,0);
type = Stem;
}
);
layerId = "9339D5E7-6636-416A-96F2-1C874151F25F";
name = "Black Condensed";
shapes = (
{
closed = 1;
nodes = (
(284,295,l),
(284,426,l),
(20,426,l),
(20,295,l)
);
}
);
width = 304;
},
{
associatedMasterId = "941849C8-D0D1-40F0-8537-D2B5B3A46943";
hints = (
{
horizontal = 1;
place = (127,10);
type = Stem;
},
{
place = (33,122);
type = Stem;
}
);
layerId = "A978CD53-BA39-4105-884E-C253E6826336";
name = "Regular Condensed";
shapes = (
{
closed = 1;
nodes = (
(294,330,l),
(294,391,l),
(37,391,l),
(37,330,l)
);
}
);
width = 330;
},
{
associatedMasterId = "941849C8-D0D1-40F0-8537-D2B5B3A46943";
hints = (
{
horizontal = 1;
place = (355,27);
type = Stem;
},
{
place = (91,341);
type = Stem;
}
);
layerId = "374F0802-E705-4B18-AC2C-BDD930F5C0E0";
name = "Thin Condensed";
shapes = (
{
closed = 1;
nodes = (
(300,348,l),
(300,370,l),
(44,370,l),
(44,348,l)
);
}
);
width = 344;
}
);
metricLeft = hyphen;
metricRight = hyphen;
note = hyphen.case;
},
{
glyphname = endash.case;
kernLeft = hyphen.case;
kernRight = hyphen.case;
lastChange = "2024-07-26 14:30:06 +0000";
layers = (
{
associatedMasterId = m01;
hints = (
{
horizontal = 1;
origin = (0,3);
type = Stem;
},
{
place = (95,471);
type = Stem;
}
);
layerId = "9F39D207-C5D9-4181-A1F4-53E560822E1F";
name = Thin;
shapes = (
{
closed = 1;
nodes = (
(544,347,l),
(544,372,l),
(60,372,l),
(60,347,l)
);
}
);
width = 604;
},
{
layerId = m01;
shapes = (
{
pos = (0,70);
ref = endash;
}
);
width = 630;
},
{
associatedMasterId = m01;
layerId = "87109ADF-C7F3-42BA-9BAA-EA8C0D0A026D";
name = Black;
shapes = (
{
closed = 1;
nodes = (
(495,283,l),
(495,438,l),
(29,438,l),
(29,283,l)
);
}
);
width = 524;
},
{
associatedMasterId = m01;
layerId = "C5825083-0A14-4B93-A23A-81F7615B2DE8";
name = "Black Expanded";
shapes = (
{
closed = 1;
nodes = (
(961,271,l),
(961,450,l),
(29,450,l),
(29,271,l)
);
}
);
width = 990;
},
{
associatedMasterId = m01;
layerId = "6FAD4A15-D4AA-4497-A928-3CB89ABDD3A3";
name = "Regular Expanded";
shapes = (
{
closed = 1;
nodes = (
(986,323,l),
(986,397,l),
(54,397,l),
(54,323,l)
);
}
);
width = 1040;
},
{
associatedMasterId = m01;
hints = (
{
horizontal = 1;
origin = (0,3);
type = Stem;
},
{
place = (95,471);
type = Stem;
}
);
layerId = "C16AB37B-F0AF-4C7C-A825-BF3C9218EC5F";
name = "Thin Expanded";
shapes = (
{
closed = 1;
nodes = (
(989,347,l),
(989,372,l),
(57,372,l),
(57,347,l)
);
}
);
width = 1046;
},
{
associatedMasterId = m01;
layerId = "C6C0F293-0405-4917-903C-DB5396247F8C";
name = "Black Compressed";
shapes = (
{
closed = 1;
nodes = (
(290,305,l),
(290,416,l),
(13,416,l),
(13,305,l)
);
}
);
width = 303;
},
{
associatedMasterId = m01;
layerId = "0375C567-1D22-4172-B5FC-5C8AC48B4E7B";
name = "Regular Compressed";
shapes = (
{
closed = 1;
nodes = (
(262,333,l),
(262,388,l),
(23,388,l),
(23,333,l)
);
}
);
width = 285;
},
{
associatedMasterId = m01;
hints = (
{
horizontal = 1;
origin = (0,3);
type = Stem;
},
{
place = (0,0);
type = Stem;
}
);
layerId = "A5741CE7-906B-4EE4-B311-9E131446F528";
name = "Black Condensed";
shapes = (
{
closed = 1;
nodes = (
(386,295,l),
(386,426,l),
(20,426,l),
(20,295,l)
);
}
);
width = 406;
},
{
associatedMasterId = m01;
hints = (
{
horizontal = 1;
origin = (0,3);
type = Stem;
},
{
place = (34,169);
type = Stem;
}
);
layerId = "9E6640B7-7FBE-494D-9943-AEE257E46523";
name = "Regular Condensed";
shapes = (
{
closed = 1;
nodes = (
(393,330,l),
(393,391,l),
(37,391,l),
(37,330,l)
);
}
);
width = 430;
},
{
associatedMasterId = m01;
hints = (
{
horizontal = 1;
origin = (0,3);
type = Stem;
},
{
place = (95,471);
type = Stem;
}
);
layerId = "CCB11377-D01C-48F8-AFFD-38D283C72336";
name = "Thin Condensed";
shapes = (
{
closed = 1;
nodes = (
(399,348,l),
(399,370,l),
(44,370,l),
(44,348,l)
);
}
);
width = 443;
},
{
associatedMasterId = "941849C8-D0D1-40F0-8537-D2B5B3A46943";
hints = (
{
horizontal = 1;
origin = (0,3);
type = Stem;
},
{
place = (95,471);
type = Stem;
}
);
layerId = "60190362-B5D5-40B5-8D32-5A8D9989955B";
name = Thin;
shapes = (
{
closed = 1;
nodes = (
(544,347,l),
(544,372,l),
(60,372,l),
(60,347,l)
);
}
);
width = 604;
},
{
layerId = "941849C8-D0D1-40F0-8537-D2B5B3A46943";
shapes = (
{
pos = (12,70);
ref = endash;
}
);
width = 630;
},
{
associatedMasterId = "941849C8-D0D1-40F0-8537-D2B5B3A46943";
layerId = "0CA0347D-B3E0-4476-AFCD-8DFE57F21B00";
name = Black;
shapes = (
{
closed = 1;
nodes = (
(495,283,l),
(495,438,l),
(29,438,l),
(29,283,l)
);
}
);
width = 524;
},
{
associatedMasterId = "941849C8-D0D1-40F0-8537-D2B5B3A46943";
layerId = "DD0A82A5-A1EC-4768-AE61-E37317E9F7DB";
name = "Black Expanded";
shapes = (
{
closed = 1;
nodes = (
(961,271,l),
(961,450,l),
(29,450,l),
(29,271,l)
);
}
);
width = 990;
},
{
associatedMasterId = "941849C8-D0D1-40F0-8537-D2B5B3A46943";
layerId = "2175B316-350C-4FE1-BE4D-7B98D2047E14";
name = "Regular Expanded";
shapes = (
{
closed = 1;
nodes = (
(986,323,l),
(986,397,l),
(54,397,l),
(54,323,l)
);
}
);
width = 1040;
},
{
associatedMasterId = "941849C8-D0D1-40F0-8537-D2B5B3A46943";
hints = (
{
horizontal = 1;
origin = (0,3);
type = Stem;
},
{
place = (95,471);
type = Stem;
}
);
layerId = "62237F33-137F-440C-A06C-5C9B3D51B30A";
name = "Thin Expanded";
shapes = (
{
closed = 1;
nodes = (
(989,347,l),
(989,372,l),
(57,372,l),
(57,347,l)
);
}
);
width = 1046;
},
{
associatedMasterId = "941849C8-D0D1-40F0-8537-D2B5B3A46943";
layerId = "794C2C13-1AAB-42DA-8AEA-B0AFDC9D152A";
name = "Black Compressed";
shapes = (
{
closed = 1;
nodes = (
(290,305,l),
(290,416,l),
(13,416,l),
(13,305,l)
);
}
);
width = 303;
},
{
associatedMasterId = "941849C8-D0D1-40F0-8537-D2B5B3A46943";
layerId = "95B3E83B-5E4F-49CB-8699-C0D357497A34";
name = "Regular Compressed";
shapes = (
{
closed = 1;
nodes = (
(262,333,l),
(262,388,l),
(23,388,l),
(23,333,l)
);
}
);
width = 285;
},
{
associatedMasterId = "941849C8-D0D1-40F0-8537-D2B5B3A46943";
hints = (
{
horizontal = 1;
origin = (0,3);
type = Stem;
},
{
place = (0,0);
type = Stem;
}
);
layerId = "6A421E08-80D6-4777-BCD1-0A7AAF463652";
name = "Black Condensed";
shapes = (
{
closed = 1;
nodes = (
(386,295,l),
(386,426,l),
(20,426,l),
(20,295,l)
);
}
);
width = 406;
},
{
associatedMasterId = "941849C8-D0D1-40F0-8537-D2B5B3A46943";
hints = (
{
horizontal = 1;
origin = (0,3);
type = Stem;
},
{
place = (34,169);
type = Stem;
}
);
layerId = "A9E5C34A-4EEE-44F7-9C3A-E13D660CAB21";
name = "Regular Condensed";
shapes = (
{
closed = 1;
nodes = (
(393,330,l),
(393,391,l),
(37,391,l),
(37,330,l)
);
}
);
width = 430;
},
{
associatedMasterId = "941849C8-D0D1-40F0-8537-D2B5B3A46943";
hints = (
{
horizontal = 1;
origin = (0,3);
type = Stem;
},
{
place = (95,471);
type = Stem;
}
);
layerId = "BA217E2F-F5C4-4613-B45D-AA54717F114C";
name = "Thin Condensed";
shapes = (
{
closed = 1;
nodes = (
(399,348,l),
(399,370,l),
(44,370,l),
(44,348,l)
);
}
);
width = 443;
}
);
metricLeft = hyphen;
metricRight = hyphen;
note = endash.case;
},
{
glyphname = emdash.case;
kernLeft = hyphen.case;
kernRight = hyphen.case;
lastChange = "2024-07-26 14:30:06 +0000";
layers = (
{
associatedMasterId = m01;
hints = (
{
horizontal = 1;
place = (355,27);
type = Stem;
},
{
place = (95,970);
type = Stem;
}
);
layerId = "9F39D207-C5D9-4181-A1F4-53E560822E1F";
name = Thin;
shapes = (
{
closed = 1;
nodes = (
(1062,346,l),
(1062,371,l),
(60,371,l),
(60,346,l)
);
}
);
width = 1122;
},
{
layerId = m01;
shapes = (
{
pos = (0,70);
ref = emdash;
}
);
width = 630;
},
{
associatedMasterId = m01;
layerId = "87109ADF-C7F3-42BA-9BAA-EA8C0D0A026D";
name = Black;
shapes = (
{
closed = 1;
nodes = (
(994,283,l),
(994,438,l),
(29,438,l),
(29,283,l)
);
}
);
width = 1023;
},
{
associatedMasterId = m01;
layerId = "C5825083-0A14-4B93-A23A-81F7615B2DE8";
name = "Black Expanded";
shapes = (
{
closed = 1;
nodes = (
(1959,271,l),
(1959,450,l),
(29,450,l),
(29,271,l)
);
}
);
width = 1988;
},
{
associatedMasterId = m01;
layerId = "6FAD4A15-D4AA-4497-A928-3CB89ABDD3A3";
name = "Regular Expanded";
shapes = (
{
closed = 1;
nodes = (
(1984,323,l),
(1984,397,l),
(54,397,l),
(54,323,l)
);
}
);
width = 2038;
},
{
associatedMasterId = m01;
hints = (
{
horizontal = 1;
place = (355,27);
type = Stem;
},
{
place = (95,970);
type = Stem;
}
);
layerId = "C16AB37B-F0AF-4C7C-A825-BF3C9218EC5F";
name = "Thin Expanded";
shapes = (
{
closed = 1;
nodes = (
(1987,346,l),
(1987,371,l),
(57,371,l),
(57,346,l)
);
}
);
width = 2044;
},
{
associatedMasterId = m01;
layerId = "C6C0F293-0405-4917-903C-DB5396247F8C";
name = "Black Compressed";
shapes = (
{
closed = 1;
nodes = (
(586,305,l),
(586,416,l),
(13,416,l),
(13,305,l)
);
}
);
width = 599;
},
{
associatedMasterId = m01;
layerId = "0375C567-1D22-4172-B5FC-5C8AC48B4E7B";
name = "Regular Compressed";
shapes = (
{
closed = 1;
nodes = (
(519,333,l),
(519,387,l),
(23,387,l),
(23,333,l)
);
}
);
width = 542;
},
{
associatedMasterId = m01;
hints = (
{
horizontal = 1;
place = (0,0);
type = Stem;
},
{
place = (0,0);
type = Stem;
}
);
layerId = "A5741CE7-906B-4EE4-B311-9E131446F528";
name = "Black Condensed";
shapes = (
{
closed = 1;
nodes = (
(776,295,l),
(776,426,l),
(20,426,l),
(20,295,l)
);
}
);
width = 797;
},
{
associatedMasterId = m01;
hints = (
{
horizontal = 1;
place = (127,10);
type = Stem;
},
{
place = (34,348);
type = Stem;
}
);
layerId = "9E6640B7-7FBE-494D-9943-AEE257E46523";
name = "Regular Condensed";
shapes = (
{
closed = 1;
nodes = (
(774,329,l),
(774,390,l),
(37,390,l),
(37,329,l)
);
}
);
width = 811;
},
{
associatedMasterId = m01;
hints = (
{
horizontal = 1;
place = (355,27);
type = Stem;
},
{
place = (95,970);
type = Stem;
}
);
layerId = "CCB11377-D01C-48F8-AFFD-38D283C72336";
name = "Thin Condensed";
shapes = (
{
closed = 1;
nodes = (
(779,347,l),
(779,369,l),
(44,369,l),
(44,347,l)
);
}
);
width = 823;
},
{
associatedMasterId = "941849C8-D0D1-40F0-8537-D2B5B3A46943";
hints = (
{
horizontal = 1;
place = (355,27);
type = Stem;
},
{
place = (95,970);
type = Stem;
}
);
layerId = "C9A3FE39-2CEF-4AEC-A895-9118BFA93049";
name = Thin;
shapes = (
{
closed = 1;
nodes = (
(1062,346,l),
(1062,371,l),
(60,371,l),
(60,346,l)
);
}
);
width = 1122;
},
{
layerId = "941849C8-D0D1-40F0-8537-D2B5B3A46943";
shapes = (
{
pos = (12,70);
ref = emdash;
}
);
width = 630;
},
{
associatedMasterId = "941849C8-D0D1-40F0-8537-D2B5B3A46943";
layerId = "940E13A6-B226-46B0-9D67-21F180C9C1FA";
name = Black;
shapes = (
{
closed = 1;
nodes = (
(994,283,l),
(994,438,l),
(29,438,l),
(29,283,l)
);
}
);
width = 1023;
},
{
associatedMasterId = "941849C8-D0D1-40F0-8537-D2B5B3A46943";
layerId = "D8F714FB-EDC9-41C8-8105-D800CF72266B";
name = "Black Expanded";
shapes = (
{
closed = 1;
nodes = (
(1959,271,l),
(1959,450,l),
(29,450,l),
(29,271,l)
);
}
);
width = 1988;
},
{
associatedMasterId = "941849C8-D0D1-40F0-8537-D2B5B3A46943";
layerId = "ACFBEBF7-B127-4219-B89B-669A4066E85A";
name = "Regular Expanded";
shapes = (
{
closed = 1;
nodes = (
(1984,323,l),
(1984,397,l),
(54,397,l),
(54,323,l)
);
}
);
width = 2038;
},
{
associatedMasterId = "941849C8-D0D1-40F0-8537-D2B5B3A46943";
hints = (
{
horizontal = 1;
place = (355,27);
type = Stem;
},
{
place = (95,970);
type = Stem;
}
);
layerId = "40D74C78-F664-4288-A4AC-2B33AAF15D20";
name = "Thin Expanded";
shapes = (
{
closed = 1;
nodes = (
(1987,346,l),
(1987,371,l),
(57,371,l),
(57,346,l)
);
}
);
width = 2044;
},
{
associatedMasterId = "941849C8-D0D1-40F0-8537-D2B5B3A46943";
layerId = "BBF92F8C-3DBB-4D2A-8640-C6584D7B028D";
name = "Black Compressed";
shapes = (
{
closed = 1;
nodes = (
(586,305,l),
(586,416,l),
(13,416,l),
(13,305,l)
);
}
);
width = 599;
},
{
associatedMasterId = "941849C8-D0D1-40F0-8537-D2B5B3A46943";
layerId = "A9DAC5D5-8CFE-4BB0-9708-3DC701900F4A";
name = "Regular Compressed";
shapes = (
{
closed = 1;
nodes = (
(519,333,l),
(519,387,l),
(23,387,l),
(23,333,l)
);
}
);
width = 542;
},
{
associatedMasterId = "941849C8-D0D1-40F0-8537-D2B5B3A46943";
hints = (
{
horizontal = 1;
place = (0,0);
type = Stem;
},
{
place = (0,0);
type = Stem;
}
);
layerId = "DD63C4C8-2F45-4118-8E1F-BA844631D443";
name = "Black Condensed";
shapes = (
{
closed = 1;
nodes = (
(776,295,l),
(776,426,l),
(20,426,l),
(20,295,l)
);
}
);
width = 797;
},
{
associatedMasterId = "941849C8-D0D1-40F0-8537-D2B5B3A46943";
hints = (
{
horizontal = 1;
place = (127,10);
type = Stem;
},
{
place = (34,348);
type = Stem;
}
);
layerId = "32C7EA4F-8DA4-4B29-8CE0-BB8328D630D0";
name = "Regular Condensed";
shapes = (
{
closed = 1;
nodes = (
(774,329,l),
(774,390,l),
(37,390,l),
(37,329,l)
);
}
);
width = 811;
},
{
associatedMasterId = "941849C8-D0D1-40F0-8537-D2B5B3A46943";
hints = (
{
horizontal = 1;
place = (355,27);
type = Stem;
},
{
place = (95,970);
type = Stem;
}
);
layerId = "7A70C8F2-3FD5-47C1-BF7A-77CC24E7CCCC";
name = "Thin Condensed";
shapes = (
{
closed = 1;
nodes = (
(779,347,l),
(779,369,l),
(44,369,l),
(44,347,l)
);
}
);
width = 823;
}
);
metricLeft = hyphen;
metricRight = hyphen;
note = emdash.case;
},
{
glyphname = parenleft;
lastChange = "2024-07-26 14:30:06 +0000";
layers = (
{
layerId = m01;
shapes = (
{
closed = 1;
nodes = (
(430,-105,l),
(252,174,o),
(252,514,o),
(430,795,c),
(334,795,l),
(155,515,o),
(155,175,o),
(334,-105,c)
);
}
);
width = 630;
},
{
layerId = "941849C8-D0D1-40F0-8537-D2B5B3A46943";
shapes = (
{
closed = 1;
nodes = (
(369,-105,l),
(240,174,o),
(300,514,o),
(527,795,c),
(431,795,l),
(203,515,o),
(143,175,o),
(273,-105,c)
);
}
);
width = 630;
}
);
unicode = 40;
},
{
glyphname = braceleft;
lastChange = "2024-07-26 14:30:06 +0000";
layers = (
{
layerId = m01;
shapes = (
{
closed = 1;
nodes = (
(174,297,o),
(217,287,o),
(217,192,cs),
(217,9,ls),
(217,-69,o),
(253,-105,o),
(331,-105,cs),
(502,-105,l),
(502,-25,l),
(308,-25,l),
(308,231,ls),
(308,296,o),
(283,331,o),
(219,341,c),
(219,349,l),
(283,359,o),
(308,394,o),
(308,459,cs),
(308,715,l),
(502,715,l),
(502,795,l),
(331,795,ls),
(253,795,o),
(217,759,o),
(217,681,cs),
(217,498,ls),
(217,403,o),
(174,393,o),
(127,383,c),
(127,307,l)
);
}
);
width = 630;
},
{
layerId = "941849C8-D0D1-40F0-8537-D2B5B3A46943";
shapes = (
{
closed = 1;
nodes = (
(184,297,o),
(225,287,o),
(208,192,cs),
(176,9,ls),
(162,-69,o),
(192,-105,o),
(270,-105,cs),
(441,-105,l),
(455,-25,l),
(261,-25,l),
(306,231,ls),
(317,296,o),
(299,331,o),
(236,341,c),
(238,349,l),
(303,359,o),
(335,394,o),
(346,459,cs),
(391,715,l),
(585,715,l),
(599,795,l),
(428,795,ls),
(350,795,o),
(308,759,o),
(294,681,cs),
(262,498,ls),
(245,403,o),
(200,393,o),
(152,383,c),
(138,307,l)
);
}
);
width = 630;
}
);
unicode = 123;
},
{
glyphname = bracketleft;
lastChange = "2024-07-26 14:30:06 +0000";
layers = (
{
layerId = m01;
shapes = (
{
closed = 1;
nodes = (
(173,-69,o),
(209,-105,o),
(287,-105,cs),
(458,-105,l),
(458,-25,l),
(264,-25,l),
(264,715,l),
(458,715,l),
(458,795,l),
(287,795,ls),
(209,795,o),
(173,759,o),
(173,681,cs),
(173,9,ls)
);
}
);
width = 630;
},
{
associatedMasterId = m01;
layerId = "BCC2D704-8A1B-49A4-95F2-180269792104";
name = "9 juil. 24 à 15:25";
shapes = (
{
closed = 1;
nodes = (
(455,-200,l),
(455,-120,l),
(261,-120,l),
(261,620,l),
(455,620,l),
(455,700,l),
(172,700,l),
(172,-200,l)
);
}
);
width = 630;
},
{
layerId = "941849C8-D0D1-40F0-8537-D2B5B3A46943";
shapes = (
{
closed = 1;
nodes = (
(118,-69,o),
(148,-105,o),
(226,-105,cs),
(397,-105,l),
(411,-25,l),
(217,-25,l),
(347,715,l),
(541,715,l),
(555,795,l),
(384,795,ls),
(306,795,o),
(264,759,o),
(250,681,cs),
(132,9,ls)
);
}
);
width = 630;
},
{
associatedMasterId = "941849C8-D0D1-40F0-8537-D2B5B3A46943";
layerId = "2069C132-302D-4EFA-9A6A-E2C314AD40AB";
name = "9 juil. 24 à 15:25";
shapes = (
{
closed = 1;
nodes = (
(455,-200,l),
(455,-120,l),
(261,-120,l),
(261,620,l),
(455,620,l),
(455,700,l),
(172,700,l),
(172,-200,l)
);
}
);
width = 630;
}
);
unicode = 91;
},
{
glyphname = parenleft.case;
kernRight = parenleft.case;
lastChange = "2024-07-26 14:30:06 +0000";
layers = (
{
associatedMasterId = m01;
hints = (
{
horizontal = 1;
place = (-47,836);
type = Stem;
},
{
place = (69,26);
type = Stem;
}
);
layerId = "9F39D207-C5D9-4181-A1F4-53E560822E1F";
name = Thin;
shapes = (
{
pos = (0,99);
ref = parenleft;
}
);
width = 630;
},
{
layerId = m01;
shapes = (
{
closed = 1;
nodes = (
(470,0,l),
(282,196,o),
(282,503,o),
(470,700,c),
(372,700,l),
(193,503,o),
(193,197,o),
(372,0,c)
);
}
);
width = 630;
},
{
associatedMasterId = m01;
layerId = "87109ADF-C7F3-42BA-9BAA-EA8C0D0A026D";
name = Black;
shapes = (
{
alignment = -1;
pos = (0,99);
ref = parenleft;
}
);
width = 630;
},
{
associatedMasterId = m01;
layerId = "C5825083-0A14-4B93-A23A-81F7615B2DE8";
name = "Black Expanded";
shapes = (
{
alignment = -1;
pos = (0,99);
ref = parenleft;
}
);
width = 630;
},
{
associatedMasterId = m01;
layerId = "6FAD4A15-D4AA-4497-A928-3CB89ABDD3A3";
name = "Regular Expanded";
shapes = (
{
pos = (0,99);
ref = parenleft;
}
);
width = 630;
},
{
associatedMasterId = m01;
hints = (
{
horizontal = 1;
place = (-47,836);
type = Stem;
},
{
place = (69,26);
type = Stem;
}
);
layerId = "C16AB37B-F0AF-4C7C-A825-BF3C9218EC5F";
name = "Thin Expanded";
shapes = (
{
pos = (0,99);
ref = parenleft;
}
);
width = 630;
},
{
associatedMasterId = m01;
layerId = "C6C0F293-0405-4917-903C-DB5396247F8C";
name = "Black Compressed";
shapes = (
{
alignment = -1;
pos = (0,99);
ref = parenleft;
}
);
width = 630;
},
{
associatedMasterId = m01;
layerId = "0375C567-1D22-4172-B5FC-5C8AC48B4E7B";
name = "Regular Compressed";
shapes = (
{
pos = (0,99);
ref = parenleft;
}
);
width = 630;
},
{
associatedMasterId = m01;
hints = (
{
horizontal = 1;
place = (0,0);
type = Stem;
},
{
place = (0,0);
type = Stem;
}
);
layerId = "A5741CE7-906B-4EE4-B311-9E131446F528";
name = "Black Condensed";
shapes = (
{
alignment = -1;
pos = (0,99);
ref = parenleft;
}
);
width = 630;
},
{
associatedMasterId = m01;
hints = (
{
horizontal = 1;
place = (-17,300);
type = Stem;
},
{
place = (25,9);
type = Stem;
}
);
layerId = "9E6640B7-7FBE-494D-9943-AEE257E46523";
name = "Regular Condensed";
shapes = (
{
alignment = -1;
pos = (0,99);
ref = parenleft;
}
);
width = 630;
},
{
associatedMasterId = m01;
hints = (
{
horizontal = 1;
place = (-47,836);
type = Stem;
},
{
place = (69,26);
type = Stem;
}
);
layerId = "CCB11377-D01C-48F8-AFFD-38D283C72336";
name = "Thin Condensed";
shapes = (
{
alignment = -1;
pos = (0,99);
ref = parenleft;
}
);
width = 630;
},
{
associatedMasterId = "941849C8-D0D1-40F0-8537-D2B5B3A46943";
hints = (
{
horizontal = 1;
place = (-47,836);
type = Stem;
},
{
place = (69,26);
type = Stem;
}
);
layerId = "66398C56-798E-4BA0-A88D-5C63FA174B39";
name = Thin;
shapes = (
{
pos = (17,99);
ref = parenleft;
}
);
width = 630;
},
{
layerId = "941849C8-D0D1-40F0-8537-D2B5B3A46943";
shapes = (
{
closed = 1;
nodes = (
(427,0,l),
(274,196,o),
(328,503,o),
(551,700,c),
(453,700,l),
(239,503,o),
(185,197,o),
(329,0,c)
);
}
);
width = 630;
},
{
associatedMasterId = "941849C8-D0D1-40F0-8537-D2B5B3A46943";
layerId = "746B6C16-1221-40E3-8BA6-17AA134A18D6";
name = Black;
shapes = (
{
alignment = -1;
pos = (0,99);
ref = parenleft;
}
);
width = 630;
},
{
associatedMasterId = "941849C8-D0D1-40F0-8537-D2B5B3A46943";
layerId = "562D34A1-6015-4F38-92BA-D472B2AAF435";
name = "Black Expanded";
shapes = (
{
alignment = -1;
pos = (0,99);
ref = parenleft;
}
);
width = 630;
},
{
associatedMasterId = "941849C8-D0D1-40F0-8537-D2B5B3A46943";
layerId = "4A30216D-66EE-489E-A877-2BD400589CE5";
name = "Regular Expanded";
shapes = (
{
pos = (17,99);
ref = parenleft;
}
);
width = 630;
},
{
associatedMasterId = "941849C8-D0D1-40F0-8537-D2B5B3A46943";
hints = (
{
horizontal = 1;
place = (-47,836);
type = Stem;
},
{
place = (69,26);
type = Stem;
}
);
layerId = "BA644250-DBB7-47C7-B096-FB8D7D707BF1";
name = "Thin Expanded";
shapes = (
{
pos = (17,99);
ref = parenleft;
}
);
width = 630;
},
{
associatedMasterId = "941849C8-D0D1-40F0-8537-D2B5B3A46943";
layerId = "DB04203E-C54F-41BD-9CCE-F457854D7754";
name = "Black Compressed";
shapes = (
{
alignment = -1;
pos = (0,99);
ref = parenleft;
}
);
width = 630;
},
{
associatedMasterId = "941849C8-D0D1-40F0-8537-D2B5B3A46943";
layerId = "279D87C7-EF1D-4C9F-97DD-487F245AFD90";
name = "Regular Compressed";
shapes = (
{
pos = (17,99);
ref = parenleft;
}
);
width = 630;
},
{
associatedMasterId = "941849C8-D0D1-40F0-8537-D2B5B3A46943";
hints = (
{
horizontal = 1;
place = (0,0);
type = Stem;
},
{
place = (0,0);
type = Stem;
}
);
layerId = "07445A6A-6A8D-48FB-A6E5-89E1A70F350B";
name = "Black Condensed";
shapes = (
{
alignment = -1;
pos = (0,99);
ref = parenleft;
}
);
width = 630;
},
{
associatedMasterId = "941849C8-D0D1-40F0-8537-D2B5B3A46943";
hints = (
{
horizontal = 1;
place = (-17,300);
type = Stem;
},
{
place = (25,9);
type = Stem;
}
);
layerId = "ED6BBA1D-0C01-4AAA-9A0A-7191679A2B19";
name = "Regular Condensed";
shapes = (
{
alignment = -1;
pos = (0,99);
ref = parenleft;
}
);
width = 630;
},
{
associatedMasterId = "941849C8-D0D1-40F0-8537-D2B5B3A46943";
hints = (
{
horizontal = 1;
place = (-47,836);
type = Stem;
},
{
place = (69,26);
type = Stem;
}
);
layerId = "89845163-66F5-4A5C-B064-AEE92D42E3FF";
name = "Thin Condensed";
shapes = (
{
alignment = -1;
pos = (0,99);
ref = parenleft;
}
);
width = 630;
}
);
note = parenleft.case;
},
{
glyphname = braceleft.case;
lastChange = "2024-07-26 14:30:06 +0000";
layers = (
{
associatedMasterId = m01;
hints = (
{
horizontal = 1;
place = (765,23);
type = Stem;
},
{
horizontal = 1;
place = (371,14);
type = Stem;
},
{
horizontal = 1;
place = (357,28);
type = Stem;
},
{
horizontal = 1;
place = (-46,23);
type = Stem;
},
{
place = (138,24);
type = Stem;
}
);
layerId = "9F39D207-C5D9-4181-A1F4-53E560822E1F";
name = Thin;
shapes = (
{
pos = (0,82);
ref = braceleft;
}
);
width = 630;
},
{
layerId = m01;
shapes = (
{
closed = 1;
nodes = (
(182,302,o),
(225,292,o),
(225,197,cs),
(225,114,ls),
(225,36,o),
(261,0,o),
(339,0,cs),
(510,0,l),
(510,80,l),
(316,80,l),
(316,236,ls),
(316,301,o),
(291,336,o),
(227,346,c),
(227,354,l),
(291,364,o),
(316,399,o),
(316,464,cs),
(316,620,l),
(510,620,l),
(510,700,l),
(339,700,ls),
(261,700,o),
(225,664,o),
(225,586,cs),
(225,503,ls),
(225,408,o),
(182,398,o),
(135,388,c),
(135,312,l)
);
}
);
width = 630;
},
{
associatedMasterId = m01;
layerId = "87109ADF-C7F3-42BA-9BAA-EA8C0D0A026D";
name = Black;
shapes = (
{
alignment = -1;
pos = (0,82);
ref = braceleft;
}
);
width = 630;
},
{
associatedMasterId = m01;
layerId = "C5825083-0A14-4B93-A23A-81F7615B2DE8";
name = "Black Expanded";
shapes = (
{
alignment = -1;
pos = (0,82);
ref = braceleft;
}
);
width = 630;
},
{
associatedMasterId = m01;
layerId = "6FAD4A15-D4AA-4497-A928-3CB89ABDD3A3";
name = "Regular Expanded";
shapes = (
{
pos = (0,82);
ref = braceleft;
}
);
width = 630;
},
{
associatedMasterId = m01;
hints = (
{
horizontal = 1;
place = (765,23);
type = Stem;
},
{
horizontal = 1;
place = (371,14);
type = Stem;
},
{
horizontal = 1;
place = (357,28);
type = Stem;
},
{
horizontal = 1;
place = (-46,23);
type = Stem;
},
{
place = (138,24);
type = Stem;
}
);
layerId = "C16AB37B-F0AF-4C7C-A825-BF3C9218EC5F";
name = "Thin Expanded";
shapes = (
{
pos = (0,82);
ref = braceleft;
}
);
width = 630;
},
{
associatedMasterId = m01;
layerId = "C6C0F293-0405-4917-903C-DB5396247F8C";
name = "Black Compressed";
shapes = (
{
alignment = -1;
pos = (0,82);
ref = braceleft;
}
);
width = 630;
},
{
associatedMasterId = m01;
layerId = "0375C567-1D22-4172-B5FC-5C8AC48B4E7B";
name = "Regular Compressed";
shapes = (
{
pos = (0,82);
ref = braceleft;
}
);
width = 630;
},
{
associatedMasterId = m01;
hints = (
{
horizontal = 1;
place = (0,0);
type = Stem;
},
{
horizontal = 1;
place = (0,0);
type = Stem;
},
{
horizontal = 1;
place = (0,0);
type = Stem;
},
{
horizontal = 1;
place = (0,0);
type = Stem;
},
{
place = (0,0);
type = Stem;
}
);
layerId = "A5741CE7-906B-4EE4-B311-9E131446F528";
name = "Black Condensed";
shapes = (
{
alignment = -1;
pos = (0,82);
ref = braceleft;
}
);
width = 630;
},
{
associatedMasterId = m01;
hints = (
{
horizontal = 1;
place = (274,8);
type = Stem;
},
{
horizontal = 1;
place = (133,5);
type = Stem;
},
{
horizontal = 1;
place = (128,10);
type = Stem;
},
{
horizontal = 1;
place = (-16,8);
type = Stem;
},
{
place = (49,9);
type = Stem;
}
);
layerId = "9E6640B7-7FBE-494D-9943-AEE257E46523";
name = "Regular Condensed";
shapes = (
{
alignment = -1;
pos = (0,82);
ref = braceleft;
}
);
width = 630;
},
{
associatedMasterId = m01;
hints = (
{
horizontal = 1;
place = (765,23);
type = Stem;
},
{
horizontal = 1;
place = (371,14);
type = Stem;
},
{
horizontal = 1;
place = (357,28);
type = Stem;
},
{
horizontal = 1;
place = (-46,23);
type = Stem;
},
{
place = (138,24);
type = Stem;
}
);
layerId = "CCB11377-D01C-48F8-AFFD-38D283C72336";
name = "Thin Condensed";
shapes = (
{
alignment = -1;
pos = (0,82);
ref = braceleft;
}
);
width = 630;
},
{
associatedMasterId = "941849C8-D0D1-40F0-8537-D2B5B3A46943";
hints = (
{
horizontal = 1;
place = (765,23);
type = Stem;
},
{
horizontal = 1;
place = (371,14);
type = Stem;
},
{
horizontal = 1;
place = (357,28);
type = Stem;
},
{
horizontal = 1;
place = (-46,23);
type = Stem;
},
{
place = (138,24);
type = Stem;
}
);
layerId = "90255172-4408-47EA-9C50-A8D77C88B40C";
name = Thin;
shapes = (
{
pos = (14,82);
ref = braceleft;
}
);
width = 630;
},
{
layerId = "941849C8-D0D1-40F0-8537-D2B5B3A46943";
shapes = (
{
closed = 1;
nodes = (
(193,302,o),
(234,292,o),
(217,197,cs),
(202,114,ls),
(189,36,o),
(218,0,o),
(296,0,cs),
(467,0,l),
(481,80,l),
(287,80,l),
(315,236,ls),
(326,301,o),
(308,336,o),
(245,346,c),
(247,354,l),
(312,364,o),
(344,399,o),
(355,464,cs),
(383,620,l),
(577,620,l),
(591,700,l),
(420,700,ls),
(342,700,o),
(299,664,o),
(286,586,cs),
(271,503,ls),
(254,408,o),
(209,398,o),
(161,388,c),
(147,312,l)
);
}
);
width = 630;
},
{
associatedMasterId = "941849C8-D0D1-40F0-8537-D2B5B3A46943";
layerId = "FC02C8C5-016E-433E-98BD-1D30902217DC";
name = Black;
shapes = (
{
alignment = -1;
pos = (0,82);
ref = braceleft;
}
);
width = 630;
},
{
associatedMasterId = "941849C8-D0D1-40F0-8537-D2B5B3A46943";
layerId = "0415D518-B9EF-41FA-90D7-4EB0BC321A57";
name = "Black Expanded";
shapes = (
{
alignment = -1;
pos = (0,82);
ref = braceleft;
}
);
width = 630;
},
{
associatedMasterId = "941849C8-D0D1-40F0-8537-D2B5B3A46943";
layerId = "EAB93942-2B8A-4040-9043-B5AC187DB591";
name = "Regular Expanded";
shapes = (
{
pos = (14,82);
ref = braceleft;
}
);
width = 630;
},
{
associatedMasterId = "941849C8-D0D1-40F0-8537-D2B5B3A46943";
hints = (
{
horizontal = 1;
place = (765,23);
type = Stem;
},
{
horizontal = 1;
place = (371,14);
type = Stem;
},
{
horizontal = 1;
place = (357,28);
type = Stem;
},
{
horizontal = 1;
place = (-46,23);
type = Stem;
},
{
place = (138,24);
type = Stem;
}
);
layerId = "F1D3F82F-7D6B-4F0C-8D1C-C02DAE281AE8";
name = "Thin Expanded";
shapes = (
{
pos = (14,82);
ref = braceleft;
}
);
width = 630;
},
{
associatedMasterId = "941849C8-D0D1-40F0-8537-D2B5B3A46943";
layerId = "83012B08-A956-4780-98D1-B74B7CF4DABE";
name = "Black Compressed";
shapes = (
{
alignment = -1;
pos = (0,82);
ref = braceleft;
}
);
width = 630;
},
{
associatedMasterId = "941849C8-D0D1-40F0-8537-D2B5B3A46943";
layerId = "E9BF3703-7625-4B43-B9A1-8EA326F11352";
name = "Regular Compressed";
shapes = (
{
pos = (14,82);
ref = braceleft;
}
);
width = 630;
},
{
associatedMasterId = "941849C8-D0D1-40F0-8537-D2B5B3A46943";
hints = (
{
horizontal = 1;
place = (0,0);
type = Stem;
},
{
horizontal = 1;
place = (0,0);
type = Stem;
},
{
horizontal = 1;
place = (0,0);
type = Stem;
},
{
horizontal = 1;
place = (0,0);
type = Stem;
},
{
place = (0,0);
type = Stem;
}
);
layerId = "7665C293-53E4-4A14-8011-23B00341C85F";
name = "Black Condensed";
shapes = (
{
alignment = -1;
pos = (0,82);
ref = braceleft;
}
);
width = 630;
},
{
associatedMasterId = "941849C8-D0D1-40F0-8537-D2B5B3A46943";
hints = (
{
horizontal = 1;
place = (274,8);
type = Stem;
},
{
horizontal = 1;
place = (133,5);
type = Stem;
},
{
horizontal = 1;
place = (128,10);
type = Stem;
},
{
horizontal = 1;
place = (-16,8);
type = Stem;
},
{
place = (49,9);
type = Stem;
}
);
layerId = "9F1E1B42-354B-415D-915D-5FE316EC780B";
name = "Regular Condensed";
shapes = (
{
alignment = -1;
pos = (0,82);
ref = braceleft;
}
);
width = 630;
},
{
associatedMasterId = "941849C8-D0D1-40F0-8537-D2B5B3A46943";
hints = (
{
horizontal = 1;
place = (765,23);
type = Stem;
},
{
horizontal = 1;
place = (371,14);
type = Stem;
},
{
horizontal = 1;
place = (357,28);
type = Stem;
},
{
horizontal = 1;
place = (-46,23);
type = Stem;
},
{
place = (138,24);
type = Stem;
}
);
layerId = "8DF1A2BB-B698-4EEE-9050-2EAEAFD78652";
name = "Thin Condensed";
shapes = (
{
alignment = -1;
pos = (0,82);
ref = braceleft;
}
);
width = 630;
}
);
note = braceleft.case;
},
{
glyphname = bracketleft.case;
lastChange = "2024-07-26 14:30:06 +0000";
layers = (
{
associatedMasterId = m01;
hints = (
{
horizontal = 1;
place = (764,24);
type = Stem;
},
{
horizontal = 1;
place = (-46,24);
type = Stem;
},
{
place = (102,25);
type = Stem;
}
);
layerId = "9F39D207-C5D9-4181-A1F4-53E560822E1F";
name = Thin;
shapes = (
{
pos = (0,82);
ref = bracketleft;
}
);
width = 630;
},
{
layerId = m01;
shapes = (
{
closed = 1;
nodes = (
(173,36,o),
(209,0,o),
(287,0,cs),
(458,0,l),
(458,80,l),
(264,80,l),
(264,620,l),
(458,620,l),
(458,700,l),
(287,700,ls),
(209,700,o),
(173,664,o),
(173,586,cs),
(173,114,ls)
);
}
);
width = 630;
},
{
associatedMasterId = m01;
layerId = "87109ADF-C7F3-42BA-9BAA-EA8C0D0A026D";
name = Black;
shapes = (
{
alignment = -1;
pos = (0,82);
ref = bracketleft;
}
);
width = 630;
},
{
associatedMasterId = m01;
layerId = "C5825083-0A14-4B93-A23A-81F7615B2DE8";
name = "Black Expanded";
shapes = (
{
alignment = -1;
pos = (0,82);
ref = bracketleft;
}
);
width = 630;
},
{
associatedMasterId = m01;
layerId = "6FAD4A15-D4AA-4497-A928-3CB89ABDD3A3";
name = "Regular Expanded";
shapes = (
{
pos = (0,82);
ref = bracketleft;
}
);
width = 630;
},
{
associatedMasterId = m01;
hints = (
{
horizontal = 1;
place = (764,24);
type = Stem;
},
{
horizontal = 1;
place = (-46,24);
type = Stem;
},
{
place = (102,25);
type = Stem;
}
);
layerId = "C16AB37B-F0AF-4C7C-A825-BF3C9218EC5F";
name = "Thin Expanded";
shapes = (
{
pos = (0,82);
ref = bracketleft;
}
);
width = 630;
},
{
associatedMasterId = m01;
layerId = "C6C0F293-0405-4917-903C-DB5396247F8C";
name = "Black Compressed";
shapes = (
{
alignment = -1;
pos = (0,82);
ref = bracketleft;
}
);
width = 630;
},
{
associatedMasterId = m01;
layerId = "0375C567-1D22-4172-B5FC-5C8AC48B4E7B";
name = "Regular Compressed";
shapes = (
{
pos = (0,82);
ref = bracketleft;
}
);
width = 630;
},
{
associatedMasterId = m01;
hints = (
{
horizontal = 1;
place = (0,0);
type = Stem;
},
{
horizontal = 1;
place = (0,0);
type = Stem;
},
{
place = (0,0);
type = Stem;
}
);
layerId = "A5741CE7-906B-4EE4-B311-9E131446F528";
name = "Black Condensed";
shapes = (
{
alignment = -1;
pos = (0,82);
ref = bracketleft;
}
);
width = 630;
},
{
associatedMasterId = m01;
hints = (
{
horizontal = 1;
place = (274,9);
type = Stem;
},
{
horizontal = 1;
place = (-16,9);
type = Stem;
},
{
place = (37,9);
type = Stem;
}
);
layerId = "9E6640B7-7FBE-494D-9943-AEE257E46523";
name = "Regular Condensed";
shapes = (
{
alignment = -1;
pos = (0,82);
ref = bracketleft;
}
);
width = 630;
},
{
associatedMasterId = m01;
hints = (
{
horizontal = 1;
place = (764,24);
type = Stem;
},
{
horizontal = 1;
place = (-46,24);
type = Stem;
},
{
place = (102,25);
type = Stem;
}
);
layerId = "CCB11377-D01C-48F8-AFFD-38D283C72336";
name = "Thin Condensed";
shapes = (
{
alignment = -1;
pos = (0,82);
ref = bracketleft;
}
);
width = 630;
},
{
associatedMasterId = "941849C8-D0D1-40F0-8537-D2B5B3A46943";
hints = (
{
horizontal = 1;
place = (764,24);
type = Stem;
},
{
horizontal = 1;
place = (-46,24);
type = Stem;
},
{
place = (102,25);
type = Stem;
}
);
layerId = "B6C41120-3DC8-4B02-AAC8-B3D8BD1C955E";
name = Thin;
shapes = (
{
pos = (14,82);
ref = bracketleft;
}
);
width = 630;
},
{
layerId = "941849C8-D0D1-40F0-8537-D2B5B3A46943";
shapes = (
{
closed = 1;
nodes = (
(137,36,o),
(166,0,o),
(244,0,cs),
(415,0,l),
(429,80,l),
(235,80,l),
(331,620,l),
(525,620,l),
(539,700,l),
(368,700,ls),
(290,700,o),
(247,664,o),
(234,586,cs),
(150,114,ls)
);
}
);
width = 630;
},
{
associatedMasterId = "941849C8-D0D1-40F0-8537-D2B5B3A46943";
layerId = "BFB046B2-B3C8-4AB2-A45F-4DBD6C7D9D45";
name = Black;
shapes = (
{
alignment = -1;
pos = (0,82);
ref = bracketleft;
}
);
width = 630;
},
{
associatedMasterId = "941849C8-D0D1-40F0-8537-D2B5B3A46943";
layerId = "DA09E9DA-EDC4-4A39-92C8-EB51B99118CD";
name = "Black Expanded";
shapes = (
{
alignment = -1;
pos = (0,82);
ref = bracketleft;
}
);
width = 630;
},
{
associatedMasterId = "941849C8-D0D1-40F0-8537-D2B5B3A46943";
layerId = "B7CC8954-6EAC-4109-9B27-78E38591B01B";
name = "Regular Expanded";
shapes = (
{
pos = (14,82);
ref = bracketleft;
}
);
width = 630;
},
{
associatedMasterId = "941849C8-D0D1-40F0-8537-D2B5B3A46943";
hints = (
{
horizontal = 1;
place = (764,24);
type = Stem;
},
{
horizontal = 1;
place = (-46,24);
type = Stem;
},
{
place = (102,25);
type = Stem;
}
);
layerId = "81677BA2-A569-4FE4-9538-EF7BF56BA54B";
name = "Thin Expanded";
shapes = (
{
pos = (14,82);
ref = bracketleft;
}
);
width = 630;
},
{
associatedMasterId = "941849C8-D0D1-40F0-8537-D2B5B3A46943";
layerId = "F183B47D-ADF3-4A0E-ADC9-CA6C14C27259";
name = "Black Compressed";
shapes = (
{
alignment = -1;
pos = (0,82);
ref = bracketleft;
}
);
width = 630;
},
{
associatedMasterId = "941849C8-D0D1-40F0-8537-D2B5B3A46943";
layerId = "EFC65F84-EB1E-4064-A497-FF130AE90391";
name = "Regular Compressed";
shapes = (
{
pos = (14,82);
ref = bracketleft;
}
);
width = 630;
},
{
associatedMasterId = "941849C8-D0D1-40F0-8537-D2B5B3A46943";
hints = (
{
horizontal = 1;
place = (0,0);
type = Stem;
},
{
horizontal = 1;
place = (0,0);
type = Stem;
},
{
place = (0,0);
type = Stem;
}
);
layerId = "4C0BB1BF-20F3-46D9-91CD-9C114E1DCDAB";
name = "Black Condensed";
shapes = (
{
alignment = -1;
pos = (0,82);
ref = bracketleft;
}
);
width = 630;
},
{
associatedMasterId = "941849C8-D0D1-40F0-8537-D2B5B3A46943";
hints = (
{
horizontal = 1;
place = (274,9);
type = Stem;
},
{
horizontal = 1;
place = (-16,9);
type = Stem;
},
{
place = (37,9);
type = Stem;
}
);
layerId = "382DE0E7-B442-4FD7-A44A-D965F96F0A92";
name = "Regular Condensed";
shapes = (
{
alignment = -1;
pos = (0,82);
ref = bracketleft;
}
);
width = 630;
},
{
associatedMasterId = "941849C8-D0D1-40F0-8537-D2B5B3A46943";
hints = (
{
horizontal = 1;
place = (764,24);
type = Stem;
},
{
horizontal = 1;
place = (-46,24);
type = Stem;
},
{
place = (102,25);
type = Stem;
}
);
layerId = "780EA278-A836-4FD5-964A-BA6B521B978D";
name = "Thin Condensed";
shapes = (
{
alignment = -1;
pos = (0,82);
ref = bracketleft;
}
);
width = 630;
}
);
note = bracketleft.case;
},
{
glyphname = guilsinglleft;
lastChange = "2024-07-26 14:30:06 +0000";
layers = (
{
layerId = m01;
shapes = (
{
closed = 1;
nodes = (
(299,260,l),
(441,460,l),
(329,460,l),
(190,260,l),
(330,60,l),
(441,60,l)
);
}
);
width = 630;
},
{
layerId = "941849C8-D0D1-40F0-8537-D2B5B3A46943";
shapes = (
{
closed = 1;
nodes = (
(302,260,l),
(479,460,l),
(367,460,l),
(193,260,l),
(298,60,l),
(409,60,l)
);
}
);
width = 630;
}
);
unicode = 8249;
},
{
glyphname = quotedbl;
lastChange = "2024-07-26 13:25:08 +0000";
layers = (
{
layerId = m01;
shapes = (
{
closed = 1;
nodes = (
(200,500,l),
(260,500,l),
(270,710,l),
(190,710,l)
);
},
{
closed = 1;
nodes = (
(370,500,l),
(430,500,l),
(440,710,l),
(360,710,l)
);
}
);
width = 630;
},
{
layerId = "941849C8-D0D1-40F0-8537-D2B5B3A46943";
shapes = (
{
closed = 1;
nodes = (
(243,500,l),
(303,500,l),
(351,710,l),
(271,710,l)
);
},
{
closed = 1;
nodes = (
(413,500,l),
(473,500,l),
(521,710,l),
(441,710,l)
);
}
);
width = 630;
}
);
unicode = 34;
},
{
glyphname = quotesingle;
lastChange = "2024-07-26 13:25:08 +0000";
layers = (
{
layerId = m01;
shapes = (
{
closed = 1;
nodes = (
(285,500,l),
(345,500,l),
(355,710,l),
(275,710,l)
);
}
);
width = 630;
},
{
layerId = "941849C8-D0D1-40F0-8537-D2B5B3A46943";
shapes = (
{
closed = 1;
nodes = (
(328,500,l),
(388,500,l),
(436,710,l),
(356,710,l)
);
}
);
width = 630;
}
);
unicode = 39;
},
{
glyphname = at;
lastChange = "2024-07-26 14:30:06 +0000";
layers = (
{
layerId = m01;
shapes = (
{
closed = 1;
nodes = (
(402,-168,o),
(460,-148,o),
(507,-109,c),
(463,-48,l),
(436,-72,o),
(392,-93,o),
(336,-93,cs),
(183,-93,o),
(111,43,o),
(111,271,cs),
(111,511,o),
(181,635,o),
(322,635,cs),
(463,635,o),
(521,497,o),
(521,288,cs),
(521,177,o),
(515,111,o),
(484,111,cs),
(459,111,o),
(455,135,o),
(455,176,cs),
(455,489,l),
(386,489,l),
(386,456,l),
(378,456,l),
(367,480,o),
(339,497,o),
(300,497,cs),
(225,497,o),
(170,433,o),
(170,260,cs),
(170,87,o),
(225,29,o),
(300,29,cs),
(344,29,o),
(377,56,o),
(389,92,c),
(398,92,l),
(407,57,o),
(431,31,o),
(481,31,cs),
(569,31,o),
(606,112,o),
(606,291,cs),
(606,544,o),
(510,710,o),
(322,710,cs),
(134,710,o),
(26,558,o),
(26,271,cs),
(26,-4,o),
(135,-168,o),
(331,-168,cs)
);
},
{
closed = 1;
nodes = (
(269,99,o),
(249,139,o),
(249,260,cs),
(249,387,o),
(269,427,o),
(315,427,cs),
(355,427,o),
(380,387,o),
(380,260,cs),
(380,139,o),
(355,99,o),
(315,99,cs)
);
}
);
width = 630;
},
{
layerId = "941849C8-D0D1-40F0-8537-D2B5B3A46943";
shapes = (
{
closed = 1;
nodes = (
(330,-168,o),
(391,-148,o),
(445,-109,c),
(412,-48,l),
(381,-72,o),
(333,-93,o),
(277,-93,cs),
(124,-93,o),
(76,43,o),
(116,271,cs),
(158,511,o),
(250,635,o),
(391,635,cs),
(532,635,o),
(566,497,o),
(529,288,cs),
(509,177,o),
(492,111,o),
(461,111,cs),
(436,111,o),
(436,135,o),
(443,176,cs),
(498,489,l),
(429,489,l),
(424,456,l),
(416,456,l),
(409,480,o),
(384,497,o),
(345,497,cs),
(270,497,o),
(204,433,o),
(173,260,cs),
(143,87,o),
(187,29,o),
(262,29,cs),
(306,29,o),
(344,56,o),
(362,92,c),
(371,92,l),
(374,57,o),
(394,31,o),
(444,31,cs),
(532,31,o),
(583,112,o),
(615,291,cs),
(659,544,o),
(592,710,o),
(404,710,cs),
(216,710,o),
(82,558,o),
(31,271,cs),
(-17,-4,o),
(63,-168,o),
(259,-168,cs)
);
},
{
closed = 1;
nodes = (
(244,99,o),
(231,139,o),
(252,260,cs),
(274,387,o),
(302,427,o),
(348,427,cs),
(388,427,o),
(405,387,o),
(383,260,cs),
(362,139,o),
(330,99,o),
(290,99,cs)
);
}
);
width = 630;
}
);
unicode = 64;
},
{
glyphname = ampersand;
lastChange = "2024-07-26 14:30:06 +0000";
layers = (
{
layerId = m01;
shapes = (
{
closed = 1;
nodes = (
(326,-5,o),
(379,25,o),
(408,65,c),
(416,65,l),
(416,20,o),
(439,0,o),
(478,0,cs),
(607,0,l),
(607,80,l),
(501,80,l),
(501,492,ls),
(501,637,o),
(428,710,o),
(284,710,cs),
(151,710,o),
(68,635,o),
(68,525,cs),
(68,443,o),
(109,397,o),
(168,370,c),
(168,362,l),
(93,337,o),
(44,266,o),
(44,183,cs),
(44,68,o),
(121,-5,o),
(244,-5,cs)
);
},
{
closed = 1;
nodes = (
(185,75,o),
(144,125,o),
(144,193,cs),
(144,262,o),
(195,325,o),
(299,325,cs),
(607,325,l),
(607,405,l),
(304,405,ls),
(207,405,o),
(164,458,o),
(164,517,cs),
(164,587,o),
(214,624,o),
(289,624,cs),
(369,624,o),
(407,578,o),
(407,482,cs),
(407,210,ls),
(407,110,o),
(343,75,o),
(267,75,cs)
);
}
);
width = 630;
},
{
layerId = "941849C8-D0D1-40F0-8537-D2B5B3A46943";
shapes = (
{
closed = 1;
nodes = (
(285,-5,o),
(343,25,o),
(379,65,c),
(387,65,l),
(379,20,o),
(399,0,o),
(438,0,cs),
(567,0,l),
(581,80,l),
(475,80,l),
(546,482,ls),
(572,627,o),
(488,710,o),
(344,710,cs),
(198,710,o),
(117,619,o),
(117,509,cs),
(117,439,o),
(147,393,o),
(193,370,c),
(192,362,l),
(92,331,o),
(32,251,o),
(32,153,cs),
(32,61,o),
(95,-5,o),
(203,-5,cs)
);
},
{
closed = 1;
nodes = (
(172,75,o),
(136,118,o),
(136,183,cs),
(136,268,o),
(212,325,o),
(316,325,cs),
(624,325,l),
(638,405,l),
(335,405,ls),
(249,405,o),
(213,447,o),
(213,507,cs),
(213,572,o),
(261,624,o),
(346,624,cs),
(426,624,o),
(469,578,o),
(452,482,cs),
(404,210,ls),
(386,110,o),
(319,75,o),
(253,75,cs)
);
}
);
width = 630;
}
);
unicode = 38;
},
{
glyphname = ampersand.ss01;
lastChange = "2024-07-26 14:30:06 +0000";
layers = (
{
layerId = m01;
shapes = (
{
closed = 1;
nodes = (
(461,-10,o),
(567,121,o),
(567,314,cs),
(567,378,l),
(482,378,l),
(482,311,ls),
(482,144,o),
(401,70,o),
(285,70,cs),
(209,70,o),
(157,115,o),
(157,187,cs),
(157,253,o),
(189,290,o),
(273,333,cs),
(316,355,ls),
(417,407,o),
(472,455,o),
(472,546,cs),
(472,634,o),
(412,710,o),
(301,710,cs),
(190,710,o),
(126,634,o),
(126,539,cs),
(126,475,o),
(152,428,o),
(217,343,cs),
(478,0,l),
(587,0,l),
(587,3,l),
(294,385,ls),
(237,459,o),
(214,495,o),
(214,539,cs),
(214,591,o),
(248,629,o),
(301,629,cs),
(356,629,o),
(386,594,o),
(386,539,cs),
(386,489,o),
(347,452,o),
(265,413,cs),
(221,392,ls),
(110,339,o),
(62,272,o),
(62,182,cs),
(62,57,o),
(145,-10,o),
(271,-10,cs)
);
}
);
width = 630;
},
{
layerId = "941849C8-D0D1-40F0-8537-D2B5B3A46943";
shapes = (
{
closed = 1;
nodes = (
(433,-10,o),
(552,121,o),
(586,314,cs),
(597,378,l),
(512,378,l),
(500,311,ls),
(471,144,o),
(377,70,o),
(271,70,cs),
(193,70,o),
(151,116,o),
(151,174,cs),
(151,256,o),
(208,292,o),
(295,333,cs),
(342,355,ls),
(453,408,o),
(535,446,o),
(535,572,cs),
(535,647,o),
(477,710,o),
(379,710,cs),
(242,710,o),
(181,620,o),
(181,514,cs),
(181,456,o),
(200,412,o),
(241,343,cs),
(441,0,l),
(550,0,l),
(551,3,l),
(325,385,ls),
(288,448,o),
(270,483,o),
(270,520,cs),
(270,580,o),
(301,629,o),
(372,629,cs),
(415,629,o),
(446,601,o),
(446,559,cs),
(446,479,o),
(372,444,o),
(301,413,cs),
(253,392,ls),
(128,337,o),
(53,263,o),
(53,159,cs),
(53,42,o),
(132,-10,o),
(253,-10,cs)
);
}
);
width = 630;
}
);
},
{
glyphname = plus;
lastChange = "2024-08-12 15:27:04 +0000";
layers = (
{
layerId = m01;
shapes = (
{
closed = 1;
nodes = (
(353,94,l),
(353,499,l),
(279,499,l),
(279,94,l)
);
},
{
closed = 1;
nodes = (
(518,260,l),
(518,334,l),
(113,334,l),
(113,260,l)
);
}
);
width = 630;
},
{
layerId = "941849C8-D0D1-40F0-8537-D2B5B3A46943";
shapes = (
{
closed = 1;
nodes = (
(325,94,l),
(397,499,l),
(323,499,l),
(251,94,l)
);
},
{
closed = 1;
nodes = (
(520,260,l),
(533,334,l),
(128,334,l),
(115,260,l)
);
}
);
width = 630;
}
);
unicode = 43;
},
{
glyphname = minus;
lastChange = "2024-08-12 15:27:04 +0000";
layers = (
{
layerId = m01;
shapes = (
{
closed = 1;
nodes = (
(518,260,l),
(518,334,l),
(113,334,l),
(113,260,l)
);
}
);
width = 630;
},
{
layerId = "941849C8-D0D1-40F0-8537-D2B5B3A46943";
shapes = (
{
closed = 1;
nodes = (
(520,260,l),
(533,334,l),
(128,334,l),
(115,260,l)
);
}
);
width = 630;
}
);
unicode = 8722;
},
{
glyphname = equal;
lastChange = "2024-08-12 15:27:04 +0000";
layers = (
{
layerId = m01;
shapes = (
{
closed = 1;
nodes = (
(518,380,l),
(518,454,l),
(113,454,l),
(113,380,l)
);
},
{
closed = 1;
nodes = (
(518,180,l),
(518,254,l),
(113,254,l),
(113,180,l)
);
}
);
width = 630;
},
{
layerId = "941849C8-D0D1-40F0-8537-D2B5B3A46943";
shapes = (
{
closed = 1;
nodes = (
(541,380,l),
(554,454,l),
(149,454,l),
(136,380,l)
);
},
{
closed = 1;
nodes = (
(506,180,l),
(519,254,l),
(114,254,l),
(101,180,l)
);
}
);
width = 630;
}
);
unicode = 61;
},
{
glyphname = dieresiscomb;
lastChange = "2024-07-26 13:25:08 +0000";
layers = (
{
anchors = (
{
name = _top;
pos = (222,565);
},
{
name = top;
pos = (222,783);
}
);
associatedMasterId = m01;
layerId = m002;
name = Bold;
shapes = (
{
closed = 1;
nodes = (
(200,624,l),
(200,783,l),
(50,783,l),
(50,624,l)
);
},
{
closed = 1;
nodes = (
(394,624,l),
(394,783,l),
(243,783,l),
(243,624,l)
);
}
);
userData = {
com.hugojourdan.ColorFlow = {
"0" = 0;
"1" = 0;
"10" = 0;
"11" = 0;
"2" = 0;
"3" = 0;
"4" = 0;
"5" = 0;
"6" = 0;
"7" = 0;
"8" = 0;
"9" = 0;
};
};
width = 444;
},
{
anchors = (
{
name = _top;
pos = (257,500);
},
{
name = top;
pos = (257,673);
}
);
layerId = m01;
shapes = (
{
closed = 1;
nodes = (
(199,568,o),
(223,591,o),
(223,622,cs),
(223,652,o),
(199,676,o),
(169,676,cs),
(138,676,o),
(115,652,o),
(115,622,cs),
(115,591,o),
(138,568,o),
(169,568,cs)
);
},
{
closed = 1;
nodes = (
(376,568,o),
(399,591,o),
(399,622,cs),
(399,652,o),
(376,676,o),
(345,676,cs),
(315,676,o),
(291,652,o),
(291,622,cs),
(291,591,o),
(315,568,o),
(345,568,cs)
);
}
);
userData = {
com.hugojourdan.ColorFlow = {
"0" = 0;
"1" = 0;
"10" = 0;
"11" = 0;
"2" = 0;
"3" = 0;
"4" = 0;
"5" = 0;
"6" = 0;
"7" = 0;
"8" = 0;
"9" = 0;
};
};
width = 630;
},
{
anchors = (
{
name = _top;
pos = (235,544);
},
{
name = top;
pos = (272,753);
}
);
associatedMasterId = m01;
layerId = m005;
name = "Regular Italic";
shapes = (
{
closed = 1;
nodes = (
(209,659,l),
(225,753,l),
(135,753,l),
(119,659,l)
);
},
{
closed = 1;
nodes = (
(393,659,l),
(409,753,l),
(318,753,l),
(302,659,l)
);
}
);
userData = {
com.hugojourdan.ColorFlow = {
"0" = 0;
"1" = 0;
"10" = 0;
"11" = 0;
"2" = 0;
"3" = 0;
"4" = 0;
"5" = 0;
"6" = 0;
"7" = 0;
"8" = 0;
"9" = 0;
};
};
width = 375;
},
{
anchors = (
{
name = _top;
pos = (272,565);
},
{
name = top;
pos = (310,783);
}
);
associatedMasterId = m01;
layerId = m006;
name = "Bold Italic";
shapes = (
{
closed = 1;
nodes = (
(260,624,l),
(288,783,l),
(138,783,l),
(110,624,l)
);
},
{
closed = 1;
nodes = (
(454,624,l),
(482,783,l),
(331,783,l),
(303,624,l)
);
}
);
userData = {
com.hugojourdan.ColorFlow = {
"0" = 0;
"1" = 0;
"10" = 0;
"11" = 0;
"2" = 0;
"3" = 0;
"4" = 0;
"5" = 0;
"6" = 0;
"7" = 0;
"8" = 0;
"9" = 0;
};
};
width = 444;
},
{
anchors = (
{
name = _top;
pos = (211,531);
},
{
name = top;
pos = (246,731);
}
);
associatedMasterId = m01;
layerId = m007;
name = "Ultra Light Italic";
shapes = (
{
closed = 1;
nodes = (
(182,673,l),
(192,731,l),
(132,731,l),
(122,673,l)
);
},
{
closed = 1;
nodes = (
(350,673,l),
(360,731,l),
(300,731,l),
(290,673,l)
);
}
);
userData = {
com.hugojourdan.ColorFlow = {
"0" = 0;
"1" = 0;
"10" = 0;
"11" = 0;
"2" = 0;
"3" = 0;
"4" = 0;
"5" = 0;
"6" = 0;
"7" = 0;
"8" = 0;
"9" = 0;
};
};
width = 328;
},
{
anchors = (
{
name = _top;
pos = (222,565);
},
{
name = top;
pos = (222,783);
}
);
associatedMasterId = "941849C8-D0D1-40F0-8537-D2B5B3A46943";
layerId = "E4B74297-3B2F-4769-840D-A8CC5E489FB7";
name = Bold;
shapes = (
{
closed = 1;
nodes = (
(200,624,l),
(200,783,l),
(50,783,l),
(50,624,l)
);
},
{
closed = 1;
nodes = (
(394,624,l),
(394,783,l),
(243,783,l),
(243,624,l)
);
}
);
userData = {
com.hugojourdan.ColorFlow = {
"0" = 0;
"1" = 0;
"10" = 0;
"11" = 0;
"2" = 0;
"3" = 0;
"4" = 0;
"5" = 0;
"6" = 0;
"7" = 0;
"8" = 0;
"9" = 0;
};
};
width = 444;
},
{
anchors = (
{
name = _top;
pos = (301,500);
},
{
name = top;
pos = (332,673);
}
);
layerId = "941849C8-D0D1-40F0-8537-D2B5B3A46943";
shapes = (
{
closed = 1;
nodes = (
(255,568,o),
(284,591,o),
(289,622,cs),
(294,652,o),
(275,676,o),
(245,676,cs),
(214,676,o),
(186,652,o),
(181,622,cs),
(176,591,o),
(194,568,o),
(225,568,cs)
);
},
{
closed = 1;
nodes = (
(432,568,o),
(460,591,o),
(465,622,cs),
(470,652,o),
(452,676,o),
(421,676,cs),
(391,676,o),
(362,652,o),
(357,622,cs),
(352,591,o),
(371,568,o),
(401,568,cs)
);
}
);
userData = {
com.hugojourdan.ColorFlow = {
"0" = 0;
"1" = 0;
"10" = 0;
"11" = 0;
"2" = 0;
"3" = 0;
"4" = 0;
"5" = 0;
"6" = 0;
"7" = 0;
"8" = 0;
"9" = 0;
};
};
width = 630;
},
{
anchors = (
{
name = _top;
pos = (235,544);
},
{
name = top;
pos = (272,753);
}
);
associatedMasterId = "941849C8-D0D1-40F0-8537-D2B5B3A46943";
layerId = "1FE56F60-0853-4893-8BD6-75F3F2B3B75C";
name = "Regular Italic";
shapes = (
{
closed = 1;
nodes = (
(209,659,l),
(225,753,l),
(135,753,l),
(119,659,l)
);
},
{
closed = 1;
nodes = (
(393,659,l),
(409,753,l),
(318,753,l),
(302,659,l)
);
}
);
userData = {
com.hugojourdan.ColorFlow = {
"0" = 0;
"1" = 0;
"10" = 0;
"11" = 0;
"2" = 0;
"3" = 0;
"4" = 0;
"5" = 0;
"6" = 0;
"7" = 0;
"8" = 0;
"9" = 0;
};
};
width = 375;
},
{
anchors = (
{
name = _top;
pos = (272,565);
},
{
name = top;
pos = (310,783);
}
);
associatedMasterId = "941849C8-D0D1-40F0-8537-D2B5B3A46943";
layerId = "B4A6CC1C-1F2D-4B5B-BE1F-C8627DC26DFD";
name = "Bold Italic";
shapes = (
{
closed = 1;
nodes = (
(260,624,l),
(288,783,l),
(138,783,l),
(110,624,l)
);
},
{
closed = 1;
nodes = (
(454,624,l),
(482,783,l),
(331,783,l),
(303,624,l)
);
}
);
userData = {
com.hugojourdan.ColorFlow = {
"0" = 0;
"1" = 0;
"10" = 0;
"11" = 0;
"2" = 0;
"3" = 0;
"4" = 0;
"5" = 0;
"6" = 0;
"7" = 0;
"8" = 0;
"9" = 0;
};
};
width = 444;
},
{
anchors = (
{
name = _top;
pos = (211,531);
},
{
name = top;
pos = (246,731);
}
);
associatedMasterId = "941849C8-D0D1-40F0-8537-D2B5B3A46943";
layerId = "EAED0B0A-9EB4-4BD8-9313-FCF313DC563C";
name = "Ultra Light Italic";
shapes = (
{
closed = 1;
nodes = (
(182,673,l),
(192,731,l),
(132,731,l),
(122,673,l)
);
},
{
closed = 1;
nodes = (
(350,673,l),
(360,731,l),
(300,731,l),
(290,673,l)
);
}
);
userData = {
com.hugojourdan.ColorFlow = {
"0" = 0;
"1" = 0;
"10" = 0;
"11" = 0;
"2" = 0;
"3" = 0;
"4" = 0;
"5" = 0;
"6" = 0;
"7" = 0;
"8" = 0;
"9" = 0;
};
};
width = 328;
}
);
unicode = 776;
userData = {
KernOnSpecialSpacing = {
L = NoKerning;
R = NoKerning;
};
};
},
